<svg width="140" height="46" viewBox="0 0 140 46" fill="none" xmlns="http://www.w3.org/2000/svg">
<g id="Frame" clip-path="url(#clip0_399_383)">
<g id="Group">
<path id="Vector" d="M2.03711 9.73467V9.62256C15.6079 9.15544 57.8176 9.25821 91.7305 9.33295C112.956 9.37966 131.28 9.41703 137.391 9.31426V9.42637C131.28 9.52914 112.947 9.49177 91.7305 9.44506C57.8176 9.36097 15.6079 9.26755 2.03711 9.73467Z" fill="black"/>
<path id="Vector_2" d="M136.405 9.79077C133.177 9.35168 76.2436 9.41708 38.5729 9.46379C18.6214 9.49182 2.86481 9.5105 1.89746 9.44511L1.90676 9.333C2.87411 9.3984 18.6307 9.37971 38.5729 9.35168C76.2529 9.30497 133.187 9.23958 136.424 9.67867L136.405 9.79077Z" fill="black"/>
<path id="Vector_3" d="M121.616 9.47309C107.645 9.47309 87.2938 9.41703 67.3888 9.37032C40.1729 9.30492 12.0269 9.23018 1.35815 9.29558V9.18347C12.0269 9.11808 40.1729 9.19281 67.3888 9.25821C97.7765 9.33295 129.206 9.41703 137.391 9.31427V9.42637C134.573 9.4544 128.983 9.47309 121.616 9.47309Z" fill="black"/>
<path id="Vector_4" d="M89.1264 7.73536C75.3231 7.73536 60.5059 7.70734 47.0003 7.66997C25.7001 7.6326 7.30194 7.58589 1.19092 7.69799V7.58589C7.30194 7.47378 25.7001 7.52049 47.0003 7.5672C81.0527 7.64194 123.43 7.73536 136.991 7.27759V7.3897C128.806 7.66062 110.129 7.73536 89.1264 7.73536Z" fill="black"/>
<path id="Vector_5" d="M57.9291 7.6888C29.8947 7.6888 4.30656 7.6234 2.16724 7.33379L2.18584 7.22168C5.41343 7.66077 62.5426 7.59537 100.353 7.54866C120.369 7.52063 136.173 7.50195 137.14 7.56735L137.131 7.67946C136.163 7.61406 120.36 7.63274 100.344 7.66077C87.489 7.67011 72.3835 7.6888 57.9291 7.6888Z" fill="black"/>
<path id="Vector_6" d="M125.123 7.84751C111.394 7.84751 91.182 7.80079 71.4537 7.74474C40.9358 7.67 9.38545 7.58592 1.19092 7.69803V7.58592C9.38545 7.47381 40.9358 7.55789 71.4537 7.63263C98.7719 7.69803 127.011 7.77277 137.68 7.70737V7.81948C134.722 7.83816 130.397 7.84751 125.123 7.84751Z" fill="black"/>
<path id="Vector_7" d="M24.2396 36.351C16.2962 36.351 8.47376 36.3417 0.874512 36.3137V36.2016C21.9515 36.2763 44.7957 36.2296 66.8866 36.1735C90.5958 36.1175 115.114 36.0614 137.68 36.1642V36.2763C115.114 36.1735 90.5958 36.2296 66.8866 36.2856C52.7577 36.3137 38.3219 36.351 24.2396 36.351Z" fill="black"/>
<path id="Vector_8" d="M0.558105 36.6968V36.5847C48.5347 35.7065 93.3303 35.9681 138.805 36.3511V36.4632C93.3303 36.0895 48.5347 35.8186 0.558105 36.6968Z" fill="black"/>
<path id="Vector_9" d="M29.0578 38.1727C19.5518 38.1727 10.176 38.154 1.12573 38.1167V38.0046C23.6909 38.1073 48.2001 38.0513 71.9094 37.9952C94.0095 37.9392 116.854 37.8831 137.94 37.9672V38.0793C116.863 38.0046 94.0095 38.0513 71.9094 38.1073C57.7155 38.1447 43.2425 38.1727 29.0578 38.1727Z" fill="black"/>
<path id="Vector_10" d="M139.066 38.3692C125.169 38.2945 109.72 38.2384 94.7815 38.1824C79.9272 38.1263 64.5799 38.0703 50.758 37.9955L0.744385 37.7339V37.6218L50.758 37.8834C64.5799 37.9581 79.9365 38.0142 94.7815 38.0703C109.72 38.1263 125.16 38.1824 139.066 38.2571V38.3692Z" fill="black"/>
<path id="Vector_11" d="M72.2628 38.2382C49.4372 38.2382 25.793 38.1261 0.000244141 37.9112V37.7991C51.1579 38.2288 93.87 38.2288 138.489 37.8084V37.9205C116.37 38.1354 94.7071 38.2382 72.2628 38.2382Z" fill="black"/>
<path id="Vector_12" d="M63.1102 10.6129C57.92 10.6129 53.5204 10.5475 51.9485 10.3606L51.9578 10.2485C56.3201 10.7623 82.5408 10.37 86.838 10.1458L86.8473 10.2579C84.0941 10.398 72.3465 10.6129 63.1102 10.6129Z" fill="black"/>
<path id="Vector_13" d="M84.773 10.5381C80.9222 10.5381 73.8253 10.4634 66.9236 10.3887C60.7289 10.3233 54.869 10.2579 51.9949 10.2579V10.1458C54.869 10.1458 60.7196 10.2111 66.9236 10.2765C75.3414 10.3606 84.0382 10.4541 86.8007 10.4073V10.5194C86.3077 10.5381 85.6194 10.5381 84.773 10.5381Z" fill="black"/>
<path id="Vector_14" d="M54.0227 10.6595C53.4274 10.6595 52.8042 10.6502 52.1438 10.6408V10.5287C54.0878 10.5754 55.6969 10.5381 57.4084 10.5007C58.7664 10.4727 60.1616 10.4447 61.7521 10.454C67.3702 10.5007 82.4385 10.3045 86.652 9.97754L86.6613 10.0896C82.4478 10.4166 67.3702 10.6035 61.7521 10.5661C60.1709 10.5568 58.7664 10.5848 57.4177 10.6128C56.2829 10.6408 55.1947 10.6595 54.0227 10.6595Z" fill="black"/>
<path id="Vector_15" d="M30.8808 24.1217C30.8808 24.1964 30.8622 24.3272 30.825 24.5234C30.7878 24.7102 30.7692 24.8504 30.7692 24.9251V37.1262C30.7692 37.201 30.732 37.3037 30.6576 37.4439C30.5832 37.5747 30.5274 37.6961 30.4901 37.8176C30.2297 37.8176 29.9972 37.8362 29.8111 37.8736C29.7739 37.8736 29.7274 37.9016 29.6716 37.9577C29.6158 38.0137 29.5321 38.0418 29.4205 38.0418C29.3461 38.0418 29.2066 37.9951 28.9926 37.9016C28.788 37.8082 28.602 37.7241 28.4531 37.6494C28.4531 37.5373 28.4345 37.4158 28.3973 37.2757C28.3601 37.1449 28.3229 37.0235 28.2857 36.902L28.1741 14.8167C28.2857 14.5925 28.2857 14.3402 28.1741 14.0786C27.5695 13.3219 27.03 12.5839 26.5557 11.8551C26.0813 11.1358 25.4488 10.5472 24.6582 10.0894C24.4721 10.0147 24.2582 9.92128 24.035 9.80917C23.8117 9.69707 23.5978 9.60364 23.4118 9.51956C23.1513 9.48219 22.8537 9.48219 22.5374 9.51956C22.2119 9.55693 21.9236 9.55693 21.6631 9.51956C21.5887 9.48219 21.5236 9.44482 21.4678 9.40745C21.412 9.37008 21.3469 9.3514 21.2725 9.3514H14.0453C13.9709 9.3514 13.7476 9.36074 13.3942 9.37943C13.0314 9.39811 12.7059 9.44482 12.3989 9.51956C12.2873 9.55693 12.1199 9.64101 11.8873 9.7718C11.6641 9.9026 11.4409 10.0708 11.2362 10.2576C11.0316 10.4445 10.8363 10.65 10.6689 10.8555C10.5014 11.061 10.4177 11.2479 10.4177 11.3974V30.9229C10.4177 30.9976 10.4363 31.1378 10.4735 31.3526C10.5107 31.5582 10.5386 31.7917 10.5572 32.0346C10.5758 32.2775 10.6038 32.5111 10.641 32.7166C10.6782 32.9222 10.6968 33.053 10.6968 33.0903V36.6778C10.6968 37.0982 10.5386 37.4252 10.2131 37.6774C9.88754 37.9203 9.5992 38.0511 9.33876 38.0511C8.9574 38.0511 8.69696 37.967 8.54814 37.7989C8.39932 37.6307 8.2784 37.3318 8.20399 36.9207L8.09237 18.5162C8.05517 18.4041 8.03657 18.2733 8.03657 18.1145C8.03657 17.965 7.99936 17.7969 7.92495 17.6007L7.86914 10.5379C7.86914 10.2389 7.92495 9.89326 8.03657 9.51022C8.14818 9.13652 8.35281 8.82823 8.65976 8.60401C8.73417 8.52927 8.86439 8.47322 9.05972 8.43585C9.24575 8.39848 9.42247 8.34242 9.5713 8.26769C9.75733 8.23032 10.055 8.13689 10.4456 7.97807C10.8456 7.82859 11.2269 7.73517 11.6083 7.6978C11.8687 7.66043 12.1664 7.64175 12.4826 7.64175C12.7989 7.64175 13.1151 7.62306 13.4221 7.58569H28.4438C28.5927 7.62306 28.8066 7.66978 29.067 7.72583C29.3275 7.78188 29.5879 7.87531 29.8298 8.01544C30.0716 8.14623 30.2948 8.30506 30.4808 8.50124C30.6669 8.68809 30.7599 8.94034 30.7599 9.23929C30.7971 9.31403 30.825 9.36074 30.8436 9.37943C30.8622 9.39811 30.8715 9.46351 30.8715 9.57562V24.1217H30.8808ZM9.11553 8.76283C8.80858 8.83757 8.58535 9.08047 8.43653 9.47285C8.2877 9.87457 8.21329 10.2016 8.21329 10.4725V10.8462C8.21329 11.0143 8.2505 11.1451 8.32491 11.2199C8.36211 11.2946 8.40862 11.3507 8.46443 11.388C8.52024 11.4254 8.52954 11.4815 8.49233 11.5562L8.60395 28.7088L8.82718 10.7621C8.9016 10.4538 8.9481 10.1362 8.96671 9.79049C8.99461 9.44482 9.04112 9.1085 9.11553 8.76283ZM8.71557 37.4065C8.71557 36.3415 8.70627 35.6688 8.68766 35.3885C8.66906 35.1083 8.64116 34.9214 8.60395 34.8467C8.56675 34.9962 8.53884 35.2017 8.52024 35.4446C8.50164 35.6875 8.49233 35.8743 8.49233 35.9865C8.49233 36.0612 8.51094 36.2667 8.54814 36.5844C8.58535 36.9113 8.64116 37.1823 8.71557 37.4065ZM17.3287 8.58533H10.9851H16.0265C16.0265 8.62269 15.8032 8.64138 15.3475 8.64138C14.8917 8.64138 14.3429 8.63204 13.7011 8.61335C13.0593 8.59467 12.3803 8.57598 11.6641 8.5573C10.9479 8.53861 10.3247 8.52927 9.79453 8.52927C9.75732 8.56664 9.71082 8.6227 9.65501 8.69743C9.5992 8.77217 9.55269 8.82823 9.51549 8.8656C9.40387 9.24863 9.32946 9.58496 9.29225 9.89326C9.25505 10.2016 9.21784 10.4818 9.18064 10.7434L8.9016 31.689L9.06902 37.4345C9.29226 37.584 9.48758 37.6214 9.63641 37.5466L9.74802 12.6679C9.78523 12.3596 9.85034 12.0887 9.94335 11.8458C10.0364 11.6029 10.1201 11.3413 10.1945 11.0797C10.2689 10.7341 10.2689 10.3604 10.1945 9.93997C10.1201 9.51956 10.2131 9.23929 10.4735 9.08981C11.4223 8.59467 12.4919 8.40782 13.7011 8.51993C14.9103 8.64138 16.1195 8.66006 17.3287 8.58533ZM10.3619 36.5563V33.081C10.3619 33.0436 10.3526 32.9315 10.334 32.7447C10.3154 32.5578 10.2968 32.3429 10.2782 32.1187C10.2596 31.8945 10.241 31.6796 10.2224 31.4928C10.2038 31.3059 10.1945 31.1751 10.1945 31.0911V12.4811L10.0829 37.2477C10.2689 36.9767 10.3619 36.7432 10.3619 36.5563ZM28.3229 12.7053C28.3229 12.4437 28.2206 12.0887 28.0067 11.6496C27.802 11.2105 27.5323 10.7901 27.2161 10.3697C26.8905 9.94931 26.5371 9.5943 26.1371 9.286C25.7371 8.98705 25.3558 8.84691 24.9744 8.88428L12.3431 8.94968C11.9246 9.02442 11.6083 9.09915 11.3758 9.17389C11.1525 9.24863 10.9479 9.34206 10.7619 9.43548C10.5758 9.5289 10.4828 9.65035 10.4828 9.80917V10.4912C11.1618 9.84654 11.7385 9.45416 12.2129 9.32337C12.6873 9.19258 13.1895 9.12718 13.7104 9.12718H21.5329H21.8771H22.4723C22.677 9.12718 22.8816 9.13652 23.0676 9.15521C23.2537 9.17389 23.3839 9.20192 23.4676 9.23929C24.221 9.42614 24.9744 9.8372 25.7371 10.4631C26.4905 11.0891 27.0765 11.8178 27.4951 12.6586C27.5695 12.8454 27.6904 13.0136 27.8672 13.1444C28.0346 13.2752 28.1555 13.4434 28.2392 13.6302C28.2392 13.4434 28.2578 13.2565 28.295 13.0883C28.3043 12.9015 28.3229 12.78 28.3229 12.7053ZM30.5925 9.74378C30.5181 9.5943 30.4901 9.46351 30.5088 9.34206C30.5274 9.22995 30.5181 9.13652 30.4808 9.05244C30.4064 8.94033 30.3227 8.81888 30.2297 8.67875C30.1367 8.54796 30.0344 8.44519 29.9135 8.37045C29.7274 8.25834 29.4763 8.16492 29.1787 8.09018C28.8717 8.01544 28.6857 7.97807 28.6113 7.97807L23.1141 7.92202C23.0025 7.92202 22.863 7.90333 22.6863 7.86596C22.5188 7.82859 22.3793 7.80991 22.2584 7.80991L13.7011 7.75386C13.5895 7.75386 13.2174 7.80057 12.5943 7.89399C11.9711 7.98741 11.4316 8.0715 10.9758 8.14624H26.0534C26.1278 8.14624 26.1557 8.12755 26.1371 8.08084C26.1185 8.03413 26.165 8.01544 26.2766 8.01544C26.351 8.01544 26.4905 8.05281 26.7045 8.13689C26.9091 8.22097 27.0951 8.27703 27.244 8.3144C27.4672 8.3144 27.7369 8.34242 28.0346 8.39848C28.3322 8.45453 28.602 8.48256 28.8252 8.48256C28.9368 8.51993 29.0484 8.56664 29.1694 8.62269C29.281 8.67875 29.374 8.72546 29.4484 8.76283C29.746 9.1085 29.9042 9.61298 29.9042 10.3043V12.014C29.9042 12.1261 29.9135 12.4344 29.9321 12.9295C29.9507 13.4247 29.9414 13.8357 29.9042 14.1814C29.9042 14.2561 29.8856 14.3496 29.8484 14.4617C29.8111 14.5738 29.7925 14.6672 29.7925 14.7419V37.3971H30.2483C30.2855 37.285 30.3227 37.1636 30.3599 37.0235C30.3971 36.8927 30.4343 36.7712 30.4715 36.6498L30.5925 9.74378ZM28.388 11.6216V9.44482C28.388 9.33271 28.3043 9.22061 28.1369 9.09915C27.9695 8.98705 27.7741 8.88428 27.5695 8.80954C27.3649 8.7348 27.1509 8.66941 26.9463 8.61335C26.7417 8.5573 26.6115 8.52927 26.5743 8.52927H25.2721C25.5697 8.56664 25.8767 8.69743 26.1743 8.93099C26.4719 9.16455 26.7696 9.42614 27.0486 9.73444C27.3277 10.0427 27.5974 10.3697 27.8393 10.706C28.0904 11.0517 28.2671 11.36 28.388 11.6216ZM29.6344 12.1915C29.6344 12.1167 29.6437 11.9112 29.6623 11.5655C29.6809 11.2199 29.6623 10.8555 29.6065 10.4538C29.5507 10.0521 29.4577 9.69707 29.3275 9.37008C29.1973 9.05244 28.974 8.88428 28.6764 8.88428L28.3322 8.87494C28.5927 9.02442 28.7322 9.22061 28.7322 9.44482V12.5839C28.7322 12.696 28.8159 12.9949 28.9833 13.4714C29.1507 13.9478 29.3368 14.3402 29.5228 14.6392C29.56 14.2188 29.5879 13.733 29.6065 13.1631C29.6251 12.5932 29.6344 12.2662 29.6344 12.1915ZM29.3461 37.7522V37.0141C29.3833 36.9394 29.3647 36.8646 29.2903 36.7899C29.2159 36.7152 29.16 36.6404 29.1228 36.5657C29.1228 36.4909 29.1507 36.4162 29.2066 36.3415C29.2624 36.2667 29.2903 36.192 29.2903 36.1172V28.2603C29.2903 28.1856 29.2624 28.0828 29.2066 27.952C29.1507 27.8212 29.1228 27.7185 29.1228 27.6344V16.9748C29.1228 16.8627 29.0577 16.5544 28.9275 16.0592C28.7973 15.5641 28.6764 15.125 28.5555 14.7513V36.8927C28.5927 37.1542 28.6578 37.3411 28.7508 37.4345C28.8438 37.5373 29.0484 37.6401 29.3461 37.7522ZM29.1228 15.153C29.16 14.854 29.1135 14.5738 28.9833 14.3309C28.8531 14.088 28.7322 13.733 28.6113 13.2752V14.1253C28.5741 14.2375 28.6299 14.415 28.7787 14.6672C28.9275 14.9194 29.0484 15.0783 29.1228 15.153Z" fill="black"/>
<path id="Vector_16" d="M105.534 34.5665C105.534 35.0243 105.524 35.3793 105.506 35.6502C105.487 35.9118 105.459 36.192 105.422 36.4723C105.385 36.7526 105.329 36.9581 105.255 37.0702C105.18 37.1823 105.069 37.2571 104.911 37.2944C104.762 37.3318 104.65 37.3692 104.566 37.4066C104.492 37.4439 104.418 37.528 104.343 37.6588C104.269 37.7896 104.176 37.8737 104.064 37.911C103.952 37.9858 103.822 38.0231 103.664 38.0231H103.32H84.5684C84.4939 38.0231 84.3637 37.9858 84.1684 37.911C83.9824 37.8363 83.7777 37.7429 83.5731 37.6308C83.3685 37.5187 83.1731 37.4066 83.0057 37.2851C82.8383 37.173 82.7546 37.0609 82.7546 36.9394V33.0717C82.7546 32.997 82.736 32.8195 82.6988 32.5298C82.6616 32.2402 82.6244 31.9693 82.5872 31.7077L82.6151 9.27673C82.6151 9.16462 82.6895 8.99645 82.8383 8.7629C82.9499 8.61342 83.108 8.49197 83.322 8.3892C83.5266 8.29578 83.7312 8.2117 83.9173 8.13696C83.9917 8.09959 84.0661 8.05288 84.1405 7.99682C84.2149 7.94077 84.2893 7.89406 84.3637 7.85669C84.5498 7.78195 84.8102 7.71655 85.1264 7.6605C85.4427 7.60444 85.6473 7.57642 85.7217 7.57642H103.069C103.143 7.57642 103.292 7.60444 103.525 7.6605C103.748 7.71655 103.925 7.78195 104.036 7.85669C104.185 7.93143 104.297 8.07156 104.38 8.28644C104.455 8.49197 104.566 8.66013 104.724 8.77224C104.762 8.84698 104.836 8.90303 104.948 8.9404C105.059 8.97777 105.152 9.03382 105.227 9.10856C105.301 9.1833 105.366 9.29541 105.422 9.45423C105.478 9.60371 105.506 9.71582 105.506 9.7999L105.534 34.5665ZM83.7405 8.54802C83.6289 8.62276 83.4708 8.73487 83.2569 8.89369C83.0522 9.04317 82.9406 9.15527 82.9406 9.23936L82.9685 33.0343L83.1359 22.6176C83.1731 22.4308 83.2104 22.1879 83.2476 21.9076C83.2848 21.6273 83.3034 21.4405 83.3034 21.3657V18.6845C83.3034 18.5724 83.3313 18.4883 83.3871 18.4322C83.4429 18.3762 83.4708 18.2921 83.4708 18.18L83.4429 10.4352C83.4429 10.3604 83.4708 10.1082 83.5266 9.6691C83.601 9.22067 83.6661 8.85632 83.7405 8.54802ZM85.6473 37.6962C85.4613 37.6962 85.266 37.5934 85.0799 37.3879C84.8939 37.1823 84.7544 37.0329 84.68 36.9581C84.373 36.7713 84.1684 36.5564 84.0568 36.3322C83.9824 36.1453 83.908 35.9211 83.8335 35.6782C83.7498 35.426 83.7126 35.2672 83.7126 35.1924V24.2058C83.7126 24.1311 83.7219 23.9349 83.7405 23.6079C83.7591 23.2903 83.8056 23.01 83.8801 22.7858L83.8521 9.57568L83.7684 18.0025C83.7312 18.1146 83.694 18.236 83.6568 18.3762C83.6196 18.507 83.601 18.6097 83.601 18.6938V21.1415C83.601 21.2536 83.5917 21.4778 83.5731 21.7955C83.5545 22.1225 83.5266 22.3747 83.4894 22.5616L83.3778 36.7339C83.3778 36.8086 83.4057 36.9021 83.4615 37.0142C83.5173 37.1263 83.5824 37.2197 83.6568 37.2944C83.8428 37.2944 83.9731 37.3131 84.0568 37.3505C84.1684 37.4626 84.2242 37.556 84.2242 37.6308C84.4102 37.6681 84.6335 37.6868 84.8753 37.6868H85.6473V37.6962ZM103.18 9.35146C103.18 9.16462 103.162 9.04317 103.125 8.97777C103.087 8.92172 103.069 8.85632 103.069 8.78158L90.205 8.54802H88.8749C88.3261 8.54802 87.7866 8.55736 87.2565 8.57605C86.7263 8.59473 86.224 8.65079 85.7589 8.75355C85.2846 8.84698 84.959 8.98711 84.7637 9.1833C84.6521 9.29541 84.5591 9.4916 84.4846 9.75318C84.4102 10.0148 84.3451 10.3231 84.2893 10.6594C84.2335 11.0051 84.1963 11.3414 84.1777 11.6871C84.1591 12.0327 84.1498 12.2943 84.1498 12.4812L84.1777 22.7858C84.1777 22.8605 84.1498 23.0941 84.094 23.4678C84.0382 23.8508 84.0103 24.075 84.0103 24.1498V35.1924C84.0103 35.2672 84.0661 35.4166 84.1777 35.6502C84.2893 35.8744 84.3823 36.0893 84.4567 36.2761L84.6521 11.3414C84.6149 11.2293 84.5963 11.0424 84.5963 10.7715C84.5963 10.5099 84.6335 10.239 84.7079 9.9774C84.7823 9.71582 84.9125 9.47291 85.1078 9.26738C85.2939 9.06185 85.545 8.94974 85.8426 8.94974H93.8326L100.176 9.11791C100.595 9.15527 101.06 9.20199 101.59 9.25804C102.12 9.31409 102.418 9.34212 102.492 9.34212H103.18V9.35146ZM85.5543 8.43591C85.4427 8.43591 85.2939 8.46394 85.0985 8.51999C84.9125 8.57605 84.7451 8.65079 84.6149 8.74421C84.4846 8.83763 84.3823 8.94974 84.2986 9.08988C84.2242 9.22067 84.2242 9.37015 84.2986 9.51963C84.2614 9.09922 84.4195 8.83763 84.7823 8.72553C85.1543 8.60408 85.4055 8.51065 85.5543 8.43591ZM103.385 29.1573L103.357 10.2016C103.357 10.1269 103.329 10.0428 103.273 9.94937C103.218 9.85595 103.19 9.77187 103.19 9.69713C102.846 9.65976 102.474 9.62239 102.055 9.58502C101.636 9.54765 101.395 9.52897 101.32 9.52897H100.837C100.632 9.52897 100.464 9.51028 100.353 9.47291L85.8985 9.28607C85.638 9.28607 85.3962 9.41686 85.1915 9.68779C84.9869 9.94937 84.8753 10.2016 84.8753 10.4258L84.7358 35.2485C84.773 35.5941 84.8753 35.8277 85.052 35.9585C85.2195 36.0893 85.4334 36.1734 85.6752 36.2107C85.9171 36.2481 86.1775 36.2668 86.4379 36.2668C86.6984 36.2668 86.9495 36.3042 87.1727 36.3789L97.1997 36.4349C97.4973 36.3976 97.8043 36.3509 98.1112 36.2948C98.4088 36.2388 98.66 36.1734 98.846 36.0986C99.2646 35.9491 99.6738 35.6502 100.092 35.2204C100.511 34.7814 100.892 34.3142 101.255 33.8004C101.618 33.2866 101.925 32.8008 102.195 32.3523C102.455 31.8946 102.65 31.5582 102.762 31.3247C102.836 31.1752 102.957 30.8669 103.134 30.4091C103.301 29.9514 103.385 29.5403 103.385 29.1573ZM103.925 8.2117C103.739 8.13696 103.515 8.05288 103.273 7.95945C103.032 7.86603 102.846 7.81932 102.734 7.81932H85.9543C85.8799 7.81932 85.7217 7.85669 85.4706 7.93143C85.2288 8.00616 85.0241 8.04353 84.8753 8.04353H102.557C102.669 8.04353 102.874 8.07156 103.18 8.12762C103.487 8.18367 103.729 8.2117 103.925 8.2117ZM103.329 30.8109C103.143 31.2686 102.846 31.8479 102.455 32.5485C102.055 33.2492 101.609 33.9219 101.097 34.5665C100.585 35.2111 100.027 35.7436 99.4227 36.164C98.8181 36.5844 98.1763 36.7526 97.4973 36.6778L86.903 36.6218C86.5961 36.5844 86.3635 36.5657 86.1961 36.5657H85.7589C85.6473 36.5657 85.5264 36.5471 85.3869 36.5097C85.2567 36.4723 85.0985 36.3976 84.9032 36.2855V36.6872C85.2009 36.8367 85.4334 36.9114 85.5822 36.9114C86.1124 36.9488 86.6519 36.9861 87.2007 37.0235C87.7494 37.0609 88.075 37.0796 88.1959 37.0796H101.348C101.99 36.2107 102.501 35.2204 102.883 34.118C103.246 33.0063 103.404 31.9132 103.329 30.8109ZM88.1959 37.2384H85.7031V37.4066H88.1959V37.2384ZM104.064 37.4159H103.153H102.585C102.474 37.4159 102.185 37.4252 101.739 37.4439C101.283 37.4626 100.911 37.5093 100.604 37.5841L95.1068 37.6962H103.385C103.497 37.7335 103.618 37.7149 103.757 37.6401C103.887 37.5654 103.99 37.4906 104.064 37.4159ZM103.329 36.3882V33.8845C103.143 34.417 102.92 34.9495 102.678 35.482C102.436 36.0145 102.157 36.5471 101.86 37.0796H102.762C102.911 37.0796 103.05 37.0142 103.19 36.8834C103.32 36.7339 103.366 36.5751 103.329 36.3882ZM104.259 10.0895V8.94974C104.222 8.94974 104.148 8.9404 104.036 8.92172C103.925 8.90303 103.757 8.89369 103.525 8.89369V9.40752C103.636 9.48226 103.766 9.58502 103.925 9.72516C104.073 9.84661 104.185 9.9774 104.259 10.0895ZM104.204 13.3874C104.166 12.967 104.176 12.4718 104.232 11.8832C104.287 11.2947 104.185 10.7341 103.915 10.2016C103.915 10.0895 103.841 10.0335 103.692 10.0335L103.72 25.6258L104.204 13.3874ZM104.232 24.7757C104.157 24.9252 104.101 25.1214 104.064 25.3456C104.027 25.5698 104.008 25.7473 104.008 25.8594V29.0451L103.729 32.7447V36.6125C103.952 36.2294 104.111 35.9305 104.185 35.7062L104.232 24.7757ZM104.464 36.2201C104.39 36.4069 104.297 36.5657 104.185 36.6778C104.073 36.79 103.962 36.9207 103.841 37.0796H104.297C104.371 36.9675 104.418 36.8273 104.436 36.6498C104.445 36.4723 104.464 36.3322 104.464 36.2201ZM105.143 36.5564V30.7455C105.143 30.6333 105.106 30.269 105.031 29.6617C104.957 29.0545 104.883 28.522 104.808 28.0642L104.697 21.0014L104.585 35.2858C104.771 35.7062 104.845 36.0145 104.808 36.2294C104.771 36.4349 104.771 36.6965 104.808 36.9955C104.92 36.9207 104.994 36.846 105.031 36.7713C105.059 36.7059 105.106 36.6311 105.143 36.5564ZM105.199 22.1505L105.171 9.85595C105.171 9.78121 105.115 9.65976 105.004 9.48226C104.892 9.31409 104.799 9.19264 104.715 9.10856L104.911 20.2073C104.948 20.5156 104.985 20.8332 105.022 21.1789C105.059 21.5246 105.124 21.8515 105.199 22.1505Z" fill="black"/>
<path id="Vector_17" d="M7.95295 41.7601L7.84133 41.7508C8.35291 37.3318 7.93434 7.80066 7.73901 3.79279L7.85063 3.78345C8.04596 7.79132 8.46452 37.3412 7.95295 41.7601Z" fill="black"/>
<path id="Vector_18" d="M7.85063 41.5081H7.73901C7.73901 38.668 7.79482 32.3713 7.85993 25.7102C7.95295 16.6855 8.04596 6.44626 7.99945 3.64355H8.11107C8.15758 6.44626 8.05526 16.6855 7.97155 25.7195C7.91574 32.3806 7.85063 38.668 7.85063 41.5081Z" fill="black"/>
<path id="Vector_19" d="M8.22263 41.3213H8.11101C8.15752 39.3687 8.12032 37.7525 8.08311 36.0335C8.05521 34.6695 8.0273 33.2682 8.0366 31.6706C8.08311 26.1306 7.90638 8.02514 7.57153 3.75568L7.68315 3.74634C8.0087 8.01579 8.19473 26.14 8.15752 31.68C8.14822 33.2682 8.17612 34.6789 8.20403 36.0335C8.23193 37.7525 8.26914 39.3687 8.22263 41.3213Z" fill="black"/>
<path id="Vector_20" d="M107.841 41.6669L107.729 41.6575C108.241 37.2386 107.831 7.7074 107.627 3.69953L107.738 3.69019C107.943 7.69806 108.352 37.2479 107.841 41.6669Z" fill="black"/>
<path id="Vector_21" d="M107.738 41.4146H107.627C107.627 38.5745 107.683 32.2778 107.748 25.6167C107.831 16.5826 107.934 6.35276 107.887 3.55005H107.999C108.045 6.35276 107.943 16.592 107.859 25.626C107.803 32.2871 107.738 38.5745 107.738 41.4146Z" fill="black"/>
<path id="Vector_22" d="M108.11 41.2278H107.999C108.045 39.266 108.008 37.4348 107.971 35.6598C107.943 34.2117 107.915 32.717 107.924 31.1288C107.971 25.7009 107.785 7.89433 107.459 3.6529L107.571 3.64355C107.896 7.89433 108.082 25.7009 108.036 31.1288C108.027 32.7076 108.055 34.2024 108.082 35.6505C108.12 37.4349 108.157 39.2753 108.11 41.2278Z" fill="black"/>
<path id="Vector_23" d="M30.9921 41.7415C30.7875 37.6869 30.369 7.79139 30.8898 3.31641L31.0014 3.32575C30.4806 7.80074 30.8991 37.6776 31.1038 41.7322L30.9921 41.7415Z" fill="black"/>
<path id="Vector_24" d="M30.7319 41.8909C30.6853 39.0789 30.7877 28.6715 30.8714 19.488C30.9365 12.7615 30.9923 6.40868 30.9923 3.5686H31.1039C31.1039 6.39934 31.0481 12.7521 30.983 19.488C30.8993 28.6715 30.797 39.0789 30.8435 41.8909H30.7319Z" fill="black"/>
<path id="Vector_25" d="M31.1596 41.7883C30.834 37.5188 30.648 19.3947 30.6852 13.8546C30.6945 12.2758 30.6666 10.7717 30.6387 9.33294C30.6015 7.55789 30.5643 5.71744 30.6108 3.76489H30.7224C30.6759 5.72679 30.7131 7.55789 30.7503 9.33294C30.7782 10.781 30.8061 12.2758 30.7968 13.864C30.7503 19.404 30.9364 37.5188 31.2619 41.7883H31.1596Z" fill="black"/>
<path id="Vector_26" d="M82.5592 41.7042C82.3267 37.1452 82.0942 8.18386 82.5964 3.83032L82.708 3.83966C82.2058 8.18386 82.4383 37.1358 82.6708 41.6949L82.5592 41.7042Z" fill="black"/>
<path id="Vector_27" d="M82.4291 41.9471C82.3826 39.1444 82.4849 28.8959 82.5686 19.8618C82.6337 13.2007 82.6896 6.91332 82.6896 4.07324H82.8012C82.8012 6.91332 82.7454 13.2007 82.6803 19.8618C82.5965 28.8959 82.4942 39.1351 82.5407 41.9378L82.4291 41.9471Z" fill="black"/>
<path id="Vector_28" d="M82.8106 41.8909H82.699C82.7176 39.4993 82.6338 34.3423 82.5594 28.877C82.4664 22.9633 82.3827 16.8441 82.4013 13.9106C82.4106 12.3224 82.3827 10.9117 82.3548 9.55706C82.3176 7.83807 82.2897 6.22184 82.3269 4.26929H82.4385C82.392 6.22184 82.4292 7.83807 82.4664 9.55706C82.4943 10.921 82.5222 12.3224 82.5129 13.9199C82.4943 16.8534 82.578 22.9633 82.671 28.877C82.7455 34.333 82.8199 39.49 82.8106 41.8909Z" fill="black"/>
<path id="Vector_29" d="M75.5834 41.5547C75.5741 40.798 75.5648 39.4059 75.5369 37.5842C75.4253 28.5408 75.1741 7.37101 75.602 3.69946L75.7136 3.70881C75.2858 7.37101 75.5462 28.5408 75.6578 37.5748C75.6764 39.3966 75.695 40.798 75.7043 41.5453L75.5834 41.5547Z" fill="black"/>
<path id="Vector_30" d="M75.4345 41.8163C75.388 39.0136 75.4903 28.7744 75.574 19.7403C75.6391 13.0792 75.6949 6.78246 75.6949 3.94238H75.8066C75.8066 6.78246 75.7507 13.0792 75.6856 19.7403C75.6019 28.7744 75.4996 39.0042 75.5461 41.8069L75.4345 41.8163Z" fill="black"/>
<path id="Vector_31" d="M75.8904 41.7976H75.7788C75.7788 39.9946 75.7043 35.8279 75.6206 30.9979C75.4997 24.4489 75.3695 17.0311 75.3974 13.7893C75.4067 12.2011 75.3788 10.7904 75.3509 9.43572C75.3137 7.71673 75.2858 6.1005 75.323 4.14795H75.4346C75.3881 6.1005 75.4253 7.71673 75.4625 9.43572C75.4904 10.7997 75.5183 12.2011 75.509 13.7986C75.4811 17.0497 75.6113 24.4676 75.7322 31.0072C75.816 35.8185 75.8904 39.9852 75.8904 41.7976Z" fill="black"/>
<path id="Vector_32" d="M80.4665 41.5548C80.2619 37.5469 79.8526 7.99706 80.3642 3.57812L80.4758 3.58747C79.9643 8.0064 80.3735 37.5376 80.5782 41.5455L80.4665 41.5548Z" fill="black"/>
<path id="Vector_33" d="M80.1967 41.7042C80.1502 38.9015 80.2525 28.653 80.3362 19.6189C80.4013 12.9578 80.4571 6.6704 80.4571 3.83032H80.5688C80.5688 6.6704 80.5129 12.9578 80.4478 19.6189C80.3641 28.653 80.2618 38.8922 80.3083 41.6949L80.1967 41.7042Z" fill="black"/>
<path id="Vector_34" d="M80.634 41.592C80.3084 37.3319 80.1224 19.3666 80.1596 13.8826C80.1689 12.2944 80.141 10.8464 80.1131 9.445C80.0759 7.66061 80.048 5.96964 80.0852 4.01709H80.1968C80.1503 5.96964 80.1875 7.66061 80.2247 9.445C80.2526 10.8464 80.2805 12.3038 80.2712 13.892C80.2247 19.3759 80.4107 37.3319 80.7363 41.592H80.634Z" fill="black"/>
<path id="Vector_35" d="M58.4873 41.7417C58.2734 37.5937 57.8641 6.25009 58.385 1.74707L58.4966 1.75641C57.9758 6.25009 58.385 37.5843 58.599 41.7324L58.4873 41.7417Z" fill="black"/>
<path id="Vector_36" d="M58.2175 41.8909C58.1709 39.0601 58.2733 28.0455 58.357 18.3295C58.4221 11.3787 58.4779 4.81107 58.4779 1.99902H58.5895C58.5895 4.81107 58.5337 11.3787 58.4686 18.3295C58.3849 28.0455 58.2826 39.0601 58.3291 41.8909H58.2175Z" fill="black"/>
<path id="Vector_37" d="M58.6454 41.7882C58.3199 37.6028 58.1339 17.5635 58.1804 11.8366C58.1897 10.2484 58.1618 8.83773 58.1339 7.48309C58.0966 5.76409 58.0687 4.14786 58.1059 2.19531H58.2176C58.1711 4.13852 58.2083 5.76409 58.2455 7.47374C58.2734 8.83773 58.3013 10.2391 58.292 11.8366C58.2455 17.5635 58.4408 37.5935 58.757 41.7789L58.6454 41.7882Z" fill="black"/>
<path id="Vector_38" d="M32.9921 41.5173C32.9084 38.2755 33.02 8.07166 33.0851 3.17627H33.1967C33.1223 8.07166 33.02 38.2755 33.1037 41.5079L32.9921 41.5173Z" fill="black"/>
<path id="Vector_39" d="M33.1596 41.2464C33.141 38.5838 33.1503 33.8753 33.1596 29.718C33.1689 26.336 33.1689 23.4212 33.1596 22.7392C33.0945 19.432 33.0387 16.1809 32.9736 12.9204C32.9178 9.744 32.8527 6.5676 32.7969 3.34448H32.9085C32.9643 6.57694 33.0294 9.744 33.0852 12.9204C33.1503 16.1715 33.2061 19.4227 33.2712 22.7392C33.2805 23.4305 33.2805 26.3454 33.2712 29.7273C33.2619 33.8846 33.2526 38.5838 33.2712 41.2558L33.1596 41.2464Z" fill="black"/>
<path id="Vector_40" d="M33.076 41.7136H32.9644C33.1318 27.6159 33.1318 15.3121 32.9644 2.9895H33.076C33.2434 15.3027 33.2434 27.6159 33.076 41.7136Z" fill="black"/>
<path id="Vector_41" d="M56.1062 41.6107H55.9946C56.069 36.7153 56.1714 6.51151 56.0876 3.27905H56.1993C56.283 6.51151 56.1714 36.7153 56.1062 41.6107Z" fill="black"/>
<path id="Vector_42" d="M56.2828 41.4425C56.2177 38.1727 56.1619 34.9589 56.0968 31.7452C56.0317 28.5314 55.9759 25.3176 55.9108 22.0478C55.9015 21.3565 55.9015 18.4416 55.9108 15.0597C55.9201 10.9024 55.9294 6.19382 55.9108 3.53125H56.0224C56.041 6.19382 56.0317 10.9024 56.0224 15.0597C56.0131 18.4416 56.0131 21.3565 56.0224 22.0385C56.0875 25.3083 56.1433 28.5221 56.2084 31.7358C56.2735 34.9496 56.3293 38.1634 56.3945 41.4332L56.2828 41.4425Z" fill="black"/>
<path id="Vector_43" d="M56.1156 41.8069C55.9481 29.4843 55.9481 17.1804 56.1156 3.07349H56.2272C56.0597 17.1711 56.0597 29.475 56.2272 41.7975L56.1156 41.8069Z" fill="black"/>
<path id="Vector_44" d="M105.496 41.7511C105.413 38.5373 105.524 8.50164 105.59 3.63428H105.701C105.627 8.50164 105.524 38.528 105.608 41.7417L105.496 41.7511Z" fill="black"/>
<path id="Vector_45" d="M105.664 41.48C105.645 38.8174 105.655 34.0995 105.664 29.9515C105.673 26.5789 105.673 23.6641 105.664 22.9728C105.599 19.7029 105.543 16.5452 105.478 13.3875C105.413 10.2298 105.357 7.07207 105.292 3.80225H105.404C105.469 7.07207 105.525 10.2298 105.59 13.3875C105.655 16.5452 105.711 19.7029 105.776 22.9728C105.785 23.6547 105.785 26.5789 105.776 29.9515C105.766 34.1088 105.757 38.8174 105.776 41.48H105.664Z" fill="black"/>
<path id="Vector_46" d="M105.58 41.9471H105.469C105.636 27.9242 105.636 15.6951 105.469 3.44727H105.58C105.738 15.6858 105.738 27.9242 105.58 41.9471Z" fill="black"/>
<path id="Vector_47" d="M77.8437 41.4334C77.76 38.2383 77.8716 8.38945 77.9367 3.54077H78.0483C77.9739 8.38011 77.8716 38.2383 77.9553 41.424L77.8437 41.4334Z" fill="black"/>
<path id="Vector_48" d="M78.0112 41.1622C77.9926 38.4997 78.0019 33.8005 78.0112 29.6431C78.0205 26.2612 78.0205 23.337 78.0112 22.655C77.9461 19.3852 77.8903 16.2835 77.8252 13.1819C77.7601 10.0802 77.7043 6.97856 77.6392 3.70874H77.7508C77.8159 6.97856 77.8717 10.0802 77.9368 13.1819C78.0019 16.2835 78.0577 19.3852 78.1228 22.655C78.1321 23.3464 78.1321 26.2612 78.1228 29.6525C78.1135 33.8005 78.1042 38.509 78.1228 41.1716L78.0112 41.1622Z" fill="black"/>
<path id="Vector_49" d="M77.9273 41.6296H77.8157C77.9831 27.5133 77.9831 15.7046 77.8157 3.354H77.9273C78.0947 15.7046 78.0947 27.5133 77.9273 41.6296Z" fill="black"/>
<path id="Vector_50" d="M130.945 41.5081C130.862 38.2383 130.973 7.85695 131.038 2.94287H131.15C131.075 7.85695 130.973 38.2383 131.057 41.4988L130.945 41.5081Z" fill="black"/>
<path id="Vector_51" d="M131.113 41.237C131.094 38.5744 131.103 33.8565 131.113 29.7085C131.122 26.3359 131.122 23.4211 131.113 22.7298L130.75 3.11084H130.862L131.224 22.7298C131.234 23.4118 131.234 26.3359 131.224 29.7085C131.215 33.8659 131.206 38.5744 131.224 41.237H131.113Z" fill="black"/>
<path id="Vector_52" d="M131.029 41.7044H130.917C131.085 27.7189 131.085 14.9759 130.917 2.7561H131.029C131.196 14.9759 131.196 27.7189 131.029 41.7044Z" fill="black"/>
<path id="Vector_53" d="M80.3176 30.2131C80.3176 30.2878 80.2897 30.4093 80.2339 30.5868C80.1781 30.7549 80.1502 30.8951 80.1502 31.0165L80.0943 37.0797C80.0943 37.388 79.9641 37.6216 79.6944 37.7897C79.4339 37.9579 79.2014 38.042 79.0154 38.042C78.6712 38.042 78.4201 37.9112 78.2527 37.6403C78.0852 37.3787 77.955 37.0891 77.8806 36.7901V12.8737C77.8806 12.6868 77.9922 12.5093 78.2248 12.3599C78.2992 12.3225 78.4666 12.3038 78.7363 12.3038C78.7363 12.3038 78.9317 12.0796 78.9596 12.0609C79.1549 11.9114 79.3688 11.8367 79.527 12.0702C79.6014 12.1823 79.6386 12.2758 79.6386 12.3505C79.6758 12.3879 79.7316 12.4066 79.806 12.4066C79.8804 12.4066 79.9548 12.4439 80.0292 12.5187C80.0664 12.5934 80.1223 12.6775 80.1967 12.7709C80.2711 12.8643 80.3083 12.9671 80.3083 13.0792V30.2131H80.3176ZM78.6247 12.9764C78.5131 12.8643 78.4573 12.7522 78.4573 12.6308C78.3085 12.7055 78.2341 12.8176 78.2341 12.9764L78.2899 29.6058L78.5131 13.3688C78.5131 13.2941 78.541 13.2193 78.5968 13.1446C78.6526 13.0699 78.6619 13.0138 78.6247 12.9764ZM79.3595 32.3431L79.4153 13.2007C79.4153 13.1259 79.3781 13.0512 79.3037 12.9764C79.2293 12.9017 79.1549 12.8643 79.0805 12.8643C79.0805 13.21 79.0247 13.4903 78.9131 13.7145L79.0247 36.9489C79.0247 36.7994 79.0526 36.6219 79.1084 36.4071C79.1642 36.2015 79.1921 36.0521 79.1921 35.9773V33.3615C79.1921 33.2494 79.22 33.0719 79.2758 32.8196C79.3316 32.5861 79.3595 32.4179 79.3595 32.3431ZM79.3595 12.2945L79.3037 12.1823L79.1363 12.2945V12.4066L79.3595 12.2945ZM79.8153 36.6687V28.4754L79.5921 36.6687C79.5549 36.8555 79.5177 37.033 79.4805 37.1825C79.4432 37.332 79.3874 37.5095 79.313 37.6963L79.6572 37.1264C79.7595 36.9396 79.8153 36.7808 79.8153 36.6687ZM79.9269 12.8083H79.7595V30.2691H79.9269V12.8083Z" fill="black"/>
<path id="Vector_54" d="M80.6155 8.05281C80.5597 7.91268 80.4481 7.80991 80.2993 7.75386C80.1411 7.6978 80.0388 7.66977 79.983 7.66977C79.5737 7.66977 79.2854 7.66043 79.1087 7.65109C78.9133 7.6324 78.7645 7.62306 78.6715 7.60438C78.5599 7.58569 78.5041 7.58569 78.4855 7.58569H78.4018C78.1785 7.58569 78.0018 7.65109 77.8902 7.78188C77.7786 7.90333 77.6949 8.06215 77.6577 8.23032C77.6111 8.39848 77.6019 8.56664 77.6112 8.7348C77.6298 8.90297 77.6298 9.03376 77.6298 9.1085C77.6298 9.53825 77.6391 9.65035 77.667 9.85589C77.6949 10.0708 77.7693 10.2202 77.8809 10.3043C77.9925 10.3884 78.1599 10.4351 78.3925 10.4351H79.3133C79.6016 10.4351 79.8156 10.4258 79.983 10.4164C80.1504 10.4071 80.2993 10.3697 80.4295 10.3137C80.5597 10.2576 80.6248 10.1548 80.6248 10.0054L80.6155 8.05281ZM80.0946 10.2016H78.5041C78.0669 10.2016 77.8437 10.0614 77.8437 9.7718L77.853 8.92165C77.853 8.79086 77.8623 8.65072 77.8716 8.50124C77.8902 8.34242 77.9088 8.21163 77.9367 8.09952C77.9646 7.99676 78.0111 7.9407 78.0948 7.9407C78.2902 7.9407 78.4483 7.91268 78.5599 7.85662L79.4807 7.93136C79.0529 8.0061 78.7831 8.01544 78.6622 7.97807C78.5785 7.95005 78.4948 7.97807 78.4204 8.01544C78.346 8.05281 78.2716 8.09018 78.2064 8.13689C78.1785 8.16492 78.132 8.1836 78.1227 8.22097C78.1041 8.27703 78.132 8.37045 78.132 8.43585C78.1413 8.69743 78.1506 8.96836 78.1227 9.23929C78.0948 9.49153 78.0948 9.49153 78.1413 9.63167C78.1878 9.7718 78.2809 9.86523 78.439 9.91194C78.5971 9.95865 78.8575 9.97734 79.2575 9.97734C79.4621 9.97734 79.6389 9.96799 79.8063 9.95865C79.9737 9.93997 80.1039 9.89325 80.1876 9.80917C80.2713 9.72509 80.3365 9.7718 80.3644 9.55693C80.3923 9.37943 80.3923 9.11784 80.3737 8.8002C80.383 8.88428 80.4016 8.96836 80.4109 9.07113C80.4295 9.24863 80.4295 9.3514 80.4295 9.40745C80.4295 9.54759 80.4109 9.5289 80.383 9.75312C80.3551 9.96799 80.2527 10.1175 80.0946 10.2016ZM80.0202 9.49153C80.0295 9.22061 79.9923 8.93099 80.0295 8.66006C80.0295 8.64138 80.0853 8.66006 80.0853 8.66941C80.1039 8.67875 80.0853 8.77217 80.0853 8.8002C80.0853 8.89362 80.0853 8.98705 80.0853 9.08047C80.0853 9.14587 80.1411 9.50088 80.0202 9.49153ZM79.025 9.18324V8.56664H79.5458V9.25797L79.025 9.18324ZM78.6901 8.23966C78.7087 8.26769 78.7273 8.33308 78.7087 8.33308C78.6529 8.33308 78.5971 8.33308 78.5413 8.33308C78.4855 8.33308 78.439 8.34242 78.439 8.27703C78.4297 8.21163 78.5413 8.20229 78.5878 8.20229C78.6157 8.20229 78.6622 8.20229 78.6808 8.21163C78.6808 8.23032 78.6901 8.23966 78.6901 8.23966ZM79.7505 9.57561C79.6947 9.63167 79.6203 9.65035 79.5272 9.65035H79.2575C79.0622 9.65035 78.8854 9.63167 78.718 9.58496C78.5599 9.54759 78.4762 9.5943 78.4762 9.3514V8.65072C78.532 8.65072 78.5878 8.63204 78.6343 8.60401C78.6808 8.57598 78.718 8.56664 78.7459 8.56664C78.7459 8.98705 78.7738 9.24863 78.8296 9.36074C78.8854 9.48219 79.0436 9.53825 79.304 9.53825C79.3598 9.53825 79.4435 9.5289 79.5365 9.51956C79.6296 9.51022 79.704 9.47285 79.7598 9.42614L79.7505 9.57561ZM80.2993 8.09018H80.4016V8.36111H80.2993V8.09018ZM80.1132 7.92202V7.93136L80.0667 8.27703H79.9179V8.26769L80.0016 7.92202H80.1132Z" fill="black"/>
<path id="Vector_55" d="M56.0969 9.30469C56.0318 9.14587 55.9574 8.99639 55.8737 8.83757C55.8551 8.8002 55.8365 8.77217 55.8179 8.7348C55.7435 8.60401 55.6784 8.48256 55.6133 8.37045C55.5946 8.3144 55.5667 8.25834 55.5295 8.21163C55.483 8.13689 55.4272 8.06215 55.3621 7.98741C55.3249 7.9407 55.2877 7.89399 55.2412 7.85662C55.2319 7.84728 55.2319 7.84728 55.2226 7.83794C55.0552 7.68846 54.9529 7.60438 54.897 7.58569H54.8598H54.7854H54.6273H54.4599H53.8367H53.3809H53.1112H53.0554H53.0461H46.163H41.2333H41.1775H40.6938H40.359H35.1409C35.0665 7.58569 34.9362 7.62306 34.7409 7.6978C34.5549 7.77254 34.3502 7.86596 34.1456 7.97807C33.941 8.09018 33.7457 8.20229 33.5782 8.32374C33.4108 8.43585 33.3271 8.54796 33.3271 8.66941V12.5371C33.3271 12.6119 33.3085 12.7894 33.2713 13.079C33.2341 13.3593 33.1969 13.6395 33.1597 13.9011L33.1876 36.3321C33.1876 36.4442 33.262 36.6124 33.4108 36.8459C33.5224 36.9954 33.6805 37.1169 33.8945 37.2196C34.0991 37.3131 34.3037 37.3971 34.4898 37.4719C34.5642 37.5093 34.6386 37.556 34.713 37.612C34.7874 37.6681 34.8618 37.7148 34.9362 37.7522C35.1223 37.8269 35.3827 37.8923 35.699 37.9483C36.0152 38.0044 36.2198 38.0324 36.2942 38.0324H41.8844H41.9495H46.163V38.0044H48.4605C48.5349 38.0044 48.6093 37.9764 48.6837 37.9203C48.7581 37.8643 48.8325 37.8362 48.9069 37.8362H53.0461H53.3902H53.846H54.4692H54.6366H54.8598H54.9156C54.9529 37.8362 55.0645 37.7522 55.2598 37.584C55.297 37.5466 55.3342 37.5093 55.3714 37.4719C55.5016 37.3318 55.5947 37.1916 55.6505 37.0421C55.576 36.8179 55.5388 36.6217 55.5388 36.4723C55.6133 36.3228 55.7063 36.1546 55.8179 35.9584C55.8365 35.9211 55.8551 35.893 55.8737 35.8557C55.9574 35.6968 56.0411 35.5474 56.0969 35.3885L56.0597 22.3466L56.0969 9.30469ZM53.8274 8.01544C53.9111 8.0061 53.9855 7.99676 54.0785 7.98741C54.1343 7.97807 54.1901 7.96873 54.2552 7.95005C54.3204 7.93136 54.3948 7.92202 54.4599 7.92202C54.5157 7.92202 54.5715 7.92202 54.6273 7.93136C54.6924 7.9407 54.7575 7.95939 54.8226 7.98741C54.8319 7.99676 54.8412 8.0061 54.8505 8.01544C54.8877 8.04347 54.9249 8.0715 54.9622 8.10887L54.8505 8.25834L54.7947 8.33308C54.7389 8.30505 54.6831 8.27703 54.618 8.249C54.5622 8.23032 54.5064 8.21163 54.4506 8.19295C54.4041 8.17426 54.3576 8.16492 54.3018 8.15558C54.2738 8.14623 54.2459 8.14623 54.2087 8.13689C54.0785 8.10887 53.9483 8.09018 53.8181 8.0715C53.7251 8.05281 53.6321 8.03413 53.539 8.02478C53.6414 8.02478 53.7344 8.02478 53.8274 8.01544ZM55.2784 14.77C55.3342 14.9194 55.3621 15.0502 55.3621 15.1717V29.5309C55.3621 29.643 55.3342 29.7738 55.2784 29.9326C55.2226 30.0821 55.1947 30.2129 55.1947 30.3343V34.6598C55.1947 34.7346 55.1854 34.8654 55.1668 35.0616C55.1482 35.2484 55.1389 35.4259 55.1389 35.5754C55.0459 35.6688 54.9529 35.7436 54.8598 35.8089C54.7482 35.8837 54.6366 35.9397 54.5157 35.9771V26.4012C54.5157 26.3638 54.5343 26.149 54.5715 25.7472C54.6087 25.3455 54.6459 24.9064 54.6831 24.4113C54.7203 23.9161 54.7575 23.477 54.7947 23.0753C54.8319 22.6736 54.8505 22.4587 54.8505 22.4214V22.2906C54.8505 22.2532 54.8319 22.0383 54.7947 21.6366C54.7575 21.2349 54.7203 20.7958 54.6831 20.3006C54.6459 19.8055 54.6087 19.3571 54.5715 18.9647C54.5343 18.563 54.5157 18.3481 54.5157 18.3107V8.7348C54.6366 8.77217 54.7482 8.82823 54.8598 8.90297C54.9622 8.96836 55.0552 9.0431 55.1389 9.13652C55.1389 9.286 55.1482 9.45416 55.1668 9.65035C55.1854 9.8372 55.1947 9.96799 55.1947 10.0521V14.3776C55.1947 14.4804 55.2226 14.6205 55.2784 14.77ZM53.3809 8.68809C53.4553 8.69743 53.5297 8.69743 53.6041 8.70678C53.6786 8.71612 53.753 8.71612 53.8274 8.71612C53.939 8.71612 54.0506 8.70678 54.1715 8.67875V9.36074C54.1436 9.15521 54.0227 8.99639 53.8274 8.89362C53.7716 8.8656 53.7251 8.83757 53.66 8.81888C53.5483 8.78151 53.4646 8.76283 53.3809 8.7348C53.2321 8.69743 53.1112 8.67875 53.0368 8.67875C53.1484 8.67875 53.2693 8.67875 53.3809 8.68809ZM54.1715 35.3325V36.0145C54.0599 35.9958 53.9483 35.9865 53.8274 35.9771C53.753 35.9771 53.6786 35.9771 53.6041 35.9865C53.5297 35.9958 53.4553 35.9958 53.3809 36.0051V35.9584C53.4646 35.9397 53.5576 35.9117 53.66 35.8743C53.7251 35.8557 53.7809 35.8276 53.8274 35.7996C54.0227 35.6968 54.1436 35.5474 54.1715 35.3325ZM52.9717 8.27703H52.9437C52.9251 8.26769 52.9065 8.26769 52.8879 8.25834C52.9158 8.26769 52.9437 8.26769 52.9717 8.27703ZM53.0368 9.08981C53.074 9.08981 53.1112 9.08981 53.1484 9.08047C53.2321 9.07113 53.3065 9.07113 53.3716 9.08981C53.5669 9.12718 53.7158 9.25797 53.8274 9.48219V11.8738C53.6879 11.5001 53.539 11.0797 53.3716 10.6126C53.353 10.5566 53.3344 10.5099 53.3158 10.4538C53.2414 10.2389 53.1391 10.0334 53.0368 9.82786C52.8786 9.53825 52.6926 9.27666 52.4694 9.02442C52.5996 9.08047 52.7949 9.1085 53.0368 9.08981ZM47.1118 7.99676V7.85662L49.7255 7.98741L50.451 8.02478V8.19295L47.1025 8.02478V7.99676H47.1118ZM47.8559 8.68809C47.7908 8.68809 47.7443 8.68809 47.735 8.67875L47.8559 8.68809ZM42.5262 8.51059L43.633 8.48256C43.5958 8.48256 43.5679 8.47322 43.5307 8.47322H43.8656L43.633 8.48256C43.6423 8.48256 43.6516 8.48256 43.6609 8.48256C43.9121 8.4919 44.1353 8.51059 44.3399 8.51993C44.3493 8.51993 44.3586 8.51993 44.3679 8.51993L42.4983 8.52927C42.5076 8.51993 42.5169 8.51059 42.5262 8.51059ZM36.257 8.21163H38.7498V8.37979H36.257V8.21163ZM37.0011 8.90297C37.2616 8.90297 37.5127 8.8656 37.736 8.79086L43.075 8.76283C43.2331 8.82823 43.3447 8.8656 43.4005 8.8656H48.2C48.2744 8.8656 48.5163 8.90297 48.9069 8.9777L49.3906 8.80954C49.3627 8.8002 49.3348 8.79086 49.3069 8.77217L51.902 8.91231C51.9764 8.9777 52.088 9.06179 52.2182 9.16455C52.3485 9.25798 52.4508 9.37943 52.5345 9.53825C52.7019 9.84654 52.8693 10.2296 53.0461 10.678C53.1484 10.9489 53.2507 11.2386 53.3623 11.5562C53.3716 11.5842 53.3809 11.6122 53.3902 11.6496C53.5576 12.1821 53.6693 12.6773 53.7158 13.1537V14.1534C53.753 14.2655 53.7995 14.3589 53.8367 14.4617C53.846 14.5084 53.846 14.5551 53.846 14.6018V30.1008C53.846 30.2129 53.8274 30.3343 53.7902 30.4745C53.7251 30.708 53.7437 30.8855 53.7995 31.1191C53.9855 31.9412 53.846 32.8101 53.846 33.6415V34.7159C53.846 34.8373 53.9018 35.127 53.846 35.2391C53.7344 35.4633 53.5855 35.5941 53.3902 35.6314C53.0833 35.6968 52.7856 35.6034 52.488 35.6968C52.2089 35.7809 51.9392 35.8557 51.6509 35.9117C50.9718 36.0892 49.4929 36.1733 48.1628 36.2107H48.2744C47.3164 36.2387 46.4607 36.2387 46.163 36.2387C46.1258 36.2387 46.0886 36.2387 46.0514 36.2387L43.1866 36.2761L40.8612 36.3041L36.4617 36.3601C36.2012 36.3601 35.9594 36.2294 35.7548 35.9584C35.5501 35.6968 35.4385 35.4446 35.4385 35.2204L35.299 9.94931C35.3362 9.60364 35.4385 9.37008 35.6152 9.23929C35.7827 9.1085 35.9966 9.02442 36.2384 8.98705C36.4803 8.91231 36.7314 8.90297 37.0011 8.90297ZM51.4555 36.248L50.1347 36.2667L50.6928 36.2294L51.4555 36.248ZM33.8294 36.7245C33.6247 36.575 33.5131 36.4629 33.5131 36.3788L33.541 12.5839L33.7085 23.0006C33.7457 23.1874 33.7829 23.4303 33.8201 23.7106C33.8573 23.9909 33.8759 24.1777 33.8759 24.2525V26.9244C33.8759 27.0365 33.9038 27.1206 33.9596 27.1766C34.0154 27.2327 34.0433 27.3167 34.0433 27.4289L34.0154 35.1737C34.0154 35.2484 34.0433 35.5007 34.0991 35.9397C34.1549 36.3788 34.22 36.7432 34.2944 37.0515C34.1921 36.9954 34.034 36.8833 33.8294 36.7245ZM34.3037 22.0103C34.3223 22.3279 34.3688 22.6082 34.4433 22.8324L34.4154 36.0425L34.3316 27.6157C34.2944 27.5036 34.2572 27.3821 34.22 27.242C34.1828 27.1112 34.1642 27.0084 34.1642 26.9337V24.486C34.1642 24.3739 34.1549 24.1497 34.1363 23.832C34.1177 23.5051 34.0898 23.2528 34.0526 23.066L33.941 8.89362C33.941 8.81888 33.9689 8.72546 34.0247 8.61335C34.0805 8.50124 34.1456 8.40782 34.22 8.33308C34.4061 8.33308 34.5363 8.3144 34.62 8.27703C34.7316 8.16492 34.7874 8.0715 34.7874 7.99676C34.9734 7.95939 35.1967 7.9407 35.4385 7.9407H36.2012C36.0152 7.9407 35.8199 8.04347 35.6338 8.25834C35.4478 8.46387 35.3083 8.60401 35.2339 8.68809C34.9269 8.87494 34.7223 9.08981 34.6107 9.31403C34.5363 9.50088 34.4619 9.72509 34.3875 9.96799C34.313 10.2109 34.2758 10.3791 34.2758 10.4538V21.4404C34.2758 21.4871 34.2851 21.6926 34.3037 22.0103ZM34.8711 36.5283C34.7967 36.3975 34.7967 36.248 34.8711 36.0986C34.8339 36.519 34.992 36.7806 35.3548 36.8927C35.7176 37.0048 35.9687 37.0982 36.1175 37.1823C36.0059 37.1823 35.8571 37.1542 35.6617 37.0982C35.4757 37.0421 35.3083 36.9674 35.1781 36.874C35.0479 36.7712 34.9455 36.6591 34.8711 36.5283ZM41.3914 37.8082H41.1868H36.5175C36.4431 37.8082 36.2849 37.7708 36.0338 37.6961C35.792 37.6214 35.5873 37.584 35.4385 37.584H40.7031H41.4379H43.075C43.075 37.6027 43.0843 37.612 43.1029 37.612C43.1215 37.612 43.1308 37.6307 43.1308 37.6681L43.1773 37.7241L43.2424 37.8082H41.3914ZM46.1537 36.9861V36.9767L43.9586 37.0141L42.0518 37.0515H41.8193L41.1589 37.0608L40.7775 37.0702H40.6938H40.359H39.4381C38.8893 37.0702 38.3498 37.0608 37.8197 37.0421C37.2895 37.0235 36.7872 36.9674 36.3221 36.874C35.8478 36.7806 35.5222 36.6404 35.3269 36.4442C35.2153 36.3321 35.1223 36.1359 35.0479 35.8743C34.9734 35.6128 34.9083 35.3045 34.8525 34.9681C34.7967 34.6225 34.7595 34.2861 34.7409 33.9405C34.7223 33.5948 34.713 33.3332 34.713 33.1464L34.7409 22.8418C34.7409 22.767 34.713 22.5335 34.6572 22.1598C34.6014 21.7767 34.5735 21.5525 34.5735 21.4778V10.4258C34.5735 10.351 34.6293 10.2016 34.7409 9.96799C34.7874 9.87457 34.8246 9.79049 34.8618 9.67838C34.8618 9.67838 34.9176 9.53825 35.0199 9.38877L35.2153 33.819C35.1781 34.3796 35.1595 34.5664 35.1595 34.8373C35.1595 35.0989 35.1967 35.3699 35.2711 35.6314C35.3455 35.893 35.4757 36.1359 35.671 36.3415C35.8571 36.547 36.1082 36.6591 36.4059 36.6591H40.452H40.8519H41.1403H41.5402H42.4239H44.0702H44.4051L46.163 36.6124V36.5283L49.9859 36.6965C49 36.9581 47.9675 37.0608 46.8699 36.9767C46.6374 36.9674 46.3956 36.9767 46.1537 36.9861ZM50.4882 37.3878L47.1397 37.556V37.3878L50.4882 37.2196V37.3878ZM53.0368 37.1262C52.9996 37.1356 52.9624 37.1449 52.9251 37.1542C52.9624 37.1356 52.9996 37.1262 53.0368 37.1169V37.1262ZM53.0368 36.6965C52.8228 36.7525 52.6182 36.7992 52.4136 36.8366C51.9206 36.93 51.4927 36.9581 51.1114 36.9207C51.4183 36.7712 51.7718 36.6311 52.1903 36.519C52.6089 36.4069 52.8507 36.3695 52.9251 36.4069H53.0368H53.3809H53.8367V36.4442C53.6879 36.5003 53.5297 36.547 53.3809 36.5937C53.26 36.6404 53.1484 36.6684 53.0368 36.6965ZM53.3809 36.9954C53.5204 36.9487 53.6507 36.9113 53.7809 36.874C53.7995 36.8646 53.8181 36.8553 53.8367 36.8553C54.0692 36.7712 54.2459 36.6124 54.3483 36.3695H54.804L54.8505 36.4349L54.9622 36.5844C54.9249 36.6217 54.8877 36.6498 54.8505 36.6778C54.7761 36.7338 54.7017 36.7899 54.6273 36.8273C54.5715 36.8553 54.5157 36.8833 54.4599 36.902C54.3018 36.9581 54.1343 36.9954 53.9483 37.0048C53.9111 37.0048 53.8739 37.0141 53.8367 37.0141C53.6786 37.0235 53.5204 37.0421 53.3809 37.0608V36.9954ZM54.8505 37.4252C54.7761 37.4532 54.7017 37.4719 54.6273 37.4812C54.5715 37.4906 54.5157 37.4906 54.4599 37.4906C54.4041 37.4906 54.3483 37.4812 54.2924 37.4625C54.1343 37.4252 53.9855 37.3971 53.8367 37.3971C53.753 37.3878 53.6693 37.3878 53.5948 37.3971C53.6786 37.3878 53.753 37.3691 53.8367 37.3598C54.0041 37.3318 54.1715 37.3037 54.3483 37.2664C54.3855 37.257 54.4227 37.2477 54.4599 37.2383C54.5157 37.2196 54.5808 37.2103 54.6273 37.1916C54.711 37.1636 54.7854 37.1262 54.8505 37.0795C54.9901 36.9954 55.1017 36.8927 55.1947 36.7619C55.2691 36.9113 55.3249 37.0048 55.3621 37.0421C55.1947 37.229 55.0273 37.3598 54.8505 37.4252ZM55.7621 35.2764C55.7621 35.3512 55.697 35.51 55.5667 35.7622C55.5016 35.893 55.4365 36.0051 55.3714 36.0892C55.3156 36.1733 55.2598 36.248 55.204 36.3041C55.1668 36.2667 55.1389 36.248 55.1203 36.248C55.1017 36.248 55.0738 36.2294 55.0366 36.192C54.9994 36.192 54.9808 36.1733 54.9808 36.1359C55.1668 36.0238 55.3063 35.893 55.3807 35.7342C55.4551 35.5847 55.5016 35.3885 55.5202 35.1643C55.5388 34.9401 55.5481 34.7813 55.5481 34.7066V30.2129C55.5481 30.1008 55.5853 29.8112 55.6598 29.3627C55.7342 28.9049 55.7714 28.5313 55.7714 28.223V35.2764H55.7621ZM55.7621 16.4796C55.7621 16.1713 55.7249 15.7976 55.6505 15.3398C55.576 14.8821 55.5388 14.6018 55.5388 14.4897V9.99602C55.5388 9.92128 55.5295 9.7718 55.5109 9.53825C55.4923 9.31403 55.4458 9.11784 55.3714 8.96836C55.297 8.81888 55.1668 8.68809 54.9715 8.56664C54.9715 8.52927 54.9901 8.51059 55.0273 8.51059C55.0645 8.47322 55.0924 8.45453 55.111 8.45453C55.1296 8.45453 55.1575 8.43585 55.1947 8.39848C55.2505 8.45453 55.3063 8.51993 55.3621 8.61335C55.4272 8.70678 55.4923 8.81888 55.5574 8.94033C55.6877 9.18324 55.7528 9.3514 55.7528 9.42614V16.4796H55.7621ZM53.8832 9.48219C53.6507 9.30469 54.5436 9.25797 52.3392 9.25797C52.0043 9.25797 52.3485 9.26732 52.3392 9.25797L46.3677 9.16455V9.08047L44.6097 9.03376H36.6198C36.3128 9.03376 36.071 9.13652 35.885 9.3514C35.699 9.55693 35.5594 9.79983 35.485 10.0614C35.4106 10.323 35.3734 10.5939 35.3734 10.8555C35.3734 11.1171 35.392 11.3133 35.4292 11.8738L35.2432 35.5941C35.3641 35.6875 35.4478 35.8183 35.4943 35.9584C35.5129 35.9584 35.5315 35.9678 35.5501 35.9678C35.5408 35.9117 35.5222 35.8463 35.5222 35.7809L35.6617 10.5099C35.6617 10.2856 35.7641 10.0334 35.9687 9.7718C36.1733 9.51022 36.4152 9.37008 36.6756 9.37008L41.0752 9.42614L43.4005 9.45416L46.2653 9.49153H46.377C46.6746 9.49153 47.5303 9.49153 48.4884 9.51956H48.3768C49.0372 9.5289 52.4973 9.43548 53.8832 9.48219Z" fill="black"/>
<path id="Vector_56" d="M75.3414 36.7341C75.2298 36.622 75.0717 36.4819 74.8577 36.3044C74.6531 36.1362 74.4671 36.0148 74.3182 35.9307C74.2066 35.856 74.0578 35.8279 73.8625 35.8466C73.6764 35.8653 73.5183 35.8746 73.4067 35.8746C73.2579 35.8373 73.0718 35.7719 72.8672 35.6785C72.6626 35.585 72.5138 35.5383 72.4394 35.5383H71.658C71.5836 35.5383 71.3418 35.5009 70.9511 35.4262C70.5512 35.3515 70.2442 35.2767 70.0117 35.202C69.4071 35.0151 68.7746 34.5947 68.1142 33.9501C67.4538 33.3055 67.0259 32.6609 66.8399 32.0163C66.7655 31.792 66.6632 31.5118 66.5237 31.1941C66.3934 30.8765 66.2725 30.5588 66.1516 30.2505C66.04 29.9422 65.9377 29.69 65.8354 29.4845C65.7423 29.2789 65.6958 29.1295 65.6958 29.0547V10.5569H72.1603C72.2347 10.5942 72.4394 10.5662 72.7835 10.4728C72.9509 10.4261 73.1184 10.3794 73.2858 10.3233C73.3881 10.2953 73.4997 10.2766 73.5927 10.2299C73.695 10.1738 73.7974 10.0711 73.8811 9.98698C74.1043 9.78144 74.0764 9.58526 74.0764 9.30499C74.0764 9.19288 74.0671 9.0434 74.0485 8.84721C74.0299 8.66036 73.9834 8.52957 73.909 8.44549C73.602 8.02508 73.2858 7.82889 72.9416 7.84758C72.5975 7.86626 72.2812 7.85692 71.9743 7.81955C71.8627 7.80087 71.7697 7.6981 71.658 7.68876C71.6115 7.68876 71.5557 7.6981 71.5092 7.70744C71.4255 7.71678 71.3418 7.70744 71.2581 7.70744C70.9604 7.70744 70.6535 7.6981 70.3558 7.6981C69.5838 7.68876 67.2492 7.67942 66.4772 7.67007C66.1609 7.67007 65.8354 7.66073 65.5191 7.66073C65.6679 7.54862 65.7051 7.37112 65.6307 7.11887C65.5563 6.87597 65.5191 6.68913 65.5191 6.57702L65.4633 1.82176C65.3889 1.59754 65.3052 1.33596 65.2122 1.05569C65.1471 0.859497 65.0633 0.63528 64.9145 0.485802C64.7471 0.31764 64.5332 0.298955 64.3285 0.168162C64.1704 0.0560541 64.0402 0 63.9658 0C63.817 0 63.6867 0.0560541 63.5658 0.168162C63.3798 0.47646 63.1752 0.840812 62.9705 1.2799C62.8868 1.45741 62.7938 1.63491 62.7101 1.81242C62.6636 1.92453 62.6078 2.03663 62.5799 2.14874C62.552 2.27019 62.5613 2.39164 62.552 2.51309C62.5427 2.57849 62.5427 2.64389 62.5241 2.70928C62.5148 2.76534 62.4776 2.85876 62.4869 2.90547L62.5985 3.73694C62.6357 4.19472 62.6915 5.77357 62.7659 6.22201C62.8403 6.67044 62.7659 6.85729 62.5427 7.24032V7.64205C62.059 7.64205 61.566 7.64205 61.0823 7.64205H60.5522C60.4405 7.64205 60.3475 7.61402 60.2359 7.66073C60.0964 7.71678 59.9755 7.78218 59.836 7.83824C59.7057 7.89429 59.529 7.95034 59.4267 8.05311C59.3523 8.12785 59.2872 8.20259 59.2314 8.27733C59.1756 8.35207 59.129 8.38943 59.0918 8.38943C58.8686 8.46417 58.6733 8.50154 58.5245 8.50154C58.45 8.61365 58.4128 8.7351 58.4128 8.87524V9.24893C58.4128 9.51052 58.4314 9.68802 58.4687 9.76276C58.7663 9.98698 59.0174 10.1645 59.2035 10.2766C59.3895 10.3887 59.5848 10.4915 59.7708 10.5942C59.9569 10.6877 60.0871 10.7344 60.1708 10.7344H62.8961V23.169C62.8961 23.2438 62.8682 23.3559 62.8124 23.5147C62.7566 23.6642 62.7287 23.7763 62.7287 23.8604L62.6729 35.5477C62.7473 35.7345 62.8403 35.9307 62.9519 36.1175C63.0635 36.3044 63.1566 36.4819 63.231 36.6314C63.231 36.7808 63.1938 36.9677 63.1194 37.2013C63.1938 37.3881 63.324 37.575 63.5193 37.7431C63.7053 37.9113 63.817 37.9954 63.8635 37.9954H69.8722C69.9466 37.9954 70.021 38.0234 70.0954 38.0794C70.1698 38.1355 70.2442 38.1635 70.3186 38.1635H73.7602C73.8346 38.1635 73.9648 38.1448 74.1601 38.1075C74.3461 38.0701 74.5508 38.014 74.7554 37.9393C74.96 37.8646 75.1461 37.7711 75.2949 37.659C75.4437 37.5469 75.5181 37.3974 75.5181 37.2013C75.5088 37.0051 75.453 36.8556 75.3414 36.7341ZM71.6673 8.05311C71.7418 8.01574 71.9278 8.01574 72.2347 8.05311C72.5324 8.09048 72.8207 8.14653 73.0812 8.22127C73.1928 8.25864 73.3416 8.36141 73.5369 8.52957C73.7229 8.69773 73.816 8.82852 73.816 8.90326V9.69736C73.7416 9.73473 73.6857 9.7721 73.6485 9.80947C73.6113 9.84684 73.5555 9.86553 73.4811 9.86553C73.5183 9.48249 73.4718 9.17419 73.3416 8.92195C73.2114 8.67905 73.0067 8.4922 72.7463 8.38009C72.4859 8.26798 72.2068 8.19324 71.9278 8.15588C71.6487 8.11851 71.3883 8.08114 71.1651 8.04377H71.6673V8.05311ZM65.7237 8.39878H71.2209C71.2953 8.39878 71.4348 8.46417 71.6487 8.59497C71.8534 8.72576 72.0394 8.84721 72.1882 8.96866H65.7237V8.39878ZM65.7237 9.30499H72.3556C72.1324 9.37972 71.8255 9.4638 71.4441 9.55723C71.0627 9.65065 70.8209 9.69736 70.7093 9.69736H65.7237V9.30499ZM65.7237 10.1645L70.5419 10.0524C70.6907 9.94027 70.9232 9.88421 71.2209 9.88421C71.5185 9.88421 71.7976 9.86553 72.0394 9.82816C72.2812 9.79079 72.4673 9.70671 72.5789 9.57591C72.6905 9.44512 72.6719 9.16485 72.5231 8.75379C72.7835 8.79116 72.9602 8.94063 73.0346 9.21156C73.1091 9.47315 73.1463 9.65065 73.1463 9.72539C73.1091 9.76276 73.0905 9.80013 73.0905 9.8375C73.0905 9.87487 73.0532 9.91224 72.9788 9.94961C72.5975 9.94961 72.244 9.95895 71.8999 9.97764C71.5557 9.99632 71.2023 10.043 70.8209 10.1178L65.7237 10.2299V10.1645ZM59.2872 9.5946C59.2314 9.70671 59.2035 9.80013 59.2035 9.87487C59.0174 9.87487 58.8593 9.78145 58.7477 9.5946V8.84721C58.7477 8.7351 58.8872 8.72576 58.9709 8.71642C59.0453 8.70707 59.157 8.66971 59.2128 8.72576C59.2686 8.77247 59.25 8.89392 59.2872 8.95932C59.343 9.07143 59.3709 9.16485 59.3709 9.23959C59.3709 9.36104 59.343 9.47315 59.2872 9.5946ZM60.3382 7.99706H62.5613V8.10916H60.3382V7.99706ZM60.6731 10.2766C60.5615 10.2019 60.394 10.1551 60.1894 10.1365C59.9848 10.1178 59.7987 10.1084 59.6499 10.1084C59.5755 10.0711 59.529 10.015 59.5104 9.94027C59.4918 9.86553 59.4825 9.79079 59.4825 9.71605C59.5941 9.79079 59.715 9.84684 59.8546 9.88421C59.9848 9.92158 60.1057 9.97763 60.2266 10.0524L62.8961 10.1645L60.6731 10.2766ZM62.8868 9.70671H60.2173C60.0685 9.63197 59.9569 9.51986 59.8732 9.36104H62.8775V9.70671H62.8868ZM62.8868 9.02471H59.6499C59.6499 8.98734 59.6313 8.93129 59.5941 8.85655C59.5569 8.78181 59.5383 8.72576 59.5383 8.68839C59.6499 8.61365 59.8081 8.54825 60.022 8.4922C60.2266 8.43615 60.3754 8.40812 60.4498 8.40812H62.8868V9.02471ZM62.9426 4.2788H62.7752V3.00824H62.9426V4.2788ZM73.3044 36.4539C73.6857 36.4912 74.0206 36.5099 74.3275 36.5099V37.1359C74.2531 37.1359 74.1694 37.1545 74.0764 37.1919C73.9834 37.2293 73.8997 37.248 73.8253 37.248C73.8253 37.0985 73.7695 36.9677 73.6578 36.8462C73.2393 36.7715 72.8486 36.7435 72.4673 36.7622C72.0859 36.7808 72.3649 36.6968 71.9464 36.5099L67.3236 36.3978L71.4906 36.2857C71.5278 36.2857 71.6859 36.2764 71.9464 36.3137C72.1231 36.3418 72.1231 36.3698 72.2068 36.3698C72.551 36.3885 72.923 36.4165 73.3044 36.4539ZM65.4726 29.2229C65.5563 29.6807 65.7237 30.1291 65.8912 30.5682C66.5144 32.2031 67.2492 33.9314 68.7095 34.8844C69.8629 35.6411 71.286 35.7999 72.6533 35.94C72.7184 35.9494 72.8021 35.9681 72.8114 36.0335C72.8207 36.0989 72.7277 36.0802 72.6998 36.0615C72.6812 36.0428 72.6719 36.0241 72.6533 36.0148C72.6254 35.9961 72.4301 36.0054 72.3835 36.0054C71.7138 35.9961 71.0348 35.9868 70.3558 35.9868C69.5838 35.9774 68.8118 35.9774 68.0398 35.9681H67.8352C67.5003 35.9681 67.1562 35.9587 66.8492 35.8186C66.4586 35.6317 66.1981 35.2487 65.9935 34.8563C64.9703 32.8851 64.9517 30.5588 64.9517 28.3354C64.9517 22.4216 64.9424 16.5173 64.9424 10.6036C65.0912 10.6036 65.2494 10.6036 65.4075 10.6036C65.4075 16.2931 65.3982 21.9826 65.3982 27.6627C65.3703 28.1952 65.3703 28.7184 65.4726 29.2229ZM66.2911 35.8279C66.1423 35.7532 65.9098 35.7345 65.6121 35.7719C65.3052 35.8092 65.0819 35.6785 64.9331 35.3702V32.9785C65.0819 33.3989 65.2494 33.8754 65.4447 34.3985C65.6214 34.9311 65.9098 35.4075 66.2911 35.8279ZM65.3796 10.1645L64.9238 10.2766V10.0524L65.3796 10.1645ZM64.9238 9.30499H65.3796V9.70671H64.9238V9.30499ZM65.3796 8.96866L64.9238 8.90326V8.45483H65.3796V8.96866ZM64.868 1.08371C64.9052 1.15845 64.961 1.26122 65.0354 1.39201C65.1098 1.5228 65.1471 1.62557 65.1471 1.70965V6.18464C65.1471 6.25938 65.175 6.34346 65.2308 6.43688C65.2866 6.53031 65.3145 6.61439 65.3145 6.68913V7.65139C65.2122 7.65139 65.0726 7.65139 64.9145 7.65139V7.27769C64.9145 7.20296 64.9331 7.12822 64.9703 7.05348C65.0075 6.97874 65.0261 6.88532 65.0261 6.77321V2.85876C65.0261 2.78402 65.0168 2.71863 64.9982 2.66257C64.9796 2.60652 64.9517 2.54112 64.9145 2.46638V2.42901V2.36362C64.9145 2.12071 64.9052 1.87781 64.8866 1.6536C64.868 1.42938 64.8587 1.29859 64.8587 1.25188V1.08371H64.868ZM65.1005 36.0241C65.3982 36.1175 65.6121 36.1643 65.7237 36.1643C65.5377 36.1643 65.3424 36.1549 65.1564 36.1362C64.9703 36.1175 64.775 36.1269 64.589 36.1643V35.4823C64.6262 35.7532 64.7936 35.9307 65.1005 36.0241ZM64.5332 2.6906H64.7006V6.49294H64.5332V2.6906ZM63.4821 30.073C63.4263 29.9236 63.3984 29.7928 63.3984 29.6713V10.669H63.91V22.5618C63.91 22.5992 63.9286 22.814 63.9658 23.2158C64.003 23.6175 64.0402 24.0566 64.0774 24.5517C64.1146 25.0469 64.1518 25.4953 64.189 25.8877C64.2262 26.2894 64.2448 26.5043 64.2448 26.5416V36.1082C64.0216 36.0335 63.8077 35.9027 63.6216 35.7065C63.6216 35.557 63.6123 35.3888 63.5937 35.1926C63.5751 35.0058 63.5658 34.875 63.5658 34.7909V30.4654C63.5658 30.3627 63.5379 30.2319 63.4821 30.073ZM63.8542 9.70671H63.231V9.30499H63.8542V9.70671ZM63.231 8.96866V8.45483H63.8542L63.7891 8.96866H63.231ZM63.8542 10.2766H63.231V10.0524H63.8542V10.2766ZM64.1332 10.669H64.3006V15.172H64.1332V10.669ZM64.1332 10.043H64.3006V10.2766H64.1332V10.043ZM64.1332 9.30499H64.3006V9.70671H64.1332V9.30499ZM64.1332 8.45483H64.3006V8.96866H64.1332V8.45483ZM63.9658 0.401721L64.0216 0.51383L63.7425 0.681992L63.6867 0.569884L63.9658 0.401721ZM63.9658 0.971605C64.0402 1.04634 64.1053 1.13042 64.1611 1.22385C64.2169 1.31727 64.2448 1.40135 64.2448 1.47609L64.1332 7.65139C64.1146 7.19361 63.9658 2.9989 63.9658 2.57849C63.9658 2.12071 63.7797 2.01795 63.7425 1.94321C63.7053 1.86847 63.6867 1.77505 63.6867 1.66294C63.6774 1.45741 63.7704 1.23319 63.9658 0.971605ZM63.5937 4.40025C63.6495 4.23209 63.6774 4.12932 63.6774 4.09195V3.07363L63.7332 2.9989V7.64205C63.5658 7.64205 63.3984 7.64205 63.2217 7.64205C63.2589 7.44586 63.3612 5.11961 63.417 4.93276C63.4821 4.75526 63.5379 4.57775 63.5937 4.40025ZM63.231 2.27953C63.2682 2.05532 63.324 1.85913 63.3984 1.70965C63.4635 1.91518 63.5193 2.16743 63.5565 2.46638C63.5565 2.46638 63.3333 4.13866 63.324 4.33485L63.2031 4.55907C63.2031 4.54038 63.2031 3.61549 63.2031 3.59681C63.1938 3.27917 63.1752 3.00824 63.1473 2.76534C63.1659 2.59717 63.1938 2.4477 63.231 2.27953ZM63.1938 35.912C63.0635 35.6691 62.9984 35.5009 62.9984 35.4262V28.3634C62.9984 28.6717 63.0356 29.0454 63.11 29.5032C63.1845 29.9609 63.2217 30.2412 63.2217 30.3533V34.847C63.2217 34.9217 63.231 35.0712 63.2496 35.3048C63.2682 35.529 63.3147 35.7252 63.3891 35.8746C63.4635 36.0241 63.5937 36.1549 63.7891 36.2764C63.7891 36.3137 63.7704 36.3324 63.7332 36.3324C63.696 36.3698 63.6681 36.3885 63.6495 36.3885C63.6309 36.3885 63.603 36.4072 63.5658 36.4445C63.4542 36.3418 63.3333 36.1549 63.1938 35.912ZM64.4774 37.6217C64.096 37.7151 63.7425 37.575 63.3984 37.1919C63.4356 37.1545 63.4914 37.0611 63.5658 36.9116C63.7518 37.1732 64.0402 37.3507 64.4122 37.4255C64.6727 37.4815 64.9238 37.5189 65.1657 37.5563C64.9517 37.5376 64.7192 37.5563 64.4774 37.6217ZM64.8122 37.1639C64.3936 37.1452 64.0588 37.0051 63.7891 36.7341L63.9565 36.5099H64.4122C64.5239 36.7715 64.7099 36.949 64.9796 37.0238C65.2401 37.0985 65.5284 37.1919 65.8261 37.304C65.5656 37.2293 65.2308 37.1826 64.8122 37.1639ZM66.3469 36.9957C65.854 36.9023 65.3424 36.7622 64.8122 36.566H65.8354C65.9098 36.5286 66.1516 36.566 66.5702 36.6781C66.9887 36.7902 67.3422 36.9303 67.6491 37.0798C67.2678 37.1172 66.8306 37.0891 66.3469 36.9957ZM71.6115 37.7057L68.263 37.5376V37.3694L71.6115 37.5376V37.7057ZM71.8999 37.1359C70.8023 37.2106 69.7605 37.1172 68.7839 36.8556H71.9929C72.1417 36.8556 72.2626 36.9023 72.3649 36.9957C72.4301 37.0611 72.5603 37.1078 72.737 37.1265C72.5045 37.1172 72.3928 37.0985 72.337 37.0985C72.2905 37.0985 72.1789 37.1172 71.8999 37.1359ZM75.174 37.304C75.0251 37.4909 74.7926 37.631 74.495 37.7057C74.3461 37.7805 74.1601 37.8272 73.9555 37.8459C73.7509 37.8646 73.602 37.8739 73.5276 37.8739H72.8486C72.7928 37.8739 72.737 37.8832 72.6812 37.8739C72.6998 37.8552 72.7277 37.8365 72.737 37.8085C72.7556 37.7711 72.7928 37.6964 72.8393 37.7057C72.9416 37.7151 73.0439 37.7057 73.1463 37.7057C73.3137 37.6964 73.4811 37.6777 73.6485 37.659C73.909 37.6217 74.1973 37.5656 74.495 37.4909C74.6438 37.4161 74.7182 37.2853 74.7182 37.0891V36.6874C74.8298 36.6874 74.9786 36.7808 75.174 36.9677V37.304Z" fill="black"/>
<path id="Vector_57" d="M130.927 32.7075C130.889 32.502 130.861 32.2684 130.843 32.0255C130.824 31.7826 130.796 31.5491 130.759 31.3435C130.759 31.3249 130.75 31.3062 130.75 31.2875L130.722 9.28624C130.722 9.17413 130.647 9.00597 130.499 8.77241C130.387 8.62294 130.229 8.50149 130.015 8.39872C129.81 8.3053 129.606 8.22122 129.42 8.14648C129.355 8.11845 129.289 8.07174 129.234 8.03437C129.224 8.02503 129.206 8.01568 129.196 8.00634C129.122 7.95029 129.048 7.90358 128.973 7.86621C128.927 7.84752 128.871 7.82884 128.815 7.81015C128.648 7.7541 128.443 7.70739 128.201 7.67002C127.885 7.61396 127.68 7.58593 127.606 7.58593H127.457H127.029H126.369H125.513H124.509H123.392H122.211H121.011H119.821H118.695H117.672H116.788H116.091H115.616C115.533 7.58593 115.449 7.56725 115.365 7.59528C115.291 7.6233 115.226 7.66067 115.17 7.71673C115.105 7.7541 115.049 7.78212 114.984 7.78212H110.845H110.501H110.045H109.422H109.254H109.031H108.975C108.938 7.78212 108.826 7.86621 108.631 8.03437C108.594 8.07174 108.557 8.10911 108.519 8.14648C108.389 8.28661 108.296 8.42675 108.24 8.57622C108.315 8.80044 108.352 8.99663 108.352 9.14611C108.278 9.29559 108.185 9.46375 108.073 9.65994C108.054 9.69731 108.036 9.72533 108.017 9.7627C107.933 9.92152 107.85 10.071 107.794 10.2298V36.323V36.7901C107.868 37.0984 107.989 37.3787 108.166 37.6403C108.333 37.9019 108.594 38.042 108.929 38.042C108.947 38.042 108.966 38.0327 108.985 38.0327C109.161 38.014 109.366 37.9392 109.608 37.7804C109.673 37.7431 109.729 37.6963 109.775 37.6496C109.812 37.6123 109.84 37.5655 109.868 37.5282C109.952 37.3974 110.008 37.2479 110.008 37.0704V36.9676V37.1451V36.9209L110.063 31.2408L110.045 13.864C110.045 13.3875 110.045 12.9017 110.045 12.4253C110.045 12.0329 109.952 11.5097 110.091 11.136C110.277 10.6222 111.301 10.3793 111.766 10.3513C111.942 10.3419 112.119 10.3232 112.296 10.3139C112.919 10.2672 113.533 10.2205 114.156 10.1831C115.877 10.0617 117.588 9.93087 119.309 9.80942C120.528 9.71599 121.755 9.63191 122.983 9.54783C123.662 9.50112 124.332 9.46375 125.011 9.41704C125.634 9.37967 126.285 9.28624 126.927 9.29559C127.401 9.30493 127.931 9.30493 128.22 9.74402C128.638 10.3886 128.471 11.2948 128.471 12.0142L128.545 30.1757L128.573 35.7251V35.8933C128.573 35.912 128.564 35.9306 128.555 35.9587C128.536 36.0054 128.517 36.0614 128.499 36.1081V36.1549V36.9209C128.555 37.2292 128.629 37.5936 128.862 37.8178C129.336 38.2662 130.061 38.0327 130.508 37.687C130.824 37.4441 130.992 37.1078 130.992 36.6874V33.0719C130.992 33.0345 130.964 32.9131 130.927 32.7075ZM128.797 8.80978C128.824 8.82847 128.852 8.8565 128.871 8.87518C128.927 8.94058 128.983 9.00597 129.029 9.08071C129.103 9.21151 129.103 9.35164 129.029 9.50112V9.44506C129.038 9.20216 128.973 9.01532 128.834 8.88452C128.759 8.80978 128.666 8.75373 128.545 8.71636C128.183 8.60425 127.931 8.51083 127.783 8.42675C127.894 8.42675 128.043 8.45477 128.238 8.51083H128.248C128.434 8.56688 128.592 8.64162 128.722 8.73505C128.741 8.76307 128.769 8.7911 128.797 8.80978ZM122.499 7.80081H122.704H126.629H127.085H127.373C127.439 7.80081 127.569 7.82884 127.745 7.88489C127.783 7.89423 127.811 7.90358 127.857 7.91292C127.876 7.92226 127.894 7.92226 127.922 7.9316C127.931 7.9316 127.931 7.9316 127.941 7.94094C127.95 7.94094 127.959 7.95029 127.969 7.95029C127.987 7.95963 128.006 7.95963 128.024 7.96897C128.127 7.997 128.22 8.02503 128.304 8.03437H126.676H126.629H123.188H122.453H121.69C121.504 8.03437 120.937 8.0624 120.853 8.02503C120.76 7.98766 120.723 7.88489 120.667 7.80081H122.499ZM113.412 8.27727C113.421 8.26793 113.421 8.25858 113.431 8.24924C113.477 8.20253 113.561 8.22122 113.626 8.21187C113.803 8.20253 113.989 8.19319 114.165 8.18385C114.463 8.16516 114.751 8.15582 115.049 8.14648C115.412 8.12779 115.784 8.10911 116.147 8.09042C116.277 8.08108 116.407 8.08108 116.537 8.07174C116.621 8.07174 116.714 8.03437 116.751 8.12779C116.779 8.21187 116.742 8.21187 116.695 8.23056C116.612 8.25858 116.491 8.2399 116.407 8.24924L115.375 8.3053C114.742 8.33332 114.1 8.37069 113.468 8.39872C113.393 8.39872 113.384 8.32398 113.412 8.27727ZM109.04 8.18385C109.115 8.15582 109.189 8.13713 109.264 8.12779C109.319 8.11845 109.375 8.11845 109.431 8.11845C109.487 8.11845 109.543 8.12779 109.598 8.14648C109.757 8.18385 109.905 8.21187 110.054 8.21187C110.138 8.22122 110.222 8.22122 110.296 8.21187C110.212 8.22122 110.138 8.2399 110.054 8.24924C109.887 8.27727 109.719 8.3053 109.543 8.34267C109.505 8.35201 109.468 8.36135 109.431 8.37069C109.375 8.38938 109.31 8.39872 109.264 8.4174C109.18 8.44543 109.105 8.4828 109.04 8.52951C108.901 8.61359 108.789 8.71636 108.696 8.84715C108.622 8.69768 108.566 8.60425 108.529 8.56688C108.696 8.38004 108.873 8.25858 109.04 8.18385ZM108.138 12.3412V10.3326C108.138 10.2578 108.203 10.099 108.333 9.84678C108.399 9.71599 108.464 9.61323 108.529 9.5198C108.585 9.43572 108.64 9.36098 108.696 9.30493C108.733 9.3423 108.919 9.43572 108.919 9.47309C108.733 9.5852 108.594 9.71599 108.519 9.87481C108.445 10.0243 108.399 10.2205 108.38 10.4447C108.361 10.6689 108.352 10.8277 108.352 10.9025V12.3038V12.6308V15.4055C108.352 15.5176 108.315 15.8072 108.24 16.2556C108.194 16.5639 108.157 16.8255 108.138 17.0591L108.129 12.9671V12.3412H108.138ZM108.873 37.1078C108.836 37.1451 108.808 37.1638 108.789 37.1638C108.771 37.1638 108.743 37.1825 108.705 37.2199C108.65 37.1638 108.594 37.0984 108.538 37.005C108.473 36.9116 108.408 36.7995 108.343 36.678C108.213 36.4351 108.147 36.267 108.147 36.1922V29.1294C108.147 29.4377 108.185 29.8114 108.259 30.2692C108.333 30.7269 108.371 31.0072 108.371 31.1193V35.613C108.371 35.6877 108.38 35.8372 108.399 36.0708C108.417 36.295 108.464 36.4912 108.538 36.6407C108.612 36.7901 108.743 36.9209 108.938 37.0424C108.929 37.0891 108.91 37.1078 108.873 37.1078ZM109.226 37.6683C109.171 37.659 109.124 37.6403 109.078 37.6216C109.068 37.6123 109.059 37.6029 109.05 37.5936C109.012 37.5656 108.975 37.5375 108.938 37.5002L109.05 37.3507L109.105 37.2759C109.161 37.304 109.217 37.332 109.282 37.36C109.301 37.3694 109.319 37.3694 109.338 37.3787C109.357 37.388 109.375 37.3974 109.394 37.3974C109.329 37.4908 109.282 37.5842 109.226 37.6683ZM109.384 36.8742C109.264 36.8368 109.152 36.7808 109.04 36.7061C109.012 36.6874 108.985 36.6687 108.957 36.65C108.947 36.6407 108.938 36.6313 108.919 36.622C108.864 36.5753 108.808 36.5285 108.752 36.4725C108.752 36.323 108.743 36.1549 108.724 35.9587C108.705 35.7718 108.696 35.641 108.696 35.5569V31.2314C108.696 31.1193 108.668 30.9885 108.612 30.8297C108.557 30.6802 108.529 30.5494 108.529 30.428V16.0781C108.529 15.966 108.557 15.8352 108.612 15.6764C108.668 15.5269 108.696 15.3961 108.696 15.2747V12.2104V10.9492C108.696 10.8744 108.705 10.7437 108.724 10.5475C108.743 10.3606 108.752 10.1831 108.752 10.0336C108.845 9.94021 108.938 9.86547 109.031 9.80007C109.143 9.72533 109.254 9.66928 109.375 9.63191V11.9768L109.431 21.1884C109.394 21.6835 109.357 22.1226 109.319 22.5244C109.282 22.9261 109.264 23.141 109.264 23.1783V23.3091C109.264 23.3465 109.282 23.5614 109.319 23.9631C109.357 24.3648 109.394 24.8039 109.431 25.299C109.459 25.626 109.478 25.925 109.505 26.2146C109.515 26.3641 109.533 26.5042 109.543 26.635C109.58 27.0367 109.598 27.2516 109.598 27.289L109.384 36.8742ZM109.552 9.24887H109.096L109.04 9.17414L108.929 9.02466C108.966 8.98729 109.003 8.95926 109.04 8.93123C109.115 8.87518 109.189 8.81913 109.264 8.78176C109.319 8.75373 109.375 8.7257 109.431 8.70702C109.589 8.65096 109.757 8.61359 109.943 8.60425C109.98 8.60425 110.017 8.59491 110.054 8.59491C110.212 8.58557 110.37 8.57622 110.51 8.5482V8.61359C110.37 8.66031 110.24 8.69768 110.11 8.73505C110.091 8.74439 110.073 8.75373 110.054 8.75373C109.831 8.84715 109.664 9.00597 109.552 9.24887ZM109.729 10.2765V9.59454C109.822 9.37033 110.11 9.19282 110.38 9.08071C110.417 9.06203 110.454 9.04334 110.482 9.02466C110.287 9.70665 109.747 10.0803 109.729 10.2765ZM110.147 10.3419C110.203 10.2205 110.25 10.0617 110.268 10.0056C110.361 9.79073 110.463 9.6506 110.659 9.50112C110.863 9.35164 111.133 9.2769 111.366 9.28624C111.691 9.29559 112.007 9.29559 112.333 9.29559C112.966 9.29559 113.598 9.2769 114.231 9.26756C115.765 9.25822 117.3 9.23953 118.825 9.22085C120.146 9.2115 121.467 9.20216 122.788 9.22085L123.606 9.30493C123.597 9.30493 111.542 9.77205 110.147 10.3419ZM128.815 10.7063C128.797 9.93087 128.285 8.94058 127.42 8.94058C127.178 8.94058 126.936 8.94058 126.704 8.94058C125.643 8.94058 124.592 8.94992 123.532 8.94992C122.053 8.94992 120.574 8.95926 119.095 8.95926C117.607 8.95926 116.128 8.9686 114.649 8.9686C113.71 8.9686 112.026 8.90321 110.901 8.89387C110.929 8.88452 110.947 8.88452 110.947 8.88452C111.133 8.83781 111.31 8.7911 111.487 8.76307C111.98 8.66965 124.118 8.53886 124.462 8.53886C125.011 8.53886 125.55 8.5482 126.081 8.56688C126.434 8.57622 126.769 8.61359 127.104 8.66031C127.271 8.67899 127.429 8.70702 127.587 8.74439C127.708 8.77241 127.811 8.7911 127.913 8.81913H127.922H127.931C128.266 8.91255 128.508 9.034 128.657 9.18348C128.769 9.29559 128.862 9.49178 128.936 9.75336C128.973 9.86547 129.001 9.99626 129.029 10.1271V10.5007C129.038 10.5475 129.048 10.5942 129.057 10.6502C129.113 10.9959 129.15 11.3322 129.169 11.6779C129.187 12.0236 129.196 12.2851 129.196 12.472V13.21V14.1349V14.8356V15.9193L129.178 22.7299V22.7859C129.178 22.8327 129.187 22.9354 129.206 23.1036C129.206 23.1223 129.215 23.141 129.215 23.169C129.224 23.2531 129.243 23.3558 129.262 23.4773C129.262 23.5053 129.271 23.524 129.271 23.552C129.317 23.8883 129.345 24.0845 129.345 24.1593V24.1966V25.1776V26.5976V35.2019C129.345 35.2393 129.327 35.3047 129.289 35.3981C129.262 35.4729 129.224 35.5569 129.169 35.6597C129.122 35.7531 129.085 35.8372 129.048 35.9493C129.048 35.9493 129.029 35.9867 129.001 36.0427C128.992 36.0614 128.983 36.0895 128.964 36.1081C128.945 36.1455 128.917 36.1922 128.88 36.2389L128.871 34.9777L128.862 33.4456V30.1851V23.0662L128.769 11.3883C128.722 11.1641 128.824 10.9772 128.815 10.7063ZM129.913 36.9022V37.2853V37.5562C129.838 37.5936 129.764 37.6029 129.671 37.5842C129.466 37.5469 129.131 37.5655 129.001 37.3694C128.992 37.36 128.992 37.3507 128.983 37.3413C128.927 37.2386 128.88 37.0891 128.852 36.8929V36.8088L128.862 36.7995C128.908 36.7621 128.955 36.7247 128.992 36.6874C128.992 36.6874 128.992 36.6874 128.992 36.678C129.113 36.5659 129.206 36.4445 129.271 36.323C129.28 36.295 129.289 36.267 129.299 36.2389C129.364 36.0708 129.429 35.8839 129.494 35.6691C129.531 35.5383 129.559 35.4355 129.578 35.3514C129.596 35.2767 129.606 35.2206 129.606 35.1833V33.8286V24.1966C129.606 24.1593 129.606 24.0845 129.596 23.9911C129.596 23.8883 129.587 23.7669 129.578 23.5987C129.578 23.552 129.569 23.5053 129.569 23.4679C129.55 23.2064 129.503 22.9728 129.438 22.7766L129.457 13.9481C129.429 13.0792 129.401 12.2104 129.383 11.3416C129.373 10.9585 129.364 10.5848 129.345 10.2018C129.345 10.0803 129.224 9.51046 129.466 9.57586C129.457 10.3793 129.485 11.1734 129.494 11.9768C129.503 12.6682 129.513 13.3595 129.513 14.0415L129.531 18.0867C129.569 18.1989 129.606 18.3203 129.643 18.4604C129.68 18.5912 129.699 18.694 129.699 18.7687V21.2164C129.699 21.3285 129.708 21.5528 129.727 21.8704C129.745 22.1787 129.801 22.5617 129.838 22.7486V22.9915V23.3371L129.922 33.24L129.913 36.9022ZM130.359 25.8129V26.2333V28.5128V30.1477V30.9512C130.359 31.3903 130.359 31.8387 130.359 32.2778C130.359 32.5113 130.368 32.7449 130.359 32.9691C130.275 32.9504 130.257 32.8383 130.257 32.7542C130.248 31.8761 130.257 31.0072 130.257 30.129V26.3547L130.229 24.4209L130.22 24.1126L130.21 23.7669L130.201 23.4399L130.192 22.9635V22.7486V22.5804C130.182 22.5244 130.173 22.4683 130.164 22.4029C130.155 22.3469 130.117 22.2628 130.089 22.1787C130.08 22.1133 130.071 22.0386 130.062 21.9638C130.024 21.6835 130.006 21.4967 130.006 21.422V18.75C130.006 18.6379 129.978 18.5539 129.922 18.4978C129.866 18.4418 129.838 18.3577 129.838 18.2456L129.857 14.3778C129.866 14.2751 129.875 14.1723 129.875 14.0695L129.885 10.4167C129.885 10.3793 129.875 10.2765 129.857 10.1177C129.838 9.99626 129.82 9.83744 129.801 9.6506C129.755 9.28624 129.699 8.9686 129.643 8.69768C129.634 8.64162 129.615 8.58557 129.606 8.53886C129.634 8.55754 129.662 8.57622 129.689 8.59491C129.792 8.66965 129.922 8.76307 130.08 8.87518C130.285 9.02466 130.387 9.13677 130.387 9.22085L130.368 22.3095V22.6738V22.8981V23.2437V23.7949V24.1406V24.2714V25.7381V25.8129H130.359ZM130.647 36.5472C130.647 36.7341 130.554 36.9676 130.368 37.2292L130.378 35.6037C130.406 35.5289 130.434 35.4542 130.471 35.3794C130.527 35.258 130.564 35.1552 130.582 35.0805V33.0719C130.582 33.0252 130.592 32.9224 130.61 32.7729C130.61 32.7542 130.62 32.7262 130.62 32.6982C130.62 32.7075 130.62 32.7169 130.62 32.7262C130.638 32.9131 130.647 33.0345 130.647 33.0625V36.5472Z" fill="black"/>
<path id="Vector_58" d="M133.458 16.7973L133.411 16.7412L133.345 16.7973V20.6276H133.458V16.7973Z" fill="black"/>
<path id="Vector_59" d="M133.345 25.0374V28.8677L133.401 28.9331L133.458 28.8677V25.0374H133.345Z" fill="black"/>
<path id="Vector_60" d="M133.457 16.7975L133.782 17.1431L133.866 17.0684L133.41 16.5732L132.945 17.0684L133.029 17.1431L133.345 16.7975L133.41 16.7414L133.457 16.7975Z" fill="black"/>
<path id="Vector_61" d="M133.345 28.8679L133.029 28.5222L132.945 28.597L133.401 29.0921L133.866 28.597L133.782 28.5222L133.457 28.8679L133.401 28.9333L133.345 28.8679Z" fill="black"/>
<path id="Vector_62" d="M132.806 23.8042C132.787 23.8042 132.778 23.7949 132.768 23.7855C132.759 23.7762 132.75 23.7575 132.75 23.7482V22.16C132.74 22.1787 132.731 22.188 132.731 22.1973C132.629 22.3842 132.517 22.487 132.415 22.5056C132.387 22.5056 132.359 22.5056 132.322 22.5056C132.285 22.4963 132.257 22.4776 132.21 22.4402C132.201 22.4309 132.192 22.4122 132.192 22.4029C132.192 22.3842 132.201 22.3748 132.21 22.3655C132.22 22.3562 132.238 22.3468 132.247 22.3468C132.266 22.3468 132.275 22.3562 132.285 22.3655C132.303 22.3842 132.322 22.4029 132.34 22.4029C132.359 22.4029 132.368 22.4029 132.378 22.4029C132.415 22.3935 132.452 22.3748 132.489 22.3281C132.527 22.2814 132.573 22.2254 132.62 22.1506C132.638 22.1226 132.657 22.0946 132.666 22.0572C132.685 22.0292 132.694 22.0012 132.703 21.9825C132.713 21.9544 132.722 21.9264 132.74 21.9077C132.75 21.8797 132.778 21.8704 132.806 21.8704C132.815 21.8704 132.833 21.8797 132.833 21.889C132.843 21.8984 132.843 21.9077 132.843 21.9264V23.7575C132.843 23.7762 132.833 23.7855 132.824 23.7949C132.833 23.8042 132.815 23.8042 132.806 23.8042Z" fill="black"/>
<path id="Vector_63" d="M133.196 23.7574C133.196 23.776 133.187 23.7853 133.178 23.7946C133.168 23.8039 133.15 23.8132 133.14 23.8132C133.122 23.8132 133.112 23.8039 133.103 23.7946C133.094 23.7853 133.084 23.7667 133.084 23.7574C133.084 23.7481 133.094 23.7295 133.103 23.7202C133.112 23.711 133.131 23.7017 133.14 23.7017C133.159 23.7017 133.168 23.711 133.178 23.7202C133.196 23.7295 133.196 23.7388 133.196 23.7574Z" fill="black"/>
<path id="Vector_64" d="M134.033 23.8043C133.996 23.8043 133.968 23.8043 133.94 23.7949C133.81 23.7762 133.689 23.7108 133.587 23.6081C133.531 23.552 133.475 23.4679 133.438 23.3652C133.401 23.2718 133.382 23.169 133.382 23.0569C133.373 22.9448 133.382 22.8327 133.41 22.7112C133.429 22.5898 133.466 22.4777 133.522 22.3749C133.568 22.2908 133.615 22.2067 133.68 22.1413C133.736 22.0759 133.81 22.0199 133.875 21.9732C134.043 21.8704 134.238 21.833 134.461 21.8611C134.48 21.8611 134.489 21.8704 134.498 21.8891C134.508 21.8984 134.508 21.9171 134.508 21.9265C134.508 21.9451 134.498 21.9545 134.48 21.9638C134.47 21.9732 134.452 21.9732 134.443 21.9732C134.322 21.9545 134.21 21.9638 134.126 21.9825C134.033 22.0105 133.959 22.0479 133.894 22.0946C133.829 22.1413 133.773 22.1974 133.726 22.2534C133.68 22.3095 133.652 22.3655 133.624 22.4216C133.577 22.515 133.55 22.6178 133.522 22.7206C133.503 22.8327 133.494 22.9354 133.494 23.0475C133.494 23.0569 133.494 23.0662 133.494 23.0756C133.494 23.0849 133.494 23.0943 133.494 23.1036C133.596 22.9915 133.717 22.9074 133.847 22.8607C133.912 22.8327 133.987 22.8233 134.052 22.8233C134.117 22.8233 134.191 22.8327 134.256 22.8513C134.359 22.8887 134.443 22.9448 134.508 23.0195C134.573 23.0942 134.61 23.1877 134.61 23.2811C134.61 23.3745 134.582 23.4679 134.517 23.552C134.489 23.5987 134.452 23.6361 134.415 23.6641C134.377 23.6922 134.331 23.7202 134.284 23.7389C134.201 23.7856 134.117 23.8043 134.033 23.8043ZM133.522 23.2624C133.55 23.3839 133.596 23.4679 133.661 23.5333C133.717 23.5894 133.773 23.6268 133.838 23.6548C133.894 23.6828 133.95 23.6922 134.005 23.6922C134.052 23.6922 134.098 23.6922 134.145 23.6828C134.182 23.6735 134.219 23.6641 134.238 23.6548C134.322 23.6174 134.387 23.5707 134.433 23.5053C134.48 23.4399 134.508 23.3652 134.508 23.2998C134.508 23.2344 134.48 23.169 134.433 23.1129C134.377 23.0569 134.312 23.0102 134.229 22.9821C134.108 22.9448 133.987 22.9448 133.866 23.0008C133.736 23.0382 133.624 23.1316 133.522 23.2624Z" fill="black"/>
<path id="Vector_65" d="M5.92633 16.7973L5.87002 16.7412L5.81372 16.7973V20.6276H5.92633V16.7973Z" fill="black"/>
<path id="Vector_66" d="M5.81372 25.0374V28.8677L5.87002 28.9331L5.92633 28.8677V25.0374H5.81372Z" fill="black"/>
<path id="Vector_67" d="M5.92491 16.7975L6.24115 17.1431L6.32487 17.0684L5.8691 16.5732L5.41333 17.0684L5.49704 17.1431L5.81329 16.7975L5.8691 16.7414L5.92491 16.7975Z" fill="black"/>
<path id="Vector_68" d="M5.81329 28.8679L5.49704 28.5222L5.41333 28.597L5.8691 29.0921L6.32487 28.597L6.24115 28.5222L5.92491 28.8679L5.8691 28.9333L5.81329 28.8679Z" fill="black"/>
<path id="Vector_69" d="M5.65538 23.8041C5.62747 23.8041 5.60887 23.7948 5.59957 23.7668C5.58096 23.7014 5.53446 23.636 5.46005 23.5612C5.42284 23.5239 5.37633 23.4865 5.32983 23.4585C5.28332 23.4305 5.23681 23.3931 5.181 23.3744C5.07869 23.5052 4.95777 23.6173 4.80895 23.7014C4.74384 23.7388 4.67873 23.7668 4.62292 23.7855C4.56711 23.8041 4.5206 23.8135 4.4741 23.8135C4.42759 23.8135 4.39969 23.8135 4.37178 23.7948C4.34388 23.7855 4.31597 23.7761 4.30667 23.7668C4.26947 23.7388 4.23226 23.7014 4.21366 23.6547C4.19506 23.608 4.18575 23.5612 4.19506 23.5052C4.20436 23.4398 4.23226 23.3744 4.27877 23.3183C4.32527 23.2623 4.38108 23.2249 4.45549 23.1969C4.57641 23.1502 4.70663 23.1315 4.84615 23.1502C4.93917 23.1595 5.04148 23.1876 5.1438 23.2343C5.21821 23.1128 5.27402 22.982 5.30192 22.8419C5.32983 22.7018 5.32983 22.5803 5.31122 22.4589C5.28332 22.3281 5.23681 22.2253 5.1624 22.1412C5.08799 22.0571 4.99498 22.0104 4.88336 21.9917C4.81825 21.9824 4.76244 21.9824 4.70663 21.9824C4.65082 21.9917 4.60432 22.0011 4.56711 22.0198C4.52991 22.0384 4.4927 22.0571 4.4648 22.0852C4.43689 22.1132 4.41829 22.1412 4.41829 22.1692C4.40899 22.2253 4.41829 22.272 4.4741 22.3281C4.5206 22.3748 4.59502 22.4215 4.68803 22.4495C4.70663 22.4495 4.71593 22.4588 4.71593 22.4775C4.72524 22.4962 4.72524 22.5056 4.71593 22.5242C4.70663 22.5429 4.69733 22.5523 4.68803 22.5523C4.67873 22.5616 4.66012 22.5616 4.64152 22.5523C4.5113 22.5056 4.41829 22.4495 4.35318 22.3748C4.29737 22.3 4.26947 22.2159 4.29737 22.1412C4.32527 22.0478 4.39038 21.973 4.502 21.917C4.61362 21.8703 4.74384 21.8516 4.89266 21.8796C5.03218 21.9077 5.1438 21.973 5.23681 22.0758C5.32052 22.1692 5.37633 22.3 5.40424 22.4402C5.42284 22.5523 5.42284 22.6644 5.41354 22.7858C5.39494 22.9073 5.36703 23.0194 5.31122 23.1315C5.30192 23.1595 5.28332 23.1876 5.27402 23.2062C5.26472 23.2343 5.24611 23.253 5.22751 23.281C5.34843 23.3464 5.45074 23.4118 5.53446 23.4959C5.61817 23.5799 5.67398 23.664 5.69258 23.7388C5.69258 23.7574 5.69258 23.7668 5.68328 23.7855C5.67398 23.7948 5.66468 23.8041 5.64607 23.8135C5.66468 23.8041 5.65538 23.8041 5.65538 23.8041ZM4.72523 23.2529C4.64152 23.2529 4.56711 23.2716 4.4927 23.2997C4.42759 23.3277 4.38108 23.3557 4.35318 23.4024C4.32527 23.4491 4.30667 23.4865 4.30667 23.5239C4.30667 23.5519 4.30667 23.5893 4.31597 23.608C4.32527 23.636 4.34388 23.6547 4.37178 23.6734C4.40899 23.7014 4.4648 23.7107 4.53921 23.7014C4.60432 23.692 4.67873 23.664 4.76244 23.608C4.82755 23.5706 4.88336 23.5239 4.93917 23.4865C4.99498 23.4398 5.04148 23.3931 5.07869 23.337C4.94847 23.2716 4.82755 23.2529 4.72523 23.2529Z" fill="black"/>
<path id="Vector_70" d="M5.98117 23.7481C5.98117 23.7667 5.97183 23.776 5.9625 23.7853C5.95316 23.7946 5.93449 23.8039 5.92516 23.8039C5.90648 23.8039 5.89715 23.7946 5.88781 23.7853C5.87848 23.776 5.86914 23.7574 5.86914 23.7481C5.86914 23.7296 5.87848 23.7203 5.88781 23.711C5.89715 23.7017 5.91582 23.6924 5.92516 23.6924C5.94383 23.6924 5.95316 23.7017 5.9625 23.711C5.97183 23.7203 5.98117 23.7389 5.98117 23.7481Z" fill="black"/>
<path id="Vector_71" d="M6.90177 23.8137C6.76224 23.8137 6.64133 23.7764 6.52971 23.711C6.42739 23.6549 6.34368 23.5615 6.28787 23.4494C6.24137 23.356 6.21346 23.2625 6.19486 23.1504C6.17626 23.0383 6.16696 22.9262 6.17626 22.7954C6.18556 22.674 6.20416 22.5619 6.24137 22.4591C6.27857 22.347 6.32508 22.2536 6.38089 22.1695C6.4553 22.0574 6.53901 21.9826 6.63203 21.9266C6.72504 21.8705 6.82735 21.8518 6.93897 21.8705C7.04129 21.8799 7.1343 21.9172 7.21801 21.9826C7.29242 22.0387 7.35753 22.1228 7.41334 22.2255C7.45985 22.319 7.49706 22.4311 7.52496 22.5432C7.55286 22.6646 7.56217 22.7861 7.55286 22.9075C7.55286 23.029 7.53426 23.1411 7.50636 23.2439C7.47845 23.3466 7.44125 23.44 7.38544 23.5148C7.26452 23.7016 7.1064 23.8044 6.91107 23.8044H6.90177V23.8137ZM6.88316 21.9733C6.83666 21.9733 6.79015 21.9826 6.74364 21.992C6.70644 22.0107 6.66923 22.0294 6.63203 22.048C6.59482 22.0761 6.56692 22.1041 6.53901 22.1321C6.51111 22.1601 6.4925 22.1882 6.4739 22.2255C6.41809 22.3096 6.38089 22.3937 6.34368 22.4965C6.31578 22.5992 6.29717 22.702 6.28787 22.8048C6.27857 22.9075 6.28787 23.0103 6.30648 23.1131C6.32508 23.2158 6.35298 23.3093 6.39949 23.384C6.51111 23.5895 6.67853 23.6829 6.91107 23.6829H6.92037C7.07849 23.6829 7.19941 23.5989 7.30173 23.4494C7.34823 23.3747 7.37614 23.2906 7.40404 23.1971C7.43195 23.1037 7.44125 23.001 7.45055 22.8888C7.45055 22.7767 7.44125 22.6553 7.42264 22.5525C7.40404 22.4404 7.36684 22.347 7.32963 22.2629C7.31103 22.2349 7.29242 22.1975 7.27382 22.1695C7.24592 22.1415 7.22731 22.1041 7.19011 22.0761C7.16221 22.048 7.125 22.02 7.08779 22.0013C7.05059 21.9826 7.00408 21.9733 6.95757 21.964C6.94827 21.964 6.93897 21.964 6.92967 21.964H6.88316V21.9733Z" fill="black"/>
<path id="Vector_72" d="M67.6305 0.943604L67.5654 0.999658L67.6305 1.05571H70.5512V0.943604H67.6305Z" fill="black"/>
<path id="Vector_73" d="M77.8623 0.943604H74.9417V1.05571H77.8623L77.9181 0.999658L77.8623 0.943604Z" fill="black"/>
<path id="Vector_74" d="M77.5925 0.532715L77.5181 0.616796L77.8622 0.943778L77.918 0.999833L77.8622 1.05589L77.5181 1.37353L77.5925 1.45761L78.0855 0.999833L77.5925 0.532715Z" fill="black"/>
<path id="Vector_75" d="M67.6305 0.943778L67.9746 0.616796L67.9002 0.532715L67.4072 0.999833L67.9002 1.45761L67.9746 1.37353L67.6305 1.05589L67.5653 0.999833L67.6305 0.943778Z" fill="black"/>
<path id="Vector_76" d="M71.9279 1.97121C71.7884 1.97121 71.6675 1.93384 71.5559 1.86845C71.4535 1.81239 71.3698 1.71897 71.314 1.60686C71.2675 1.52278 71.2303 1.42001 71.2117 1.30791C71.1931 1.1958 71.1838 1.08369 71.1931 0.952896C71.2024 0.831445 71.221 0.719337 71.2582 0.616571C71.2954 0.504463 71.3419 0.411039 71.3977 0.326958C71.4721 0.21485 71.5559 0.140111 71.6489 0.084057C71.7419 0.0280029 71.8442 0.00931815 71.9558 0.0280029C72.0581 0.0373452 72.1511 0.0747146 72.2349 0.140111C72.3093 0.196165 72.3744 0.280246 72.4302 0.383012C72.4767 0.476436 72.5139 0.588544 72.5418 0.700652C72.5697 0.822103 72.579 0.943554 72.5697 1.065C72.5697 1.18645 72.5511 1.29856 72.5232 1.40133C72.4953 1.50409 72.4581 1.59752 72.4116 1.67226C72.2907 1.8591 72.1325 1.96187 71.9372 1.96187H71.9279V1.97121ZM71.9093 0.140111C71.8628 0.140111 71.8163 0.149453 71.7698 0.158796C71.7326 0.177481 71.6954 0.196165 71.6582 0.21485C71.621 0.242877 71.5931 0.270904 71.5652 0.298931C71.5373 0.326958 71.5187 0.354985 71.5001 0.392355C71.4442 0.476436 71.407 0.560517 71.3698 0.663283C71.3419 0.766049 71.3233 0.868815 71.314 0.971581C71.3047 1.07435 71.314 1.17711 71.3326 1.27988C71.3512 1.38264 71.3791 1.47607 71.4256 1.55081C71.5373 1.75634 71.7047 1.84976 71.9372 1.84976H71.9465C72.1046 1.84976 72.2256 1.76568 72.3279 1.6162C72.3744 1.54146 72.4023 1.45738 72.4302 1.36396C72.4581 1.27054 72.4674 1.16777 72.4767 1.05566C72.4767 0.943554 72.4674 0.822103 72.4488 0.719337C72.4302 0.607229 72.393 0.513805 72.3558 0.429724C72.3372 0.401697 72.3186 0.364328 72.2907 0.336301C72.2628 0.308273 72.2442 0.270904 72.207 0.242877C72.179 0.21485 72.1418 0.186823 72.0953 0.168138C72.0581 0.149453 72.0116 0.140111 71.9651 0.130769C71.9558 0.130769 71.9465 0.130769 71.9372 0.130769H71.9093V0.140111Z" fill="black"/>
<path id="Vector_77" d="M72.8772 1.9149C72.8772 1.93349 72.8678 1.94278 72.8585 1.95208C72.8492 1.96137 72.8305 1.97067 72.8211 1.97067C72.8025 1.97067 72.7931 1.96137 72.7838 1.95208C72.7745 1.94278 72.7651 1.92419 72.7651 1.9149C72.7651 1.89631 72.7745 1.88701 72.7838 1.87772C72.7931 1.86843 72.8118 1.85913 72.8211 1.85913C72.8398 1.85913 72.8492 1.86843 72.8585 1.87772C72.8772 1.88701 72.8772 1.89631 72.8772 1.9149Z" fill="black"/>
<path id="Vector_78" d="M73.7137 1.97102C73.6765 1.97102 73.6486 1.97102 73.6207 1.96167C73.4904 1.94299 73.3695 1.87759 73.2672 1.77483C73.2114 1.71877 73.1556 1.63469 73.1184 1.53193C73.0812 1.4385 73.0626 1.33574 73.0626 1.22363C73.0533 1.11152 73.0626 0.999412 73.0905 0.877962C73.1091 0.756511 73.1463 0.644403 73.2021 0.541637C73.2486 0.457556 73.2951 0.373475 73.3602 0.308078C73.416 0.242682 73.4904 0.186628 73.5555 0.139916C73.723 0.0371499 73.909 -0.000219537 74.1322 0.0278075C74.1508 0.0278075 74.1601 0.0371499 74.1694 0.0558346C74.1787 0.0651769 74.188 0.0838616 74.1787 0.093204C74.1787 0.111889 74.1694 0.121231 74.1508 0.130573C74.1415 0.139916 74.1229 0.139916 74.1136 0.139916C73.9927 0.121231 73.8811 0.130573 73.7974 0.149258C73.7044 0.177285 73.6299 0.214655 73.5648 0.261366C73.4997 0.308078 73.4439 0.364132 73.3974 0.420186C73.3509 0.476241 73.323 0.532295 73.2951 0.588349C73.2486 0.681772 73.2207 0.784538 73.1928 0.887304C73.1742 0.999412 73.1649 1.10218 73.1649 1.21429C73.1649 1.22363 73.1649 1.23297 73.1649 1.24231C73.1649 1.25166 73.1649 1.261 73.1649 1.27034C73.2672 1.14889 73.3881 1.07415 73.5183 1.02744C73.5834 0.999412 73.6579 0.99007 73.723 0.99007C73.7881 0.99007 73.8625 0.999412 73.9276 1.0181C74.0299 1.05547 74.1136 1.11152 74.1787 1.18626C74.2438 1.261 74.2811 1.35442 74.2811 1.44785C74.2811 1.54127 74.2531 1.63469 74.188 1.71877C74.1601 1.76549 74.1229 1.80285 74.0857 1.83088C74.0485 1.86825 74.002 1.89628 73.9555 1.91496C73.8811 1.95233 73.7974 1.97102 73.7137 1.97102ZM73.2021 1.42916C73.23 1.55061 73.2765 1.63469 73.3416 1.70009C73.3974 1.75614 73.4532 1.79351 73.5183 1.82154C73.5741 1.84957 73.63 1.85891 73.6858 1.85891C73.7323 1.85891 73.7788 1.85891 73.8253 1.84957C73.8625 1.84022 73.8997 1.83088 73.9183 1.82154C74.002 1.78417 74.0671 1.73746 74.1136 1.67206C74.1601 1.60667 74.188 1.53193 74.188 1.46653C74.188 1.40113 74.1601 1.33574 74.1136 1.27968C74.0578 1.22363 73.9927 1.17692 73.909 1.14889C73.7881 1.11152 73.6672 1.11152 73.5462 1.16757C73.416 1.20494 73.3044 1.28903 73.2021 1.42916C73.2021 1.41982 73.2021 1.41982 73.2021 1.42916Z" fill="black"/>
<path id="Vector_79" d="M93.3863 44.5071H74.4766V44.6192H93.3863L93.4514 44.5631L93.3863 44.5071Z" fill="black"/>
<path id="Vector_80" d="M45.8561 44.5071L45.8003 44.5631L45.8561 44.6192H64.7286V44.5071H45.8561Z" fill="black"/>
<path id="Vector_81" d="M93.1257 44.1052L93.0513 44.1893L93.3861 44.5069L93.4512 44.563L93.3861 44.6191L93.0513 44.9367L93.1257 45.0208L93.6094 44.563L93.1257 44.1052Z" fill="black"/>
<path id="Vector_82" d="M45.856 44.5069L46.2002 44.1893L46.1258 44.1052L45.6328 44.563L46.1258 45.0208L46.2002 44.9367L45.856 44.6191L45.8002 44.563L45.856 44.5069Z" fill="black"/>
<path id="Vector_83" d="M69.4723 45.5346C69.4444 45.5346 69.4258 45.5253 69.4165 45.4972C69.3979 45.4319 69.3514 45.3665 69.2769 45.2917C69.2397 45.2543 69.1932 45.217 69.1467 45.1889C69.1002 45.1609 69.0537 45.1236 68.9979 45.1049C68.8956 45.2357 68.7747 45.3478 68.6258 45.4319C68.5607 45.4692 68.4956 45.4972 68.4398 45.5159C68.384 45.5346 68.3375 45.544 68.291 45.544C68.2445 45.544 68.2166 45.544 68.1887 45.5253C68.1608 45.5159 68.1329 45.5066 68.1236 45.4972C68.0864 45.4692 68.0492 45.4319 68.0305 45.3851C68.0119 45.3384 68.0026 45.2917 68.012 45.2357C68.0213 45.1703 68.0492 45.1049 68.0957 45.0488C68.1422 44.9928 68.198 44.9554 68.2724 44.9274C68.3933 44.8807 68.5235 44.862 68.663 44.8807C68.7561 44.89 68.8584 44.918 68.9607 44.9647C69.0351 44.8433 69.0909 44.7125 69.1188 44.5724C69.1467 44.4322 69.1467 44.3108 69.1281 44.1893C69.1002 44.0585 69.0537 43.9558 68.9793 43.8717C68.9049 43.7876 68.8119 43.7409 68.7003 43.7222C68.6351 43.7129 68.5793 43.7129 68.5235 43.7129C68.4677 43.7222 68.4212 43.7315 68.384 43.7502C68.3468 43.7689 68.3096 43.7876 68.2817 43.8156C68.2538 43.8437 68.2445 43.8717 68.2352 43.8997C68.2259 43.9558 68.2352 44.0025 68.291 44.0585C68.3375 44.1052 68.4119 44.1519 68.5049 44.18C68.5235 44.18 68.5328 44.1893 68.5328 44.208C68.5421 44.2267 68.5421 44.236 68.5328 44.2547C68.5235 44.2734 68.5142 44.2827 68.5049 44.2827C68.4956 44.2921 68.477 44.2921 68.4584 44.2827C68.3282 44.236 68.2352 44.18 68.1701 44.1052C68.1143 44.0305 68.0864 43.9464 68.1143 43.8717C68.1422 43.7783 68.2073 43.7035 68.3189 43.6475C68.4305 43.6008 68.5607 43.5821 68.7096 43.6101C68.8491 43.6381 68.9607 43.7035 69.0537 43.8063C69.1374 43.8997 69.1932 44.0305 69.2211 44.1706C69.2397 44.2827 69.2397 44.3949 69.2304 44.5163C69.2118 44.6378 69.1839 44.7499 69.1281 44.862C69.1188 44.89 69.1002 44.918 69.0909 44.9367C69.0816 44.9647 69.063 44.9834 69.0444 45.0114C69.1653 45.0768 69.2676 45.1422 69.3421 45.2263C69.4258 45.3104 69.4816 45.3945 69.5002 45.4692C69.5002 45.4879 69.5002 45.4972 69.4909 45.5159C69.4816 45.5253 69.4723 45.5346 69.4537 45.544C69.4816 45.5346 69.4816 45.5346 69.4723 45.5346ZM68.5421 44.9741C68.4584 44.9741 68.384 44.9928 68.3096 45.0208C68.2445 45.0488 68.198 45.0768 68.1701 45.1236C68.1422 45.1703 68.1236 45.2076 68.1236 45.245C68.1236 45.273 68.1236 45.3104 68.1329 45.3291C68.1422 45.3571 68.1608 45.3758 68.1887 45.3945C68.2259 45.4225 68.2817 45.4319 68.3561 45.4225C68.4212 45.4132 68.4956 45.3851 68.5793 45.3291C68.6444 45.2917 68.7002 45.245 68.7561 45.2076C68.8119 45.1609 68.8584 45.1142 68.8956 45.0582C68.7654 45.0021 68.6537 44.9741 68.5421 44.9741Z" fill="black"/>
<path id="Vector_84" d="M69.7983 45.4781C69.7983 45.4967 69.789 45.506 69.7796 45.5153C69.7703 45.5246 69.7516 45.5339 69.7423 45.5339C69.7236 45.5339 69.7143 45.5246 69.705 45.5153C69.6956 45.506 69.6863 45.4874 69.6863 45.4781C69.6863 45.4595 69.6956 45.4502 69.705 45.441C69.7143 45.4317 69.733 45.4224 69.7423 45.4224C69.761 45.4224 69.7703 45.4317 69.7796 45.441C69.789 45.4502 69.7983 45.4688 69.7983 45.4781Z" fill="black"/>
<path id="Vector_85" d="M71.1928 43.6285C71.2021 43.6565 71.1928 43.6752 71.1742 43.6939C71.137 43.7313 71.0998 43.7686 71.0719 43.7967C71.044 43.834 71.0068 43.8714 70.9696 43.9275C70.9324 43.9835 70.8952 44.0396 70.8487 44.1143C70.8208 44.161 70.7929 44.2264 70.7557 44.2918C70.7278 44.3572 70.6999 44.4319 70.672 44.5067L71.0161 44.516C71.0347 44.516 71.044 44.5254 71.0533 44.5347C71.0626 44.544 71.0719 44.5627 71.0719 44.5721C71.0719 44.5908 71.0626 44.6001 71.0533 44.6094C71.044 44.6188 71.0254 44.6281 71.0161 44.6281L70.6348 44.6188C70.5976 44.7402 70.5603 44.871 70.5324 45.0112C70.5045 45.1513 70.4859 45.3195 70.4766 45.4876C70.4766 45.525 70.458 45.5437 70.4208 45.5437C70.4022 45.5437 70.3929 45.5343 70.3836 45.525C70.3743 45.5157 70.365 45.497 70.365 45.4876C70.3743 45.3381 70.3929 45.1887 70.4115 45.0485C70.4394 44.9084 70.4673 44.7683 70.5045 44.6375V44.6281V44.6188L70.2162 44.6094C70.1976 44.6094 70.1883 44.6001 70.179 44.5908C70.1697 44.5814 70.1604 44.5627 70.1604 44.5534C70.1604 44.5347 70.1697 44.5254 70.179 44.516C70.1883 44.5067 70.2069 44.4973 70.2162 44.4973L70.5324 44.5067C70.5603 44.4319 70.5882 44.3479 70.6255 44.2731C70.6627 44.1984 70.6999 44.1236 70.7371 44.0582C70.7836 43.9742 70.8301 43.9088 70.8673 43.8527C70.9138 43.7967 70.951 43.7499 70.9789 43.7126L70.1139 43.7219L70.0395 43.9275C70.0395 43.9461 70.0302 43.9555 70.0116 43.9555C69.993 43.9648 69.9837 43.9648 69.9651 43.9555C69.9465 43.9461 69.9372 43.9368 69.9372 43.9275C69.9279 43.9181 69.9279 43.8994 69.9372 43.8807L70.0209 43.6285C70.0302 43.6005 70.0488 43.5911 70.0767 43.5911L71.1184 43.5818C71.1649 43.5911 71.1835 43.6005 71.1928 43.6285Z" fill="black"/>
</g>
</g>
<defs>
<clipPath id="clip0_399_383">
<rect width="139.065" height="45.5346" fill="white"/>
</clipPath>
</defs>
</svg>
