<svg width="65" height="65" viewBox="0 0 65 65" fill="none" xmlns="http://www.w3.org/2000/svg">
<g id="achievement">
<path id="Vector" fill-rule="evenodd" clip-rule="evenodd" d="M39.161 39.3486C39.3084 39.6907 39.6336 39.9226 40.0051 39.9502C40.0301 39.9521 40.0549 39.953 40.0798 39.953C40.4238 39.953 40.746 39.7756 40.9293 39.4802L43.3521 35.5759L47.8536 36.4977C48.219 36.5722 48.5949 36.4381 48.83 36.1492C49.0651 35.8604 49.1201 35.4646 48.9729 35.1225L45.6297 27.3605C45.732 27.3171 45.8366 27.2725 45.9469 27.2254C47.6709 26.4871 48.6795 24.7399 48.457 22.8777C48.4156 22.5319 48.377 22.2241 48.3424 21.9479C48.2035 20.8397 48.1336 20.2835 48.2086 19.8585C48.2836 19.4335 48.5394 18.9346 49.049 17.9409C49.1761 17.693 49.3176 17.4171 49.4747 17.1061C50.3209 15.4324 49.9705 13.4455 48.603 12.1622C48.3491 11.9239 48.1216 11.713 47.9176 11.5235C47.0988 10.764 46.6878 10.3827 46.4721 10.009C46.2563 9.63525 46.1316 9.08875 45.8833 8C45.8213 7.7285 45.7522 7.426 45.6727 7.08675C45.245 5.26075 43.6995 3.964 41.827 3.85987C41.4793 3.8405 41.1695 3.82512 40.8914 3.81125C39.7759 3.75575 39.216 3.72787 38.8105 3.58025C38.405 3.43262 37.9583 3.09412 37.068 2.41962C36.8461 2.25137 36.5988 2.06412 36.32 1.85537C34.8185 0.731622 32.8013 0.731497 31.2998 1.85537C31.021 2.06412 30.7736 2.25137 30.5518 2.41962C29.6615 3.09412 29.2148 3.43262 28.8093 3.58025C28.4038 3.72787 27.8438 3.75575 26.7284 3.81125C26.4501 3.82512 26.1405 3.8405 25.7928 3.85987C23.9203 3.964 22.3746 5.26087 21.947 7.08675C21.8675 7.426 21.7985 7.72837 21.7365 8C21.4881 9.08875 21.3635 9.63537 21.1476 10.009C20.9319 10.3827 20.5209 10.764 19.7021 11.5235C19.498 11.713 19.2706 11.9239 19.0168 12.1622C17.6494 13.4456 17.2989 15.4325 18.1449 17.1062C18.302 17.417 18.4435 17.6929 18.5705 17.9406C19.0801 18.9345 19.336 19.4334 19.411 19.8584C19.486 20.2832 19.4161 20.8395 19.2773 21.9475C19.2426 22.2239 19.204 22.5317 19.1626 22.8777C18.9401 24.7399 19.9488 26.4871 21.6728 27.2254C21.993 27.3625 22.2788 27.483 22.5354 27.5911C22.6134 27.624 22.6874 27.6552 22.7596 27.6857L18.6588 36.4937C18.5015 36.8315 18.5451 37.2285 18.7716 37.5242C18.9983 37.8199 19.3704 37.9655 19.7375 37.9009L24.2641 37.11L26.5728 41.0829C26.7524 41.3917 27.0821 41.5804 27.4373 41.5804C27.4523 41.5804 27.4675 41.58 27.4826 41.5794C27.8549 41.5625 28.1868 41.3401 28.344 41.0025L32.4251 32.2364C33.0799 32.0396 33.4768 31.9405 33.8101 31.9405C34.2416 31.9405 34.7774 32.1057 35.8446 32.4351C35.9681 32.4732 36.0989 32.5136 36.236 32.5556L39.161 39.3486ZM43.0705 33.4766C42.6603 33.3927 42.241 33.5732 42.0201 33.929L40.24 36.7977L38.5405 32.8516C39.707 32.6897 40.7746 32.0361 41.4571 30.9924C41.6478 30.7007 41.816 30.4402 41.9671 30.2062C42.573 29.268 42.877 28.7971 43.2076 28.5196C43.356 28.3951 43.5424 28.2826 43.7951 28.1572L46.3779 34.1539L43.0705 33.4766ZM27.3386 38.4215L25.6425 35.5025C25.432 35.1404 25.0183 34.948 24.6058 35.0199L21.28 35.6009L24.5273 28.6264C24.8174 28.9146 25.1171 29.3784 25.6518 30.2064C25.8029 30.4404 25.9711 30.7009 26.1618 30.9924C27.0055 32.2827 28.4371 32.9779 29.9171 32.8831L27.3386 38.4215ZM33.8094 29.9395C33.1289 29.9395 32.4481 30.1344 31.1851 30.5241C30.9223 30.6052 30.6298 30.6955 30.3005 30.795C29.3484 31.0825 28.3804 30.7307 27.8355 29.8977C27.6471 29.6099 27.481 29.3525 27.3319 29.1215C25.8978 26.9007 25.7475 26.7747 23.3114 25.7481C23.058 25.6414 22.7758 25.5224 22.4595 25.3869C21.5446 24.995 21.0298 24.1032 21.1479 23.115C21.1888 22.7734 21.2269 22.4692 21.2611 22.1964C21.59 19.5736 21.5559 19.3804 20.3495 17.0279C20.224 16.7831 20.0844 16.5107 19.9293 16.2039C19.4803 15.3156 19.6591 14.3016 20.3849 13.6205C20.6358 13.3851 20.8603 13.1769 21.0619 12.9897C23 11.1919 23.098 11.022 23.686 8.44487C23.7471 8.17662 23.8153 7.878 23.8938 7.54287C24.1206 6.57387 24.9095 5.912 25.9033 5.85675C26.2468 5.83762 26.5526 5.82237 26.8274 5.80875C29.4676 5.67725 29.6521 5.61012 31.7591 4.01375C31.9784 3.84762 32.2225 3.66262 32.4979 3.4565C33.2948 2.86012 34.3243 2.86012 35.1211 3.4565C35.3965 3.66262 35.6406 3.84762 35.8599 4.01375C37.9669 5.61012 38.1514 5.67725 40.7916 5.80875C41.0663 5.82237 41.3723 5.83762 41.7158 5.85675C42.7095 5.912 43.4983 6.57387 43.7253 7.54287C43.8038 7.87787 43.8719 8.1765 43.933 8.44475C44.521 11.0219 44.619 11.1919 46.5571 12.9896C46.7588 13.1767 46.9832 13.385 47.2341 13.6204C47.9599 14.3015 48.1385 15.3155 47.6896 16.2037C47.5345 16.5107 47.3948 16.7834 47.2691 17.0281C46.063 19.3804 46.0289 19.5736 46.3579 22.1966C46.392 22.4695 46.4303 22.7734 46.471 23.1149C46.5891 24.1031 46.0742 24.995 45.1594 25.3867C44.8431 25.5221 44.5609 25.6411 44.3075 25.748C41.8715 26.7746 41.7213 26.9007 40.2871 29.1214C40.138 29.3525 39.9719 29.6097 39.7835 29.8977C39.2389 30.7306 38.2716 31.083 37.3185 30.795C36.9893 30.6955 36.6966 30.6051 36.4339 30.5241C35.1706 30.1344 34.4899 29.9395 33.8094 29.9395ZM43.734 16.9517C43.734 11.4792 39.2819 7.02712 33.8094 7.02712C28.337 7.02712 23.8849 11.4792 23.8849 16.9517C23.8849 22.4242 28.337 26.8765 33.8094 26.8765C39.2818 26.8765 43.734 22.4244 43.734 16.9517ZM33.8093 24.8765C29.4396 24.8765 25.8848 21.3215 25.8848 16.9517C25.8848 12.5821 29.4396 9.02712 33.8093 9.02712C38.1789 9.02712 41.7339 12.5821 41.7339 16.9517C41.734 21.3215 38.1789 24.8765 33.8093 24.8765ZM39.3015 14.5939L32.4729 20.791C32.2819 20.9644 32.0413 21.0505 31.801 21.0505C31.5445 21.0505 31.2885 20.9524 31.0938 20.7576L28.2823 17.9461C27.8918 17.5556 27.8918 16.9225 28.2823 16.532C28.6729 16.1415 29.3059 16.1415 29.6965 16.532L31.8344 18.6699L37.9575 13.113C38.3664 12.742 38.9989 12.7725 39.37 13.1815C39.7411 13.5902 39.7105 14.2227 39.3015 14.5939ZM58.2859 47.3584C59.604 46.0405 60.2734 44.3779 60.2217 42.5502L59.7347 25.3586C59.6867 23.661 57.999 22.1399 56.1791 22.1399C56.1616 22.1399 56.1442 22.14 56.1269 22.1402C55.239 22.1545 52.3441 22.6327 52.3651 28.1894L52.4007 37.528C52.4016 37.7415 52.3881 37.9489 52.3604 38.151C52.2899 38.0667 52.2144 37.9844 52.1339 37.9039C50.8996 36.6697 48.8784 36.6541 47.5321 37.8682C47.4986 37.8984 47.4671 37.9307 47.4381 37.9651C45.9318 39.7461 44.0809 41.3061 42.5935 42.5595C42.0719 42.9991 41.5794 43.4142 41.1749 43.7787C39.4788 45.3075 39.2524 47.4139 39.2546 49.2726L39.2626 55.9234L38.4003 55.916C37.8164 55.9106 37.2661 56.1342 36.8486 56.5445C36.4311 56.9549 36.1984 57.5021 36.1934 58.0852L36.171 60.6867C36.166 61.2699 36.3893 61.821 36.7996 62.2385C37.2099 62.656 37.7571 62.8886 38.3403 62.8936L51.8547 63.0097C51.8611 63.0097 51.8675 63.0099 51.8739 63.0099C52.4499 63.0099 52.9935 62.787 53.4064 62.3811C53.8239 61.9707 54.0565 61.4236 54.0615 60.8405L54.0839 58.239C54.0889 57.6559 53.8656 57.1047 53.4552 56.6872C53.045 56.2697 52.4977 56.0371 51.9146 56.0321L50.8027 56.0226V54.8415L58.2859 47.3584ZM52.0839 58.2219L52.0615 60.8234C52.061 60.8861 52.0301 60.9296 52.0042 60.955C51.9785 60.9805 51.9382 61.0102 51.8717 61.01L38.3573 60.8939C38.2946 60.8934 38.2511 60.8625 38.2258 60.8366C38.2004 60.8107 38.1703 60.7669 38.1709 60.7041L38.1933 58.1026C38.1938 58.0399 38.2246 57.9964 38.2505 57.971C38.276 57.9459 38.3195 57.916 38.3811 57.916H38.3829H38.383L51.8975 58.0321C51.9995 58.0331 52.0849 58.1199 52.0839 58.2219ZM41.2626 55.9407L41.2546 49.2704C41.2521 47.2335 41.617 46.073 42.514 45.2645C42.8936 44.9222 43.3518 44.5361 43.8823 44.0891C45.4113 42.8004 47.3106 41.1997 48.9157 39.3151C49.4771 38.8442 50.2435 38.8421 50.7196 39.3182C51.2264 39.8249 51.227 40.4276 50.7239 41.1099C49.9287 42.0036 49.0927 42.8132 48.2081 43.6692C47.7835 44.0802 47.3442 44.5052 46.9012 44.9484C46.5107 45.3389 46.5107 45.972 46.9014 46.3625C47.0966 46.5577 47.3524 46.6554 47.6084 46.6554C47.8644 46.6554 48.1204 46.5577 48.3155 46.3624C48.7469 45.931 49.18 45.5117 49.599 45.1064C50.5232 44.212 51.3961 43.3672 52.2512 42.4025C52.2557 42.3974 52.921 41.5836 52.921 41.5836C53.9224 40.3509 54.4064 39.0217 54.4007 37.5206L54.3651 28.1819C54.3557 25.7067 55.0431 24.158 56.1589 24.1401C56.1657 24.14 56.1724 24.14 56.1791 24.14C56.9217 24.14 57.7179 24.7894 57.7355 25.4154L58.2225 42.607C58.2587 43.889 57.8042 45.0119 56.8716 45.9442L49.0956 53.7202C48.9081 53.9077 48.8027 54.1621 48.8027 54.4272V56.0055L41.2626 55.9407ZM39.1553 59.1196C39.3201 58.7047 39.7903 58.5021 40.2051 58.6671C40.62 58.832 40.8226 59.3021 40.6578 59.717C40.4928 60.1319 40.0228 60.3345 39.6079 60.1695C39.1929 60.0045 38.9903 59.5345 39.1553 59.1196ZM28.1514 56.5447C27.7339 56.1342 27.1824 55.9117 26.5996 55.9162L25.7374 55.9236L25.7454 49.2729C25.7476 47.414 25.5213 45.3076 23.8251 43.779C23.4209 43.4144 22.9281 42.9994 22.4066 42.5599C20.9194 41.3064 19.0684 39.7464 17.562 37.9654C17.533 37.931 17.5016 37.8986 17.4681 37.8685C16.1213 36.6544 14.0999 36.6701 12.8663 37.9041C12.7857 37.9846 12.7103 38.067 12.6398 38.1512C12.6119 37.9491 12.5985 37.7419 12.5994 37.5284L12.635 28.1895C12.656 22.6329 9.76116 22.1547 8.87328 22.1404C8.85578 22.1401 8.83866 22.14 8.82103 22.14C7.00116 22.14 5.31328 23.6612 5.26541 25.3587L4.77841 42.5505C4.72679 44.3781 5.39616 46.0406 6.71416 47.3585L14.1973 54.8417V56.0229L13.0854 56.0324C12.5023 56.0374 11.955 56.27 11.5448 56.6875C11.1344 57.105 10.9112 57.6561 10.9162 58.2392L10.9385 60.8407C10.9435 61.4239 11.1762 61.971 11.5937 62.3814C12.0065 62.7872 12.55 63.0101 13.1262 63.0101C13.1325 63.0101 13.139 63.0101 13.1453 63.01L26.6598 62.8939C27.2429 62.8889 27.7901 62.6562 28.2004 62.2387C28.6108 61.8212 28.834 61.2701 28.829 60.687L28.8066 58.0855C28.8018 57.5024 28.5689 56.9551 28.1514 56.5447ZM16.1973 54.4272C16.1973 54.162 16.0919 53.9077 15.9044 53.7202L8.12828 45.9441C7.19578 45.0117 6.74128 43.889 6.77753 42.607L7.26453 25.4152C7.28241 24.7835 8.09803 24.1292 8.84116 24.1401C9.95691 24.158 10.6443 25.7067 10.6349 28.1817L10.5993 37.5206C10.5937 39.0217 11.0777 40.3507 12.0808 41.5857L12.7228 42.3717C12.7272 42.3771 12.7444 42.3974 12.7489 42.4025C13.604 43.3672 14.4769 44.212 15.4012 45.1064C15.8202 45.5119 16.2532 45.931 16.6847 46.3624C16.8799 46.5576 17.1358 46.6554 17.3918 46.6554C17.6476 46.6554 17.9036 46.5577 18.0988 46.3625C18.4894 45.972 18.4894 45.3389 18.0989 44.9484C17.6559 44.5054 17.2167 44.0802 16.792 43.6692C15.9074 42.8131 15.0714 42.0036 14.2763 41.1099C13.7733 40.4277 13.7738 39.825 14.2805 39.3184C14.7569 38.8421 15.523 38.8442 16.0845 39.3151C17.6895 41.1999 19.5888 42.8005 21.118 44.0892C21.6484 44.5364 22.1065 44.9224 22.4863 45.2647C23.3831 46.073 23.748 47.2336 23.7455 49.2705L23.7375 55.9409L16.1974 56.0056L16.1973 54.4272ZM26.7741 60.8367C26.7488 60.8626 26.7053 60.8935 26.6426 60.894L13.1282 61.0101C13.0643 61.0102 13.0214 60.9806 12.9957 60.9551C12.9698 60.9297 12.9389 60.8864 12.9384 60.8235L12.916 58.222C12.9154 58.1592 12.9455 58.1152 12.9709 58.0895C12.9963 58.0637 13.0398 58.0327 13.1024 58.0322L26.6168 57.9161H26.6186C26.6804 57.9161 26.7239 57.946 26.7494 57.9711C26.7753 57.9965 26.8061 58.04 26.8066 58.1027L26.829 60.7042C26.8296 60.767 26.7995 60.8109 26.7741 60.8367ZM25.8448 59.1196C26.0098 59.5345 25.8071 60.0045 25.3923 60.1695C24.9774 60.3345 24.5073 60.1319 24.3424 59.717C24.1774 59.3021 24.38 58.8321 24.7949 58.6671C25.2098 58.5021 25.6798 58.7047 25.8448 59.1196Z" fill="black"/>
</g>
</svg>
