<svg width="65" height="65" viewBox="0 0 65 65" fill="none" xmlns="http://www.w3.org/2000/svg">
<g id="blueprint (1)" clip-path="url(#clip0_819_961)">
<path id="Vector" d="M55.9668 16.0112H58.1001V30.9446H55.9668V16.0112Z" fill="black"/>
<path id="Vector_2" d="M0.646354 52.2607C0.69375 52.4659 0.75625 52.6674 0.833854 52.8633C0.864583 52.9378 0.911979 53.0029 0.946875 53.0768C1.25625 53.7622 1.75729 54.344 2.38906 54.7523C2.54479 54.8503 2.70625 54.9383 2.87344 55.0159C2.95521 55.0565 3.03021 55.1096 3.11562 55.1461C3.30573 55.2195 3.50104 55.2794 3.7 55.3253C3.77448 55.3445 3.84271 55.3763 3.91875 55.3914C4.19791 55.4482 4.48177 55.4773 4.76666 55.4779H33.5667V53.3445H4.76666C4.62344 53.3445 4.48021 53.33 4.3401 53.3018C4.28854 53.2909 4.24062 53.2695 4.19062 53.256C4.10625 53.2352 4.02344 53.2096 3.94219 53.1789C3.86927 53.144 3.79791 53.1049 3.72864 53.0628C3.68073 53.0352 3.62969 53.0138 3.58385 52.9836C3.46927 52.9055 3.36198 52.8164 3.26354 52.718C3.16562 52.6201 3.07708 52.5133 2.99896 52.3982C2.95885 52.3372 2.92864 52.269 2.89271 52.2039C2.85625 52.1388 2.8276 52.0971 2.80312 52.0367C2.76771 51.9471 2.73906 51.8549 2.71771 51.7612C2.70573 51.7195 2.6875 51.6805 2.67917 51.6367C2.55156 51.0096 2.71198 50.3581 3.11667 49.8622C3.52083 49.3664 4.12656 49.0784 4.76666 49.0779H7.96666C8.55573 49.0779 9.03333 48.6003 9.03333 48.0112V10.6779H46.3666V8.54453H9.03333V3.2112C9.03333 2.62161 8.55573 2.14453 7.96666 2.14453H4.76666C2.41042 2.14453 0.5 4.05443 0.5 6.4112V51.2112C0.5 51.4977 0.529167 51.7836 0.586458 52.0643C0.600521 52.1305 0.629167 52.1935 0.646354 52.2607ZM2.63333 6.4112C2.63333 5.23255 3.58854 4.27786 4.76666 4.27786H6.9V46.9445H4.76666C4.01719 46.943 3.28125 47.1409 2.63333 47.5169V6.4112Z" fill="black"/>
<path id="Vector_3" d="M29.5281 24.1894L27.2531 21.3446H36.7667V19.2112H25.0333C24.7172 19.2128 24.4188 19.3545 24.2172 19.5982C24.2172 19.6045 24.2047 19.6055 24.2005 19.6112L15.6672 30.2779C15.6115 30.3498 15.5646 30.429 15.5281 30.5123C15.5281 30.5196 15.5198 30.5253 15.5167 30.5326C15.4703 30.6498 15.4448 30.7743 15.4417 30.9008C15.4417 30.9165 15.4333 30.9295 15.4333 30.9446V43.7446C15.4333 44.3336 15.911 44.8112 16.5 44.8112H44.2333V42.6779H34.6333V32.0112H49.5667V38.4112H51.7V30.9446C51.7 30.9295 51.6917 30.9165 51.6917 30.9008C51.6885 30.7748 51.6635 30.6508 51.6167 30.5336C51.6167 30.5243 51.6063 30.5175 51.6031 30.5092C51.5677 30.4269 51.5219 30.3493 51.4662 30.279L48.2662 26.2743L46.6005 27.6055L48.4135 29.8779H34.0797L29.5281 24.1894ZM25.0333 21.9842L29.2422 27.2461L31.3469 29.8779H18.7198L25.0333 21.9842ZM17.5667 32.0112H32.5V42.6779H29.3V35.2112C29.3 34.6217 28.8224 34.1446 28.2333 34.1446H21.8333C21.2443 34.1446 20.7667 34.6217 20.7667 35.2112V42.6779H17.5667V32.0112ZM22.9 42.6779V36.2779H27.1667V42.6779H22.9Z" fill="black"/>
<path id="Vector_4" d="M39.9666 34.1445C39.3775 34.1445 38.8999 34.6216 38.8999 35.2112V39.4779C38.8999 40.0669 39.3775 40.5445 39.9666 40.5445H44.2332C44.8223 40.5445 45.2999 40.0669 45.2999 39.4779V35.2112C45.2999 34.6216 44.8223 34.1445 44.2332 34.1445H39.9666ZM43.1666 38.4112H41.0332V36.2779H43.1666V38.4112Z" fill="black"/>
<path id="Vector_5" d="M63.8416 28.8919C63.4431 28.7268 62.9843 28.8185 62.6791 29.1237L29.6124 62.1903C29.3078 62.495 29.2161 62.9539 29.3812 63.3523C29.5463 63.7508 29.9354 64.0107 30.3666 64.0112H63.4333C64.0223 64.0112 64.4999 63.5336 64.4999 62.9445V29.8778C64.4999 29.4461 64.24 29.057 63.8416 28.8919ZM62.3666 61.8778H32.9416L62.3666 32.4523V61.8778Z" fill="black"/>
<path id="Vector_6" d="M45.3813 56.9529C45.5464 57.3513 45.9355 57.6112 46.3667 57.6112H57.0334C57.6224 57.6112 58.1 57.1336 58.1 56.5446V45.8779C58.1 45.4461 57.8401 45.0576 57.4417 44.8925C57.0433 44.7274 56.5844 44.8185 56.2792 45.1237L45.6126 55.7904C45.3073 56.0951 45.2162 56.5539 45.3813 56.9529ZM55.9667 48.4524V55.4779H48.9417L55.9667 48.4524Z" fill="black"/>
<path id="Vector_7" d="M59.9208 0.323731C59.5041 -0.0929362 58.8291 -0.0929362 58.4124 0.323731L39.2125 19.5237C39.0958 19.6409 39.0078 19.7836 38.9552 19.9404L37.8885 23.1404C37.7609 23.5237 37.8604 23.9461 38.1458 24.2315L38.4583 24.5446L36.0125 26.9904L37.5208 28.4982L39.9666 26.0524L40.2791 26.3649C40.4791 26.5654 40.7505 26.6774 41.0333 26.6779C41.1479 26.6774 41.2614 26.6592 41.3703 26.6232L44.5703 25.5565C44.7276 25.5039 44.8703 25.4159 44.9874 25.2982L64.1874 6.09821C64.6036 5.68206 64.6036 5.00654 64.1874 4.5904L59.9208 0.323731ZM42.0083 19.7446L46.3666 15.3857L49.1249 18.1446L44.7666 22.5029L42.0083 19.7446ZM41.3223 24.3909L40.1213 23.1899L40.6994 21.4519L43.0598 23.8118L41.3223 24.3909ZM50.6333 16.6362L47.8749 13.8779L59.1666 2.58571L61.9249 5.34456L50.6333 16.6362Z" fill="black"/>
<path id="Vector_8" d="M11.1667 44.8112V48.0112C11.1667 48.6003 11.6444 49.0779 12.2334 49.0779H15.4334V46.9446H13.3001V44.8112H11.1667Z" fill="black"/>
<path id="Vector_9" d="M15.4334 12.8112H12.2334C11.6444 12.8112 11.1667 13.2883 11.1667 13.8779V17.0779H13.3001V14.9446H15.4334V12.8112Z" fill="black"/>
</g>
<defs>
<clipPath id="clip0_819_961">
<rect width="64" height="64" fill="white" transform="translate(0.5 0.0112305)"/>
</clipPath>
</defs>
</svg>
