<svg width="248" height="21" viewBox="0 0 248 21" fill="none" xmlns="http://www.w3.org/2000/svg">
<g id="Frame" clip-path="url(#clip0_399_664)">
<g id="Group">
<path id="Vector" d="M183.014 1.72374C191.866 1.72374 200.721 1.72374 209.574 1.72374C209.902 1.72374 210.229 1.71573 210.557 1.7264C210.897 1.73441 211.215 1.68371 211.456 1.43825C211.948 0.939315 212.576 0.859272 213.251 0.861941C214.892 0.869945 216.53 0.856604 218.17 0.853936C221.23 0.851268 224.29 0.845932 227.35 0.856604C228.163 0.859272 228.981 0.800574 229.786 1.05671C230.131 1.1661 230.543 1.0914 230.926 1.09673C232.183 1.11808 233.44 1.13942 234.695 1.16077C235.248 1.17144 235.848 1.24615 236.089 1.74508C236.315 2.212 235.855 2.63089 235.601 3.00709C235.144 3.68479 234.486 4.13036 233.62 4.26643C232.93 4.37582 232.247 4.5199 231.561 4.65597C231.482 4.67198 231.414 4.72801 231.34 4.76803C231.444 4.79471 231.546 4.84274 231.65 4.84274C233.016 4.84808 234.397 4.97081 235.746 4.82406C239.177 4.4532 242.613 4.6373 246.046 4.59461C246.602 4.5866 247.128 4.64263 247.628 4.8961C247.857 5.01083 247.941 5.17892 247.941 5.39237C247.941 5.59781 247.933 5.81659 247.857 6.00336C247.11 7.823 246.412 8.27391 244.284 8.34328C244.119 8.34862 243.956 8.35395 243.791 8.35129C241.5 8.33528 239.23 8.70347 236.934 8.66612C234.695 8.63144 232.445 8.57541 230.215 8.74083C225.69 9.07701 221.154 8.79953 216.636 9.05833C213.584 9.23443 210.534 9.22375 207.481 9.26644C204.421 9.30913 201.354 9.19174 198.301 9.36516C193.558 9.63731 188.801 9.40785 184.067 9.68267C180.741 9.87744 177.409 9.73336 174.097 9.99216C171.317 10.2109 168.531 10.0509 165.765 10.2883C163.152 10.5124 160.526 10.3737 157.929 10.6165C155.64 10.8299 153.347 10.7019 151.072 10.91C148.842 11.1128 146.6 11.022 144.383 11.2408C142.641 11.4116 140.891 11.3289 139.167 11.529C137.102 11.7691 135.02 11.641 132.971 11.8652C131.175 12.0599 129.37 11.9505 127.592 12.1613C125.69 12.3854 123.773 12.2707 121.886 12.4868C120.146 12.6869 118.394 12.5882 116.672 12.791C114.933 12.9964 113.183 12.9004 111.459 13.0978C109.556 13.3139 107.642 13.2126 105.755 13.4287C104.125 13.6154 102.481 13.5301 100.869 13.7355C99.2386 13.9436 97.5955 13.8422 95.983 14.0423C94.3526 14.2451 92.7121 14.1624 91.0995 14.3518C89.5251 14.5359 87.9353 14.4639 86.3786 14.6667C84.8575 14.8668 83.3236 14.7761 81.8228 14.9868C80.4642 15.1763 79.0954 15.0909 77.7571 15.2883C76.3451 15.4964 74.9281 15.4297 73.5263 15.5925C71.9544 15.7766 70.3672 15.7446 68.808 15.9367C67.5027 16.0994 66.2024 16.1074 64.9022 16.2035C63.9271 16.2755 62.9722 16.5023 61.9844 16.481C61.06 16.4623 60.1356 16.4863 59.2265 16.7184C58.9167 16.7985 58.5738 16.7558 58.2462 16.7718C57.1619 16.8225 56.0623 16.7264 54.9982 17.0359C54.9475 17.0519 54.889 17.0413 54.8357 17.0439C52.7152 17.1693 50.5973 17.2947 48.4768 17.4228C47.8801 17.4602 47.2808 17.4121 46.6967 17.6229C46.4529 17.711 46.1583 17.6736 45.8866 17.6896C44.5838 17.7643 43.2861 17.7963 41.9809 17.9538C39.9315 18.1992 37.8542 18.2312 35.7896 18.3673C35.3046 18.3993 34.8221 18.4794 34.337 18.5407C34.177 18.5621 34.017 18.5994 33.8545 18.6101C31.955 18.7382 30.0529 18.8582 28.1508 18.9863C27.5566 19.0263 26.9497 18.9703 26.3732 19.1891C26.1802 19.2638 25.944 19.2398 25.7256 19.2558C24.4787 19.3332 23.2318 19.3785 21.9824 19.5173C19.8239 19.7601 17.6374 19.7948 15.4636 19.9282C14.9785 19.9575 14.496 20.0456 14.011 20.0962C13.6326 20.1363 13.2542 20.1736 12.8758 20.195C11.6823 20.267 10.4913 20.3017 9.29771 20.4484C7.78672 20.6325 6.24271 20.5978 4.71394 20.5872C2.92615 20.5738 1.65895 19.6347 0.66093 18.314C0.439995 18.0285 0.310481 17.6763 0.130178 17.3561C-0.0272701 17.0733 0.0895461 16.8332 0.300323 16.6624C0.541574 16.465 0.815838 16.2675 1.11042 16.1715C2.1897 15.8193 3.28675 15.4804 4.43714 15.5205C5.32342 15.5525 6.15129 15.2456 7.02487 15.2376C7.89846 15.2323 8.79997 15.315 9.64054 15.1469C10.9408 14.8855 12.2537 15.0269 13.5412 14.8481C15.1106 14.6293 16.6825 14.584 18.257 14.5439C19.3642 14.1624 20.5273 14.3385 21.6625 14.2585C23.341 14.1411 25.0095 13.8716 26.7008 13.9223C27.8639 13.5461 29.0854 13.7702 30.2637 13.5994C31.7213 13.3887 33.1815 13.3166 34.6494 13.2926C35.6448 12.9191 36.6987 13.0845 37.7247 13.0098C39.5125 12.879 41.2927 12.6282 43.0931 12.6709C44.368 12.2947 45.6987 12.5295 46.9862 12.3481C48.5556 12.1293 50.1275 12.0813 51.7045 12.0413C52.8676 11.6544 54.0866 11.7878 55.275 11.7718C56.1588 11.7584 56.9841 11.473 57.8577 11.4783C58.7313 11.4836 59.6353 11.5663 60.4734 11.3902C61.7736 11.1154 63.0865 11.2782 64.374 11.0968C65.9967 10.8673 67.6449 10.9607 69.2524 10.7552C70.7202 10.5685 72.1956 10.6592 73.6431 10.4591C75.2684 10.235 76.9165 10.355 78.5189 10.1256C79.9334 9.92279 81.3505 10.0269 82.7472 9.84275C84.4791 9.6133 86.2364 9.72002 87.9506 9.50124C89.7485 9.27178 91.5516 9.43987 93.3241 9.21041C95.3328 8.94894 97.3619 9.11436 99.3503 8.87957C101.092 8.67146 102.845 8.82621 104.556 8.57807C106.621 8.27658 108.685 8.39931 110.745 8.28458C110.849 8.27925 110.951 8.23122 111.052 8.20454C110.918 8.16452 110.783 8.09248 110.648 8.09248C108.19 8.08981 105.719 7.95107 103.274 8.12983C99.457 8.40998 95.6325 8.16719 91.8258 8.42866C88.6108 8.65011 85.3857 8.50604 82.1834 8.75417C79.5677 8.95694 76.947 8.82888 74.344 9.04499C72.2236 9.22109 70.0879 9.15438 67.9826 9.36783C65.9688 9.57327 63.955 9.53058 61.9463 9.63998C61.0244 9.688 60.1102 9.81607 59.1884 9.86943C58.2615 9.92279 57.3117 9.82674 56.4077 9.98149C55.1074 10.2003 53.8047 10.1816 52.5019 10.2643C51.5826 10.323 50.6684 10.4671 49.7466 10.5258C48.8781 10.5818 48.0121 10.5525 47.1512 10.7686C46.6865 10.886 46.1735 10.8246 45.6809 10.846C44.759 10.8886 43.822 10.7953 42.9255 11.0994C42.8747 11.1154 42.8163 11.1128 42.763 11.1128C40.9574 11.0674 39.1849 11.4116 37.3869 11.481C36.6276 11.5103 35.8582 11.4409 35.1217 11.7158C34.977 11.7691 34.7967 11.7398 34.6341 11.7478C33.3314 11.8251 32.0159 11.7344 30.7335 12.0519C27.1884 12.0706 23.661 12.5295 20.1108 12.4922C18.6481 12.4762 17.1853 12.727 15.7124 12.7083C15.2223 12.703 14.7271 12.7136 14.237 12.751C12.0429 12.9217 10.6538 11.8118 9.61515 10.1336C9.55928 10.0455 9.53642 9.94147 9.49071 9.84809C9.24946 9.35449 9.42215 8.78352 9.90211 8.52738C10.0418 8.45267 10.1941 8.38864 10.3491 8.35129C11.4512 8.08981 12.5381 7.76164 13.691 7.72428C14.5036 7.6976 15.3264 7.74563 16.1137 7.46014C16.3092 7.39077 16.5454 7.42813 16.7638 7.42012C17.7948 7.3801 18.8335 7.42546 19.8442 7.13997C20.0473 7.08127 20.2784 7.10262 20.4968 7.10795C22.5716 7.15064 24.6083 6.65438 26.683 6.72908C27.7928 6.3769 28.9609 6.58234 30.0808 6.40358C31.541 6.16878 33.0241 6.27551 34.4665 6.07006C36.0435 5.84594 37.6282 5.97668 39.1849 5.76857C40.8102 5.54979 42.4354 5.52044 44.0658 5.47775C45.2847 5.09087 46.5519 5.2643 47.7963 5.2056C50.5161 5.0802 53.2282 4.80539 55.9556 4.85341C58.1701 4.46387 60.4302 4.75469 62.637 4.50122C64.76 4.25843 66.8805 4.3358 68.9984 4.22107C69.7526 4.18105 70.5018 4.02897 71.2586 3.98628C72.1855 3.93292 73.1175 3.96227 74.0444 3.91958C75.6188 3.84754 77.1908 3.72481 78.7653 3.67145C80.3474 3.61808 81.9523 3.75682 83.5141 3.57273C86.3431 3.23921 89.1924 3.52203 92.0061 3.25789C95.4395 2.93505 98.8729 3.0818 102.306 2.97507C103.281 2.94306 104.236 2.71627 105.224 2.72427C107.355 2.73761 109.488 2.63089 111.616 2.68692C113.097 2.72694 114.544 2.45746 116.012 2.44946C121.477 2.41744 126.942 2.39076 132.407 2.34807C133.329 2.34007 134.255 2.44145 135.167 2.17464C135.469 2.0866 135.817 2.14529 136.147 2.14263C141.666 2.10794 147.187 2.07592 152.705 2.0359C153.517 2.03057 154.322 2.03857 155.14 1.88382C155.93 1.73441 156.773 1.82512 157.593 1.82512C166.065 1.82246 174.534 1.82246 183.006 1.82246C183.014 1.78777 183.014 1.75575 183.014 1.72374Z" fill="black"/>
</g>
</g>
<defs>
<clipPath id="clip0_399_664">
<rect width="247.887" height="19.7519" fill="white" transform="translate(0.0566406 0.851196)"/>
</clipPath>
</defs>
</svg>
