<svg width="117" height="113" viewBox="0 0 117 113" fill="none" xmlns="http://www.w3.org/2000/svg">
<g id="Group 55">
<g id="Group" opacity="0.33">
<path id="Vector" d="M58.4537 112.756C90.3801 112.756 116.262 87.6742 116.262 56.7345C116.262 25.7948 90.3801 0.713196 58.4537 0.713196C26.5272 0.713196 0.645752 25.7948 0.645752 56.7345C0.645752 87.6742 26.5272 112.756 58.4537 112.756Z" fill="#E6E7E8"/>
</g>
<path id="Vector_2" d="M41.1719 29.084V83.86C41.1719 85.4819 43.1821 86.4309 44.644 85.4992L87.6308 58.1167C87.9178 57.9442 88.1548 57.7029 88.3191 57.4159C88.4835 57.1288 88.5698 56.8055 88.5698 56.4767C88.5698 56.1479 88.4835 55.8246 88.3191 55.5375C88.1548 55.2505 87.9178 55.0093 87.6308 54.8368L44.6456 27.4449C43.1837 26.5131 41.1719 27.4621 41.1719 29.084Z" fill="#F1F2F2"/>
</g>
</svg>
