<svg width="100%" height="331" viewBox="0 0 100% 331" fill="none" xmlns="http://www.w3.org/2000/svg">
<path d="M168.906 303.681L197.548 304.845L196.672 3.20277L474.298 116.103L473.132 125.728L373.767 171.235L373.477 109.391C322.626 92.469 272.07 75.8422 221.219 59.2155C220.929 99.181 220.343 139.146 220.053 179.407L316.493 191.076V211.206L220.053 203.041C220.053 236.294 219.763 269.553 219.763 302.517L291.656 293.766L292.242 330.233C372.316 317.689 452.391 304.856 532.47 292.312V245.056L561.693 244.471L562.279 271.603L2228.94 271.302V269.258L564.316 269.547L563.73 242.415L532.459 243L532.169 172.695C507.036 164.234 481.904 155.483 456.771 147.022C433.1 158.981 409.134 171.235 385.463 183.49L385.753 197.782L362.668 194.864L362.959 114.638C347.468 110.845 331.978 107.347 316.493 103.843V189.026L222.101 177.357L222.977 61.8335L371.435 110.845L371.725 174.438C406.21 158.391 440.695 142.639 475.18 127.182L476.346 114.638C382.534 76.4327 288.727 38.2163 194.624 0L195.5 302.806L168.906 301.642V303.681ZM318.536 191.371L360.62 196.624L360.33 216.169L387.801 218.213V199.838L471.965 210.337V244.176L290.775 247.969L291.651 291.727L221.805 300.478L222.095 205.085L318.536 213.546V191.371ZM362.663 196.913L385.748 199.832V216.169L362.367 214.125L362.663 196.913ZM473.132 208.583L387.505 197.788V184.659L457.061 149.066L530.121 174.154L530.411 243L474.008 244.164V208.577H473.132V208.583ZM360.615 194.58L318.53 189.327V106.478L360.905 116.103L360.615 194.58ZM471.96 246.214V269.258L293.397 291.427L292.812 250.002L471.96 246.214ZM474.008 270.132V246.209L530.411 245.044V290.552L293.983 327.894L293.693 293.471L474.008 271.007V270.132Z" fill="black"/>
<path d="M170.072 302.806V14.0032C144.94 32.6741 119.807 51.6347 94.6743 70.3056V289.973H-204V292.017H94.6743V303.686H152.54C152.83 231.337 153.126 159.282 153.416 86.9378C138.802 93.065 124.193 99.482 109.869 105.609L110.159 289.978H96.7166V71.4697L168.024 18.0861V302.806H170.072ZM96.7221 301.642V292.017H112.212L111.922 107.068L151.373 90.1462L150.788 301.642H96.7221Z" fill="black"/>
</svg>
