<svg width="65" height="65" viewBox="0 0 65 65" fill="none" xmlns="http://www.w3.org/2000/svg">
<g id="house-sketch">
<g id="Group">
<path id="Vector" d="M62.5 43.0106V35.8862C62.5 35.6155 62.3902 35.3564 62.1958 35.168L58.1958 31.293C58.0092 31.1123 57.7597 31.0112 57.5 31.0112H56.5V21.0112C56.5 20.4589 56.0522 20.0112 55.5 20.0112H9.5C8.94775 20.0112 8.5 20.4589 8.5 21.0112V33.0112H7.5C7.23474 33.0112 6.98047 33.1166 6.79284 33.3041L2.79285 37.3041C2.60535 37.4916 2.5 37.746 2.5 38.0112V55.0112V61.0112C2.5 61.5635 2.94775 62.0112 3.5 62.0112H15.5C16.0522 62.0112 16.5 61.5635 16.5 61.0112V55.0112V50.0112H48.5V55.0112V61.0112C48.5 61.5635 48.9477 62.0112 49.5 62.0112H61.5C62.0522 62.0112 62.5 61.5635 62.5 61.0112V55.0112V43.0119C62.5 43.0114 62.5 43.011 62.5 43.0106ZM60.5 36.3098V40.597L52.9142 33.0112H55.5H57.0951L60.5 36.3098ZM56.2071 48.3041L50.7071 42.8041C50.4951 42.5922 50.3784 42.3106 50.3784 42.0112C50.3784 41.7119 50.4951 41.4303 50.707 41.2184C50.9188 41.0066 51.2004 40.89 51.5 40.89C51.7992 40.89 52.0806 41.0064 52.2923 41.2178L57.7928 46.7183C57.9881 46.9136 58.244 47.0112 58.5 47.0112C58.7559 47.0112 59.0118 46.9136 59.2071 46.7183L60.5 45.4255V54.0112H56.5V49.0112C56.5 48.746 56.3946 48.4916 56.2071 48.3041ZM43.5 29.597V28.0112H45.0858L60.0858 43.0112L58.5 44.597L43.5 29.597ZM10.5 22.0112H54.5V31.0112H50.9142L46.2071 26.3041C46.0195 26.1166 45.7652 26.0112 45.5 26.0112H42.5C41.9477 26.0112 41.5 26.4589 41.5 27.0112V30.0112C41.5 30.2764 41.6053 30.5308 41.7928 30.7183L50.2325 39.1581C49.8868 39.3118 49.5684 39.5286 49.2928 39.8041C48.7032 40.3938 48.3784 41.1777 48.3784 42.0112C48.3784 42.8448 48.7032 43.6287 49.2928 44.2183L53.0857 48.0112H11.9142L15.7071 44.2183C16.9241 43.0013 16.9241 41.0211 15.7071 39.8041C15.1177 39.2146 14.3337 38.8899 13.5 38.8899C12.6663 38.8899 11.8823 39.2146 11.2928 39.8041L10.5 40.597V34.0112V22.0112ZM4.5 38.4254L7.91418 35.0112H8.5V43.0112C8.5 43.4157 8.74365 43.7803 9.1173 43.9351C9.49121 44.09 9.92102 44.0043 10.2071 43.7183L12.7071 41.2183C12.9189 41.0065 13.2004 40.8899 13.5 40.8899C13.7996 40.8899 14.081 41.0065 14.2928 41.2183C14.7301 41.6555 14.7301 42.3669 14.2928 42.8041L8.79284 48.3041C8.60534 48.4916 8.5 48.746 8.5 49.0112V54.0112H4.5V38.4254ZM4.5 60.0112V56.0112H9.5H14.5V60.0112H4.5ZM14.5 54.0112H10.5V50.0112H14.5V54.0112ZM54.5 50.0112V54.0112H50.5V50.0112H54.5ZM50.5 60.0112V56.0112H55.5H60.5V60.0112H50.5Z" fill="black"/>
<path id="Vector_2" d="M17.5 36.0112H24.5V44.0112H18.5V46.0112H25.5H45.5C46.0522 46.0112 46.5 45.5635 46.5 45.0112V41.0112H44.5V44.0112H42.5V37.0112C42.5 36.746 42.3946 36.4916 42.2071 36.3041L36.2071 30.3041C35.8165 29.9136 35.1835 29.9136 34.7928 30.3041L28.7928 36.3041C28.6053 36.4916 28.5 36.746 28.5 37.0112V44.0112H26.5V35.4255L35.5 26.4255L37.7928 28.7183L39.2071 27.3041L36.2071 24.3041C36.0118 24.1089 35.7559 24.0113 35.5 24.0113L26.5 24.0112C26.2347 24.0112 25.9805 24.1166 25.7928 24.3041L15.7928 34.3041C15.6016 34.4954 15.5025 34.7511 15.5024 35.0112H15.5V38.0112H17.5V36.0112ZM30.5 37.4255L35.5 32.4255L40.5 37.4255V44.0112H30.5V37.4255ZM26.9142 26.0112H33.0857L25.0857 34.0112H18.9142L26.9142 26.0112Z" fill="black"/>
<path id="Vector_3" d="M29.5 12.6558V13.0112V15.0112C29.5 16.6654 30.8458 18.0112 32.5 18.0112C34.1542 18.0112 35.5 16.6654 35.5 15.0112V13.0112V12.6558C36.1401 11.9297 36.5 10.989 36.5 10.0112C36.5 7.80554 34.7056 6.01117 32.5 6.01117C30.2944 6.01117 28.5 7.80554 28.5 10.0112C28.5 10.989 28.8599 11.9297 29.5 12.6558ZM33.5 15.0112C33.5 15.5626 33.0514 16.0112 32.5 16.0112C31.9486 16.0112 31.5 15.5626 31.5 15.0112V14.0112H33.5V15.0112ZM32.5 8.01117C33.6028 8.01117 34.5 8.90839 34.5 10.0112C34.5 10.5791 34.2571 11.1219 33.8335 11.5006C33.6809 11.6371 33.5753 11.8157 33.528 12.0112H31.472C31.4247 11.8157 31.3191 11.6371 31.1665 11.5006C30.7429 11.1219 30.5 10.5791 30.5 10.0112C30.5 8.90839 31.3972 8.01117 32.5 8.01117Z" fill="black"/>
<path id="Vector_4" d="M32.5 5.01129C33.0522 5.01129 33.5 4.5636 33.5 4.01129V2.01129C33.5 1.45898 33.0522 1.01129 32.5 1.01129C31.9478 1.01129 31.5 1.45898 31.5 2.01129V4.01129C31.5 4.5636 31.9478 5.01129 32.5 5.01129Z" fill="black"/>
<path id="Vector_5" d="M27.5501 6.47564C27.7454 6.67095 28.0012 6.76855 28.2572 6.76855C28.5131 6.76855 28.7691 6.67089 28.9642 6.47564C29.3549 6.08514 29.3549 5.45202 28.9644 5.06145L27.5502 3.64721C27.1597 3.25671 26.5265 3.25665 26.136 3.64721C25.7454 4.03771 25.7454 4.67089 26.1359 5.06139L27.5501 6.47564Z" fill="black"/>
<path id="Vector_6" d="M24.5 11.0112H26.5C27.0522 11.0112 27.5 10.5635 27.5 10.0112C27.5 9.45892 27.0522 9.01123 26.5 9.01123H24.5C23.9478 9.01123 23.5 9.45892 23.5 10.0112C23.5 10.5635 23.9478 11.0112 24.5 11.0112Z" fill="black"/>
<path id="Vector_7" d="M36.7424 6.76857C36.9984 6.76857 37.2543 6.67091 37.4496 6.47566L38.8638 5.06142C39.2543 4.67091 39.2543 4.03773 38.8637 3.64723C38.4733 3.25661 37.8401 3.25673 37.4495 3.64723L36.0353 5.06148C35.6448 5.45204 35.6448 6.08516 36.0354 6.47566C36.2306 6.67097 36.4865 6.76857 36.7424 6.76857Z" fill="black"/>
<path id="Vector_8" d="M37.5 10.0112C37.5 10.5635 37.9478 11.0112 38.5 11.0112H40.5C41.0522 11.0112 41.5 10.5635 41.5 10.0112C41.5 9.45892 41.0522 9.01123 40.5 9.01123H38.5C37.9478 9.01123 37.5 9.45892 37.5 10.0112Z" fill="black"/>
</g>
</g>
</svg>
