<svg width="65" height="65" viewBox="0 0 65 65" fill="none" xmlns="http://www.w3.org/2000/svg">
<g id="project-management 1" clip-path="url(#clip0_819_911)">
<g id="Group">
<g id="Group_2">
<path id="Vector" d="M63.5888 16.817C63.5887 16.817 63.5887 16.817 63.5886 16.817L63.5865 16.8149L59.4555 16.2255C58.8748 16.1428 58.4712 15.6051 58.5539 15.0245C58.5935 14.7454 58.7426 14.4938 58.968 14.3246L62.3068 11.8205C62.7761 11.4686 62.8711 10.8031 62.5192 10.3338L58.6962 5.23643C58.3443 4.76718 57.6787 4.67214 57.2094 5.02404L53.8717 7.52813C53.4044 7.88269 52.7383 7.79136 52.3838 7.3241C52.2116 7.09724 52.1378 6.81065 52.1789 6.52883L52.7694 2.39783C52.8526 1.81721 52.4495 1.27919 51.869 1.19583C51.8686 1.19583 51.8682 1.1957 51.8678 1.1957L45.564 0.29516C44.9835 0.211796 44.4453 0.614808 44.3619 1.19543C44.3619 1.19556 44.3619 1.19556 44.3619 1.1957L43.7715 5.3267C43.6888 5.90732 43.151 6.311 42.5704 6.2283C42.2914 6.18861 42.0397 6.03954 41.8706 5.81414L39.3675 2.47535C39.0156 2.0061 38.35 1.91106 37.8808 2.26296L34.6896 4.65767C33.2459 4.50421 31.79 4.50421 30.3462 4.65767C20.8914 5.73834 13.477 13.2785 12.5553 22.7502C12.5266 23.0507 12.516 23.3491 12.5011 23.6475H12.1826C11.6787 23.6485 11.2447 24.0034 11.144 24.4971L10.4102 27.9867L7.47067 25.9594C7.04881 25.6683 6.47907 25.7202 6.11668 26.0826L2.93082 29.2685C2.56895 29.6307 2.51718 30.1997 2.80763 30.6214L4.82534 33.5556L1.3347 34.2894C0.846465 34.3964 0.49894 34.8292 0.500002 35.329V39.5768C0.499737 40.0791 0.851642 40.513 1.34319 40.6165L4.83384 41.3503L2.81612 44.2845C2.52568 44.7062 2.57745 45.2752 2.93931 45.6374L6.12517 48.8233C6.48757 49.1857 7.0573 49.2376 7.47917 48.9465L10.4133 46.9234L11.1472 50.4141C11.2479 50.9078 11.6818 51.2627 12.1857 51.2636H16.4336C16.9359 51.2639 17.3697 50.912 17.4732 50.4205L18.207 46.9298L21.1412 48.9475C21.5629 49.238 22.1319 49.1862 22.4941 48.8243L24.1434 47.1698V50.1964C24.1481 51.7071 24.9575 53.1008 26.2673 53.8538V59.754C26.2673 62.1 28.1691 64.0018 30.5151 64.0018H34.7629C37.1089 64.0018 39.0107 62.1 39.0107 59.754V53.8538C40.3205 53.1008 41.1298 51.7071 41.1346 50.1964V45.9932C41.1634 44.2246 42.0887 42.5919 43.5909 41.6583C44.4722 41.0865 45.308 40.4474 46.0908 39.7468L44.6741 38.1644C43.9739 38.7921 43.2257 39.3641 42.4366 39.8753C40.3279 41.1987 39.0371 43.5037 39.0107 45.9932V50.1964C39.0107 51.3694 38.0599 52.3203 36.8868 52.3203H28.3912C27.2181 52.3203 26.2673 51.3694 26.2673 50.1964V45.905C26.2427 43.4627 24.9722 41.2022 22.8987 39.9114C14.4818 34.6226 11.9459 23.512 17.2347 15.0951C20.5161 9.87279 26.243 6.69423 32.4107 6.67219C32.3949 6.71003 32.3809 6.74865 32.3692 6.78795C32.3298 7.06671 32.4028 7.34985 32.5721 7.57486L35.0751 10.9126C35.339 11.2541 35.3644 11.7232 35.1388 12.0913C34.9217 12.4617 34.5018 12.6637 34.0769 12.6021L29.9459 12.0117C29.3652 11.9285 28.8272 12.3316 28.7439 12.9121C28.7439 12.9125 28.7437 12.9129 28.7437 12.9133L27.8421 19.2202C27.7589 19.8007 28.1621 20.3389 28.7425 20.4222C28.7429 20.4222 28.7433 20.4224 28.7437 20.4224L32.8747 21.0128C33.4554 21.0955 33.859 21.6333 33.7763 22.2139C33.7366 22.4929 33.5876 22.7446 33.3622 22.9137L30.0245 25.4167C29.5552 25.7687 29.4602 26.4342 29.8121 26.9035L33.6351 32.0009C33.987 32.4701 34.6526 32.5652 35.1218 32.2133L38.4606 29.7102C38.9303 29.359 39.5958 29.455 39.9471 29.9247C40.1151 30.1495 40.1875 30.4317 40.1481 30.7095L39.5587 34.8405C39.4753 35.421 39.8783 35.9593 40.459 36.0427C40.4591 36.0427 40.4591 36.0427 40.4592 36.0427L46.7672 36.9443C46.8169 36.9506 46.8669 36.9538 46.917 36.9538C47.4457 36.9545 47.8942 36.5661 47.9694 36.0427L48.5587 31.9117C48.6414 31.331 49.1792 30.9274 49.7598 31.0101C50.0388 31.0497 50.2905 31.1988 50.4596 31.4242L52.9637 34.7619C53.3156 35.2312 53.9812 35.3262 54.4505 34.9743L59.5478 31.1513C60.0171 30.7994 60.1121 30.1338 59.7602 29.6646L57.2572 26.3268C56.9945 25.9848 56.9692 25.5164 57.1935 25.1481C57.406 24.7728 57.8297 24.5694 58.2555 24.6383L62.3865 25.2277C62.9669 25.3111 63.5052 24.9079 63.5886 24.3274C63.5886 24.3273 63.5886 24.3273 63.5886 24.3272L64.4891 18.0192C64.5725 17.4386 64.1695 16.9004 63.5888 16.817ZM28.3912 54.4442H36.8868V56.5681H28.3912V54.4442ZM28.3912 58.692H36.8868V59.754C36.8868 60.927 35.936 61.8779 34.7629 61.8779H30.5151C29.342 61.8779 28.3912 60.927 28.3912 59.754V58.692ZM19.937 40.3786C20.5168 40.8528 21.1226 41.2943 21.7518 41.7008C22.7552 42.3349 23.5106 43.2942 23.8917 44.4183L21.6138 46.6919L19.4081 45.1712C18.4423 44.5056 17.1197 44.7491 16.454 45.7149C16.2944 45.9466 16.1824 46.2076 16.1245 46.4827L15.5681 49.1344H13.0438L12.4873 46.487C12.2457 45.3391 11.1194 44.6044 9.97157 44.846C9.69639 44.9039 9.43542 45.0159 9.20378 45.1755L6.99704 46.6919L5.06216 44.7613L6.58181 42.5567C7.24806 41.5912 7.0054 40.2686 6.03995 39.6023C5.80818 39.4424 5.54694 39.3301 5.27136 39.2721L2.62391 38.7145V36.1913L5.27136 35.6338C6.4188 35.3905 7.15182 34.2631 6.9085 33.1155C6.85075 32.8433 6.74018 32.5851 6.58288 32.3556L5.06216 30.1446L6.99704 28.2139L9.20484 29.7347C10.1711 30.3996 11.4936 30.1553 12.1585 29.1891C12.3178 28.9577 12.4296 28.697 12.4873 28.4221L12.6732 27.5385C12.8434 28.7622 13.1252 29.9675 13.5153 31.1396C10.0211 31.5562 7.52616 34.7266 7.94271 38.2209C8.35926 41.7151 11.5297 44.21 15.024 43.7935C17.1274 43.5426 18.9687 42.2628 19.937 40.3786ZM18.2877 38.8823C17.4947 41.0865 15.0651 42.2305 12.8609 41.4377C10.6567 40.6446 9.51267 38.215 10.3056 36.0108C10.9122 34.3246 12.5132 33.2014 14.3053 33.2051C14.3191 33.2051 14.3318 33.2051 14.3456 33.2051C15.3222 35.3108 16.6559 37.2315 18.2877 38.8823ZM61.6303 22.9721L58.5507 22.5325C56.8088 22.2837 55.1952 23.4942 54.9464 25.2359C54.8269 26.0724 55.0446 26.9221 55.5517 27.598L57.4176 30.0862L54.0193 32.6348L52.1524 30.1478C51.0968 28.74 49.0999 28.4545 47.6923 29.51C47.0164 30.0169 46.5694 30.7715 46.4497 31.6079L46.0196 34.6919L41.8153 34.0908L42.255 31.0111C42.5044 29.2694 41.2946 27.6552 39.5528 27.4059C38.7159 27.2861 37.8658 27.5038 37.1895 28.0111L34.7013 29.877L32.1526 26.4787L34.6397 24.6118C36.0475 23.5562 36.333 21.5593 35.2774 20.1517C34.7706 19.4758 34.0159 19.0288 33.1795 18.9091L30.0999 18.4694L30.7009 14.2652L33.7806 14.7048C35.5223 14.9542 37.1365 13.7444 37.3858 12.0027C37.5057 11.1657 37.288 10.3156 36.7806 9.63929L34.9084 7.14901L38.3066 4.60032L40.1736 7.08848C41.2291 8.49623 43.226 8.78177 44.6336 7.72618C45.3096 7.21937 45.7565 6.46472 45.8762 5.62829L46.3159 2.54863L50.5202 3.14863L50.0805 6.2283C49.8318 7.97017 51.0421 9.58381 52.784 9.83257C53.6204 9.95204 54.4701 9.73434 55.146 9.22726L57.6342 7.3614L60.1829 10.7597L57.6947 12.6266C56.287 13.6822 56.0014 15.679 57.057 17.0866C57.5639 17.7626 58.3185 18.2095 59.1549 18.3293L62.2346 18.7689L61.6303 22.9721Z" fill="black"/>
</g>
</g>
<g id="Group_3">
<g id="Group_4">
<path id="Vector_2" d="M46.1641 10.1225C41.4721 10.1225 37.6685 13.9262 37.6685 18.6181C37.6685 23.3101 41.4721 27.1138 46.1641 27.1138C50.8561 27.1138 54.6597 23.3101 54.6597 18.6181C54.6544 13.9283 50.8539 10.1277 46.1641 10.1225ZM46.1641 24.9899C42.645 24.9899 39.7924 22.1372 39.7924 18.6181C39.7924 15.0991 42.645 12.2464 46.1641 12.2464C49.6831 12.2464 52.5358 15.0991 52.5358 18.6181C52.5317 22.1355 49.6814 24.9857 46.1641 24.9899Z" fill="black"/>
</g>
</g>
<g id="Group_5">
<g id="Group_6">
<path id="Vector_3" d="M33.7011 47.0106H31.5771V50.1964H33.7011V47.0106Z" fill="black"/>
</g>
</g>
<g id="Group_7">
<g id="Group_8">
<path id="Vector_4" d="M27.994 36.5811C21.4385 34.0202 18.2002 26.6298 20.7612 20.0742C21.7536 17.534 23.5346 15.3792 25.8425 13.9264L24.7073 12.1296C17.76 16.5063 15.676 25.6862 20.0528 32.6335C21.7478 35.3241 24.2609 37.4004 27.2231 38.5574C29.845 39.562 31.5764 42.0788 31.5771 44.8866H33.701C33.7043 41.2027 31.4341 37.8988 27.994 36.5811Z" fill="black"/>
</g>
</g>
<g id="Group_9">
<g id="Group_10">
<path id="Vector_5" d="M60.2498 39.5768H52.8162V41.7008H60.2498V39.5768Z" fill="black"/>
</g>
</g>
<g id="Group_11">
<g id="Group_12">
<path id="Vector_6" d="M52.4342 45.1319L51.0747 46.7637L57.4469 52.0726L58.8064 50.4408L52.4342 45.1319Z" fill="black"/>
</g>
</g>
<g id="Group_13">
<g id="Group_14">
<path id="Vector_7" d="M48.5682 48.0725H46.4443V55.5062H48.5682V48.0725Z" fill="black"/>
</g>
</g>
<g id="Group_15">
<g id="Group_16">
<path id="Vector_8" d="M10.0795 16.245L1.58447 18.3685L2.09926 20.4279L10.5943 18.3044L10.0795 16.245Z" fill="black"/>
</g>
</g>
<g id="Group_17">
<g id="Group_18">
<path id="Vector_9" d="M4.58219 5.79351L3.34839 7.52087L10.7815 12.8301L12.0153 11.1027L4.58219 5.79351Z" fill="black"/>
</g>
</g>
<g id="Group_19">
<g id="Group_20">
<path id="Vector_10" d="M14.5049 0.0200505L12.4473 0.546143L14.6192 9.04112L16.6769 8.51503L14.5049 0.0200505Z" fill="black"/>
</g>
</g>
</g>
<defs>
<clipPath id="clip0_819_911">
<rect width="64" height="64" fill="white" transform="translate(0.5 0.0112305)"/>
</clipPath>
</defs>
</svg>
