<svg width="65" height="65" viewBox="0 0 65 65" fill="none" xmlns="http://www.w3.org/2000/svg">
<g id="team" clip-path="url(#clip0_819_957)">
<path id="Vector" d="M7.63053 44.0657L0.799282 50.7763C0.65765 50.9154 0.560639 51.0936 0.520605 51.288C0.480572 51.4825 0.499328 51.6845 0.574484 51.8682C0.64964 52.052 0.777795 52.2092 0.942624 52.3199C1.10745 52.4306 1.30149 52.4897 1.50003 52.4897H20.5428C21.9093 54.383 23.7059 55.9248 25.7847 56.9881C27.8635 58.0514 30.1651 58.6059 32.5001 58.6059C34.835 58.6059 37.1366 58.0514 39.2154 56.9881C41.2943 55.9248 43.0908 54.383 44.4574 52.4897H63.5C63.6985 52.4897 63.8926 52.4306 64.0574 52.3199C64.2222 52.2092 64.3504 52.052 64.4255 51.8682C64.5007 51.6845 64.5194 51.4825 64.4794 51.288C64.4394 51.0936 64.3424 50.9154 64.2007 50.7763L57.3695 44.0657L64.2231 36.8894C64.3584 36.7478 64.4491 36.5696 64.484 36.3769C64.5189 36.1842 64.4965 35.9855 64.4195 35.8055C64.3424 35.6254 64.2143 35.4719 64.0508 35.364C63.8874 35.2562 63.6958 35.1987 63.5 35.1987H62.4851C62.7062 33.2584 62.2492 31.3013 61.1916 29.6596C61.0666 29.4665 60.8787 29.3224 60.6599 29.2517C58.8224 28.6357 57.0674 27.7967 55.4341 26.7537C55.3203 26.6825 55.1932 26.635 55.0606 26.614C54.928 26.593 54.7925 26.5989 54.6622 26.6313C54.5319 26.6638 54.4095 26.7222 54.3022 26.803C54.195 26.8838 54.1051 26.9854 54.038 27.1017L52.2705 30.1628L50.5029 27.1017C50.4357 26.9854 50.3459 26.8838 50.2386 26.803C50.1314 26.7222 50.009 26.6638 49.8787 26.6313C49.7484 26.5989 49.6129 26.593 49.4803 26.614C49.3476 26.635 49.2206 26.6825 49.1067 26.7537C47.8406 27.5538 46.5056 28.2393 45.1175 28.8021C44.8412 27.2752 44.4145 25.8879 43.8154 24.9633C43.6903 24.7703 43.5026 24.6263 43.2837 24.5556C41.0694 23.8401 38.7681 22.7403 36.4438 21.2868C36.3299 21.2156 36.2029 21.1681 36.0703 21.1471C35.9376 21.126 35.8021 21.1319 35.6718 21.1644C35.5416 21.1969 35.4191 21.2552 35.3119 21.336C35.2047 21.4168 35.1148 21.5184 35.0476 21.6347L32.5 26.0472L29.9524 21.6347C29.8852 21.5184 29.7954 21.4168 29.6881 21.336C29.5809 21.2552 29.4585 21.1969 29.3282 21.1644C29.1979 21.1319 29.0624 21.126 28.9298 21.1471C28.7971 21.1681 28.6701 21.2156 28.5563 21.2868C26.2319 22.7403 23.9313 23.8401 21.7163 24.5556C21.4974 24.6263 21.3097 24.7703 21.1846 24.9633C20.5901 25.8807 20.1651 27.2722 19.8889 28.8049C18.4986 28.2416 17.1614 27.5551 15.8933 26.7537C15.7794 26.6825 15.6524 26.635 15.5198 26.614C15.3871 26.593 15.2516 26.5989 15.1213 26.6313C14.991 26.6638 14.8686 26.7222 14.7614 26.803C14.6541 26.8838 14.5643 26.9854 14.4971 27.1017L12.7296 30.1628L10.9625 27.1017C10.8954 26.9854 10.8055 26.8838 10.6983 26.803C10.591 26.7222 10.4686 26.6638 10.3383 26.6313C10.208 26.5989 10.0725 26.593 9.93992 26.614C9.80729 26.635 9.68026 26.6825 9.5664 26.7537C7.93309 27.7967 6.17809 28.6357 4.34065 29.2517C4.12177 29.3224 3.93397 29.4665 3.8089 29.6596C2.74209 31.2974 2.28384 33.2577 2.51403 35.1987H1.50003C1.30419 35.1987 1.11267 35.2562 0.949213 35.364C0.785759 35.4719 0.657574 35.6254 0.580564 35.8055C0.503554 35.9855 0.481108 36.1842 0.516012 36.3769C0.550916 36.5696 0.641633 36.7478 0.776907 36.8894L7.63053 44.0657ZM3.94503 50.4897L9.73553 44.8014C9.92301 44.6173 10.0305 44.3667 10.0346 44.104C10.0388 43.8412 9.93942 43.5873 9.7579 43.3973L3.83753 37.1987H19.3214C18.2806 39.2593 17.7384 41.5356 17.7384 43.8442C17.7384 46.1528 18.2806 48.429 19.3214 50.4897H3.94503ZM32.5 56.6059C29.976 56.6059 27.5086 55.8575 25.41 54.4552C23.3113 53.0529 21.6756 51.0598 20.7097 48.7279C19.7438 46.396 19.4911 43.83 19.9835 41.3545C20.4759 38.879 21.6913 36.605 23.4761 34.8203C25.2609 33.0355 27.5348 31.8201 30.0103 31.3277C32.4859 30.8352 35.0518 31.088 37.3837 32.0539C39.7156 33.0198 41.7087 34.6555 43.111 36.7541C44.5133 38.8528 45.2617 41.3202 45.2617 43.8442C45.2579 47.2276 43.9122 50.4714 41.5197 52.8639C39.1273 55.2564 35.8835 56.6021 32.5 56.6059ZM55.2422 43.3973C55.0607 43.5873 54.9613 43.8412 54.9654 44.1039C54.9696 44.3667 55.077 44.6173 55.2645 44.8014L61.055 50.4897H45.6787C46.7195 48.429 47.2618 46.1528 47.2618 43.8442C47.2618 41.5356 46.7195 39.2593 45.6787 37.1987H61.1625L55.2422 43.3973ZM49.2797 28.9838L51.404 32.6627C51.4918 32.8147 51.618 32.9409 51.77 33.0287C51.922 33.1164 52.0945 33.1626 52.27 33.1626C52.4455 33.1626 52.618 33.1164 52.77 33.0287C52.922 32.9409 53.0482 32.8147 53.136 32.6627L55.2601 28.9838C56.6668 29.8097 58.1503 30.4971 59.6899 31.0362C60.41 32.2967 60.6839 33.7632 60.4675 35.1987H45.4481C45.5535 33.7474 45.5354 32.2898 45.3939 30.8416C46.7389 30.3319 48.0389 29.7105 49.2802 28.9838H49.2797ZM22.6968 26.3377C24.7995 25.6075 26.8218 24.6634 28.7318 23.5203L31.634 28.5472C31.7218 28.6992 31.848 28.8254 32 28.9132C32.152 29.0009 32.3245 29.0471 32.5 29.0471C32.6755 29.0471 32.848 29.0009 33 28.9132C33.152 28.8254 33.2782 28.6992 33.366 28.5472L36.2683 23.5203C38.1781 24.6633 40.2003 25.6073 42.3029 26.3374C43.1447 27.9536 43.5827 31.3573 43.5116 34.0249C42.1287 32.4706 40.4324 31.2266 38.5342 30.3749C36.636 29.5232 34.579 29.0829 32.4985 29.0832C30.418 29.0835 28.3611 29.5242 26.4632 30.3764C24.5652 31.2286 22.8692 32.473 21.4866 34.0277C21.4099 31.3487 21.8478 27.9612 22.6968 26.3377ZM5.30978 31.0362C6.84928 30.4969 8.33278 29.8094 9.7394 28.9833L11.8636 32.6622C11.9514 32.8142 12.0777 32.9404 12.2297 33.0282C12.3817 33.1159 12.5541 33.1621 12.7296 33.1621C12.9052 33.1621 13.0776 33.1159 13.2296 33.0282C13.3816 32.9404 13.5079 32.8142 13.5956 32.6622L15.7198 28.9833C16.963 29.7111 18.2651 30.3333 19.6125 30.8431C19.4695 32.2906 19.4491 33.7477 19.5515 35.1987H4.53103C4.30723 33.763 4.58207 32.2939 5.30978 31.0362ZM32.5513 21.0688C32.5868 21.0696 32.6224 21.0701 32.6579 21.0701C34.2704 21.0701 35.7619 20.2326 36.8684 18.7028C38.0573 17.0593 38.7595 14.7332 38.9559 11.7892C38.958 11.7567 38.9586 11.7242 38.9575 11.6916C38.9115 10.0108 38.2112 8.41433 37.0056 7.24226C35.8 6.0702 34.1844 5.41512 32.503 5.41657H32.4973C30.8158 5.41512 29.2003 6.0702 27.9947 7.24226C26.7891 8.41433 26.0887 10.0108 26.0428 11.6916V11.7436C26.098 14.3822 26.7834 16.6861 28.0245 18.4061C29.2174 20.0601 30.8674 21.0304 32.5513 21.0688ZM32.5 7.41644C33.6535 7.41623 34.7623 7.86306 35.5933 8.66306C36.4243 9.46307 36.913 10.554 36.9566 11.7067C36.5816 17.1477 34.4191 19.0701 32.6523 19.0701C32.6338 19.0701 32.6148 19.0701 32.5969 19.0701C30.4375 19.0202 28.1461 16.2612 28.0425 11.7286C28.0807 10.5719 28.567 9.47533 29.3988 8.67066C30.2306 7.86599 31.3427 7.41623 32.5 7.41644ZM41.7661 41.6683C41.7103 41.4965 41.609 41.343 41.473 41.2242C41.3369 41.1053 41.1712 41.0255 40.9935 40.9933L35.8549 40.0612L33.3806 35.4619C33.2951 35.3029 33.168 35.17 33.0129 35.0773C32.8579 34.9847 32.6806 34.9358 32.5 34.9358C32.3194 34.9358 32.1421 34.9847 31.9871 35.0773C31.832 35.17 31.705 35.3029 31.6194 35.4619L29.1451 40.0612L24.0065 40.9931C23.8288 41.0253 23.6631 41.1051 23.5271 41.2239C23.3911 41.3428 23.2898 41.4962 23.234 41.668C23.1782 41.8397 23.1699 42.0234 23.2101 42.1995C23.2503 42.3756 23.3375 42.5375 23.4623 42.6681L27.0718 46.4424L26.37 51.6174C26.3457 51.7964 26.3704 51.9787 26.4414 52.1448C26.5124 52.3109 26.627 52.4547 26.7732 52.5608C26.9193 52.667 27.0915 52.7316 27.2714 52.7478C27.4513 52.764 27.6323 52.7311 27.795 52.6527L32.5 50.3862L37.2051 52.6528C37.3679 52.7312 37.5488 52.7641 37.7287 52.7479C37.9086 52.7317 38.0808 52.6671 38.227 52.561C38.3731 52.4548 38.4878 52.311 38.5587 52.1449C38.6297 51.9788 38.6544 51.7966 38.6301 51.6176L37.9284 46.4426L41.5375 42.6686C41.6624 42.538 41.7496 42.3761 41.7899 42.2C41.8301 42.0239 41.8219 41.8401 41.7661 41.6683ZM36.15 45.4087C36.0461 45.5173 35.9681 45.6479 35.9216 45.7909C35.8752 45.9338 35.8615 46.0854 35.8818 46.2343L36.3985 50.0448L32.9341 48.3758C32.7987 48.3106 32.6504 48.2768 32.5001 48.2768C32.3499 48.2768 32.2015 48.3106 32.0661 48.3758L28.6018 50.0448L29.1185 46.2343C29.1387 46.0854 29.1251 45.9338 29.0786 45.7909C29.0322 45.6479 28.9541 45.5173 28.8503 45.4087L26.1925 42.6297L29.9763 41.9436C30.1241 41.9167 30.264 41.8569 30.3856 41.7686C30.5071 41.6802 30.6072 41.5657 30.6784 41.4333L32.5 38.0469L34.3218 41.4333C34.3929 41.5657 34.493 41.6802 34.6146 41.7686C34.7361 41.8569 34.876 41.9167 35.0239 41.9436L38.8076 42.6297L36.15 45.4087ZM52.3047 26.1943C52.3319 26.1943 52.3589 26.1953 52.3861 26.1953C54.5277 26.1953 57.1155 24.2729 57.4787 18.8222C57.481 18.7897 57.4815 18.7572 57.4805 18.7247C57.4435 17.3687 56.8786 16.0807 55.906 15.1351C54.9334 14.1895 53.63 13.661 52.2735 13.6622H52.2676C50.9111 13.661 49.6077 14.1894 48.635 15.1351C47.6624 16.0807 47.0974 17.3687 47.0604 18.7247V18.7767C47.104 20.8587 47.6479 22.6807 48.6325 24.0454C49.595 25.3798 50.9336 26.1631 52.3047 26.1943ZM52.2705 15.6622C53.0992 15.6623 53.8957 15.9826 54.4938 16.5562C55.0918 17.1299 55.4451 17.9124 55.4797 18.7403C55.2134 22.5511 53.7235 24.2259 52.3504 24.1948C50.7925 24.1593 49.1391 22.1181 49.0602 18.7618C49.0895 17.9299 49.4405 17.1418 50.0393 16.5636C50.6382 15.9854 51.4381 15.6623 52.2705 15.6622ZM12.7639 26.1943C12.791 26.1943 12.818 26.1953 12.8454 26.1953C14.9869 26.1953 17.5748 24.2729 17.9379 18.8222C17.9401 18.7897 17.9405 18.7572 17.9396 18.7247C17.9027 17.3687 17.3377 16.0807 16.3651 15.1351C15.3924 14.1895 14.0891 13.661 12.7325 13.6622H12.7266C11.3701 13.661 10.0667 14.1895 9.0941 15.1351C8.12148 16.0807 7.55651 17.3687 7.51953 18.7247V18.7767C7.56315 20.8587 8.10703 22.6807 9.09153 24.0456C10.0541 25.3798 11.3928 26.1631 12.7639 26.1943ZM12.7296 15.6622C13.5583 15.6623 14.3549 15.9826 14.9529 16.5562C15.551 17.1299 15.9042 17.9124 15.9389 18.7403C15.675 22.5163 14.2054 24.1953 12.847 24.1953C12.8345 24.1953 12.822 24.1953 12.8095 24.1953C11.2515 24.1598 9.59828 22.1186 9.51927 18.7623C9.5484 17.9303 9.89938 17.1421 10.4983 16.5638C11.0971 15.9855 11.8971 15.6622 12.7296 15.6622Z" fill="black"/>
</g>
<defs>
<clipPath id="clip0_819_957">
<rect width="64" height="64" fill="white" transform="translate(0.5 0.0112305)"/>
</clipPath>
</defs>
</svg>
