<svg width="1440" height="362" viewBox="0 0 1440 362" fill="none" xmlns="http://www.w3.org/2000/svg">
<path d="M1598.13 361.401H885.798V240.985L745.125 227.456L745.668 326L811.534 322.583L811.626 221.819L621.693 200.991L601.994 203.066L601.311 357.631L275.281 312.37L275.719 229.093L595.273 205.327V229.831L533.881 234.355V332.782L444.026 321.078L444.31 238.86L397.743 240.402L397.397 320.942L403.657 321.429L403.909 233.647L323.927 237.249L323.256 325.953L267.062 317.308L268.069 123.345L317.386 104.12L418.532 126.191V119.953L321.804 98.9917L322.419 193.515L423.061 179.932L424.322 97.5173L454.427 89.3558L373.745 69.061L374.301 37.1906L505.338 70.3587L504.358 169.449L429.089 179.249L429.227 127.29L557.7 91.8695L557.03 162.403L623.453 153.303V65.0864L509.391 100.162V70.7586L701.285 1L843.926 62.5727L843.526 95.6238V192.239L827.928 189.412V100.744L807.295 105.624L808.302 185.617L772.07 179.355L771.4 117.817L689.977 93.8283V152.349L732.065 162.352V101.157L637.545 71.8359V65.9678L772.407 107.686L836.147 89.6279L700.227 38.3576L630.834 63.2174V160.842L891.165 206.081V337.839L623.37 361.401V160.842L248.443 209.49V123.536L368.699 68.6937L369.203 37.7809L231.334 107.414L231 305.999H-1" stroke="#1D1D1B" stroke-width="2" stroke-miterlimit="10" stroke-linecap="round" stroke-linejoin="round"/>
</svg>
