<svg width="1440" height="328" viewBox="0 0 1440 328" fill="none" xmlns="http://www.w3.org/2000/svg">
<path d="M1545 322.168H612.546V235.28L653.855 240.653C654.556 190.318 655.255 139.867 656.073 89.4161C595.041 74.9335 534.008 60.5695 472.977 46.0888C472.744 82.6421 472.627 119.197 472.392 155.751L483.596 157.62L483.246 213.91L471.46 212.159H471.111L388.723 229.211L390.006 118.731L463.874 93.0381C463.99 77.5061 463.99 62.0889 464.107 46.557C430.85 62.0889 397.59 77.5061 364.333 93.0381L362.349 228.626L289.415 225.941L289.997 191.723L305.985 192.424C306.802 158.44 307.618 124.572 308.552 90.7042L289.415 87.3172L288.015 189.739L271.561 189.037L273.077 61.3911L376.703 81.7111C376.936 63.142 377.17 44.6895 377.521 26.1204C339.71 17.4735 301.902 8.71368 263.974 0.0722656C244.954 15.1378 225.931 30.3199 206.91 45.3855L202.126 312.475L-172.002 311.307V313.293L202.126 314.461L201.893 326.841C247.171 326.957 292.331 326.957 337.609 327.074C337.376 298.579 337.26 270.082 337.143 241.587C320.573 241.471 304.002 241.237 287.43 241.004L287.081 313.528L204.11 312.477L208.894 46.4386L264.559 2.17477L375.536 27.751L374.836 79.3699L271.093 59.05C270.627 102.962 270.159 146.989 269.576 190.901L288.015 191.719L287.432 227.923L364.218 230.725L366.319 94.3189L462.126 49.7071L461.893 91.6334L388.025 117.326L386.742 231.543L471.347 214.142L483.25 215.894L482.549 323.221H600.528C600.295 292.507 600.179 261.907 600.062 231.193L485.234 214.142L485.584 157.968L620.951 180.975C620.951 159.604 620.951 138.231 621.067 116.86L484.067 86.9619L483.601 155.632L474.382 153.998L474.848 48.6577L653.977 91.0503L651.876 238.434L610.565 233.062V324.155H1545V322.168ZM618.965 178.638L485.582 155.982L485.931 89.4142L619.081 118.377L618.965 178.638ZM484.53 321.233L485.23 216.126L598.076 232.942L598.542 321.233H484.53ZM289.999 189.732L291.399 89.6456L306.453 92.3312L304.002 190.315L289.999 189.732ZM203.877 324.853L204.11 314.459L289.065 315.51L289.415 243.103L335.159 243.57L335.625 325.086L203.877 324.853Z" fill="black"/>
</svg>
