<svg width="390" height="136" viewBox="0 0 390 136" fill="none" xmlns="http://www.w3.org/2000/svg">
<path d="M187.249 134.967L187.211 133.347H164.074V102.015L169.378 102.09L151.405 91.4067L240.888 90.8617V104.131L173.249 103.182L187.766 111.811L188.24 132.313H249.786L249.645 129.486L243.343 129.065V55.2794L268.787 54.407L268.753 48.8593H243.343V37.737L269.735 37.1837L269.798 47.8231H275.569L275.702 36.6635H283.224L283.091 47.8231H289.716V36.133H296.153L296.292 47.8231H302.117V36.2926L307.478 34.3114L307.552 47.8231H310.744V35.6025H328.161L341.643 -0.000488281H345.77V132.311H390V133.347H344.718V1.03569H342.373L328.893 36.6366H311.798V47.821H333.902L334.449 126.956L310.746 127.511V89.0691L307.783 89.1271L308.027 133.38L250.701 129.55L250.89 133.343H188.263L188.324 136L0 135.999V134.963L187.249 134.963V134.967ZM239.837 103.078V91.9041L155.147 92.4201L171.464 102.119L239.837 103.078ZM186.73 112.402L171.165 103.151L165.127 103.066V132.311H187.188L186.73 112.402ZM268.69 38.2426L244.394 38.7524V47.8231H268.747L268.69 38.2426ZM311.798 88.0163L328.563 87.6848L330.132 53.3397L311.795 53.9697V88.0163H311.798ZM311.798 52.9315L331.236 52.2642L329.57 88.7002L311.798 89.0504V126.454L333.391 125.949L332.859 48.8614H311.798V52.9315ZM307.777 88.0951L310.746 88.0371V54.0049L307.589 54.1127L307.777 88.0951ZM307.583 53.0765L310.746 52.9688V48.8593H307.56L307.583 53.0765ZM268.791 55.4432L244.392 56.2804V128.094L249.591 128.442L247.628 89.2805L268.991 88.8598L268.791 55.4432ZM269.805 48.8593L269.838 54.3717L275.495 54.1769L275.559 48.8593H269.805ZM275.081 88.7396L275.481 55.2152L269.843 55.4079L270.042 88.8391L275.081 88.7396ZM270.049 89.8752L270.274 127.474L274.623 127.045L275.069 89.7758L270.049 89.8752ZM276.133 88.7189L281.552 88.6132L281.954 54.9935L276.532 55.18L276.133 88.7189ZM276.545 54.1417L281.966 53.9552L282.027 48.8593H276.608L276.545 54.1417ZM276.743 37.6997L276.621 47.8231H282.04L282.16 37.6997H276.743ZM289.716 48.8593H283.079L283.018 53.92L289.716 53.6899V48.8593ZM289.716 54.7261L283.005 54.9562L282.604 88.5904L289.716 88.4495V54.7261ZM289.716 89.4877L282.593 89.6286L282.147 126.997H289.718V89.4877H289.716ZM295.114 37.1692H290.767V47.8231H295.243L295.114 37.1692ZM295.253 48.8593H290.767V53.6526L295.31 53.4972L295.253 48.8593ZM295.323 54.5334L290.767 54.6888V88.4287L295.726 88.3313L295.323 54.5334ZM302.12 48.8593H296.307L296.361 53.462L302.12 53.2651V48.8593ZM302.12 54.3013L296.374 54.4982L296.778 88.3127L302.12 88.207V54.3013ZM302.12 89.2432L296.79 89.3489L297.234 126.467H302.12V89.2432ZM306.437 35.8035L303.171 37.0096V47.8231H306.504L306.437 35.8035ZM306.508 48.8593H303.169V53.2278L306.532 53.1118L306.508 48.8593ZM306.538 54.15L303.171 54.2661V88.1883L306.725 88.1179L306.538 54.15ZM306.969 132.275L306.731 89.1541L303.171 89.2245V127.505H296.193L295.737 89.3717L290.767 89.4691V128.035H281.083L281.542 89.6514L276.122 89.7592L275.666 127.988L269.231 128.622L268.999 89.898L248.735 90.298L250.65 128.514L306.969 132.275Z" fill="#050505"/>
</svg>
