<svg width="1440" height="314" viewBox="0 0 1440 314" fill="none" xmlns="http://www.w3.org/2000/svg">
<path d="M978.806 311.608L978.72 307.866H926.09V235.529L938.155 235.701L897.273 211.037L1100.82 209.778V240.414L946.961 238.222L979.983 258.145L981.059 305.479H1121.06L1120.74 298.953L1106.4 297.981V127.628L1164.28 125.613L1164.2 112.805H1106.4V87.1265L1166.44 85.8491L1166.58 110.413H1179.71L1180.01 84.6481H1197.12L1196.82 110.413H1211.89V83.4233H1226.53L1226.84 110.413H1240.1V83.7917L1252.29 79.2177L1252.46 110.413H1259.72V82.1984H1299.34L1330 0H1339.39V305.474H1440V307.866H1337V2.39227H1331.66L1301 84.5859H1262.11V110.408H1312.4L1313.64 293.111L1259.72 294.393V205.64L1252.98 205.774L1253.54 307.943L1123.14 299.101L1123.57 307.857H981.112L981.251 313.99H-1.00476V311.598H978.806V311.608ZM1098.43 237.983V212.185L905.783 213.376L942.9 235.768L1098.43 237.983ZM977.625 259.509L942.221 238.151L928.487 237.954V305.474H978.667L977.625 259.509ZM1164.06 88.294L1108.79 89.471V110.413H1164.19L1164.06 88.294ZM1262.11 203.209L1300.25 202.444L1303.82 123.149L1262.11 124.604V203.209H1262.11ZM1262.11 122.207L1306.33 120.666L1302.54 204.788L1262.11 205.597V291.953L1311.23 290.785L1310.02 112.81H1262.11V122.207ZM1252.97 203.391L1259.72 203.257V124.685L1252.54 124.934L1252.97 203.391ZM1252.53 122.542L1259.72 122.293V112.805H1252.48L1252.53 122.542ZM1164.29 128.006L1108.79 129.939V295.737L1120.61 296.541L1116.15 206.128L1164.74 205.156L1164.29 128.006ZM1166.59 112.805L1166.67 125.532L1179.54 125.082L1179.68 112.805H1166.59ZM1178.6 204.879L1179.51 127.479L1166.68 127.924L1167.13 205.109L1178.6 204.879ZM1167.15 207.501L1167.66 294.307L1177.55 293.316L1178.57 207.271L1167.15 207.501ZM1180.99 204.831L1193.32 204.587L1194.23 126.967L1181.9 127.398L1180.99 204.831ZM1181.93 125.001L1194.26 124.57L1194.4 112.805H1182.07L1181.93 125.001ZM1182.38 87.0404L1182.1 110.413H1194.43L1194.7 87.0404H1182.38ZM1211.89 112.805H1196.79L1196.65 124.489L1211.89 123.958V112.805ZM1211.89 126.35L1196.62 126.881L1195.71 204.534L1211.89 204.209V126.35ZM1211.89 206.606L1195.68 206.931L1194.67 293.206H1211.89V206.606H1211.89ZM1224.17 85.8156H1214.28V110.413H1224.46L1224.17 85.8156ZM1224.48 112.805H1214.28V123.872L1224.61 123.513L1224.48 112.805ZM1224.64 125.905L1214.28 126.264V204.161L1225.56 203.936L1224.64 125.905ZM1240.1 112.805H1226.88L1227 123.432L1240.1 122.977V112.805ZM1240.1 125.369L1227.03 125.824L1227.95 203.893L1240.1 203.649V125.369ZM1240.1 206.042L1227.98 206.286L1228.99 291.982H1240.1V206.042ZM1249.92 82.6626L1242.49 85.4472V110.413H1250.07L1249.92 82.6626ZM1250.08 112.805H1242.49V122.891L1250.14 122.623L1250.08 112.805ZM1250.15 125.02L1242.49 125.288V203.606L1250.58 203.444L1250.15 125.02ZM1251.13 305.393L1250.59 205.836L1242.49 205.998V294.379H1226.62L1225.58 206.338L1214.28 206.563V295.603H1192.25L1193.29 206.984L1180.96 207.233L1179.93 295.493L1165.29 296.957L1164.76 207.553L1118.67 208.477L1123.02 296.709L1251.13 305.393Z" fill="#050505"/>
</svg>
