<svg width="1440" height="371" viewBox="0 0 1440 371" fill="none" xmlns="http://www.w3.org/2000/svg">
<path d="M712.729 370C712.645 370 712.562 369.977 712.49 369.93C712.365 369.849 712.289 369.71 712.289 369.561L712.244 295.613C712.244 295.408 712.386 295.229 712.587 295.183C714.188 294.821 839.082 266.502 892.718 254.342V170.996C892.718 170.775 892.882 170.587 893.101 170.559L916.547 167.583C916.536 158.41 916.525 149.22 916.511 140.452L869.479 146.223C869.404 146.232 869.328 146.222 869.258 146.194L675.782 66.2942V141.645L869.494 171.095C869.709 171.127 869.867 171.312 869.867 171.53V247.303C869.867 247.532 869.693 247.723 869.464 247.742L665.027 265.17V332.179C665.027 332.315 664.964 332.443 664.857 332.526C664.75 332.61 664.609 332.638 664.477 332.604L557.917 304.984C557.724 304.934 557.587 304.758 557.587 304.558V147.448C557.587 147.243 557.729 147.065 557.929 147.02L645.014 127.068C645.145 127.039 645.281 127.07 645.386 127.153C645.49 127.237 645.552 127.363 645.552 127.498V265.948L664.146 264.362V74.3974L548.044 117.906V300.444C548.044 300.687 547.848 300.884 547.604 300.884L0 300.884V300.004L547.166 300.004V117.601C547.166 117.417 547.281 117.253 547.452 117.189L664.433 73.3515C664.568 73.3016 664.719 73.3193 664.838 73.4029C664.956 73.485 665.027 73.62 665.027 73.7637V264.287L868.988 246.899V171.909L675.276 142.459C675.061 142.427 674.903 142.242 674.903 142.023V65.6371C674.903 65.4904 674.976 65.3525 675.098 65.2718C675.219 65.1896 675.374 65.175 675.509 65.2307L869.488 145.334L916.511 139.565C916.466 109.036 916.412 83.8883 916.411 83.2502C916.411 83.0478 916.547 82.8717 916.743 82.8219L951.638 74.0732V46.5687L756.633 94.4574C756.502 94.4897 756.364 94.4603 756.257 94.3767C756.15 94.2931 756.089 94.1655 756.089 94.0305V69.4657C756.089 69.2779 756.207 69.1107 756.384 69.0505L951.934 1.02414C952.128 0.956662 952.345 1.03441 952.454 1.21044L985.359 55.2954C985.401 55.3643 985.423 55.4435 985.423 55.5242V174.244C985.423 174.385 985.356 174.517 985.242 174.6C985.127 174.683 984.981 174.706 984.847 174.662L971.53 170.299V199.586C971.53 199.714 971.474 199.834 971.379 199.918C971.284 200.001 971.156 200.04 971.031 200.022L929 194.258V267.475H1019.05C1019.24 267.475 1019.41 267.6 1019.47 267.783C1019.52 267.966 1019.45 268.166 1019.3 268.276L972.49 300.973H1440.5V301.853H971.089C970.897 301.853 970.727 301.729 970.67 301.545C970.613 301.362 970.68 301.162 970.837 301.052L1017.65 268.355H928.559C928.315 268.355 928.119 268.158 928.119 267.915V193.755C928.119 193.628 928.175 193.507 928.27 193.424C928.365 193.34 928.494 193.302 928.619 193.32L970.65 199.083V170.013L952.141 163.951L917.429 168.357C917.454 191.473 917.458 209.962 917.443 223.336C917.435 231.517 917.418 237.851 917.395 242.162C917.382 244.48 917.367 246.257 917.351 247.447C917.342 248.063 917.332 248.536 917.323 248.85C917.306 249.411 917.297 249.668 916.95 249.749C916.873 249.766 907.834 251.816 893.6 255.043V289.11C893.6 289.283 893.497 289.442 893.339 289.512L712.91 369.962C712.85 369.987 712.79 370 712.729 370ZM713.124 295.962L713.168 368.881L892.718 288.823V255.241C840.308 267.126 720.518 294.286 713.124 295.962ZM558.468 304.216L664.149 331.61V265.244L645.555 266.829V280.225C645.555 280.348 645.503 280.466 645.413 280.549C645.322 280.633 645.202 280.674 645.079 280.664L563.565 273.813C563.338 273.794 563.162 273.604 563.162 273.375C563.162 273.146 563.336 272.955 563.565 272.936L644.676 266.021V128.05L558.469 147.799L558.468 304.216ZM568.818 273.372L644.674 279.747V266.904L568.818 273.372ZM893.597 171.382V254.141C906.24 251.274 914.742 249.347 916.438 248.961C916.589 245.244 916.589 207.179 916.548 168.469L893.597 171.382ZM971.529 169.374L984.544 173.637V55.6489L951.887 1.97176L756.969 69.7781V93.4687L951.973 45.5785C952.104 45.5463 952.243 45.5756 952.35 45.6592C952.455 45.7428 952.518 45.8705 952.518 46.0054V73.8503L970.984 69.2207C971.114 69.187 971.255 69.2178 971.36 69.2999C971.467 69.3835 971.529 69.5112 971.529 69.6476V169.374ZM952.184 163.06C952.231 163.06 952.276 163.068 952.32 163.082L970.65 169.086V70.2123L952.518 74.7583V135.642C952.518 135.865 952.353 136.052 952.133 136.079L917.393 140.342C917.405 148.734 917.418 157.504 917.427 166.251C917.427 166.659 917.429 167.065 917.429 167.468L952.13 163.063C952.147 163.062 952.165 163.06 952.184 163.06ZM917.289 83.5905C917.297 86.7297 917.348 110.777 917.391 139.456L951.638 135.254V74.9783L917.289 83.5905Z" fill="black" stroke="black" stroke-width="0.5"/>
</svg>
