<svg width="390" height="165" viewBox="0 0 390 165" fill="none" xmlns="http://www.w3.org/2000/svg">
<path d="M175.58 164C175.543 164 175.506 163.989 175.475 163.968C175.42 163.933 175.386 163.871 175.386 163.806L175.366 131.14C175.366 131.05 175.429 130.971 175.517 130.951C176.224 130.79 231.329 118.281 254.994 112.909V76.093C254.994 75.9951 255.066 75.9122 255.163 75.8999L265.508 74.5851C265.503 70.5333 265.498 66.4737 265.492 62.6007L244.741 65.1499C244.708 65.1538 244.674 65.1492 244.643 65.1369L159.278 29.8426V63.1275L244.747 76.1364C244.842 76.1507 244.912 76.2323 244.912 76.3289V109.8C244.912 109.901 244.835 109.986 244.734 109.994L154.533 117.693V147.293C154.533 147.353 154.505 147.409 154.458 147.446C154.411 147.483 154.349 147.495 154.291 147.481L107.275 135.28C107.189 135.258 107.129 135.18 107.129 135.092V65.6909C107.129 65.6002 107.192 65.5218 107.28 65.5017L145.703 56.6885C145.761 56.6756 145.821 56.6892 145.867 56.7261C145.913 56.763 145.941 56.8188 145.941 56.8784V118.036L154.145 117.336V33.4221L102.919 52.6412V133.274C102.919 133.382 102.832 133.469 102.725 133.469H0.0771484V133.08H102.531V52.5065C102.531 52.4255 102.582 52.3529 102.657 52.3244L154.271 32.9601C154.331 32.938 154.397 32.9458 154.45 32.9827C154.502 33.019 154.533 33.0787 154.533 33.1422V117.303L244.524 109.622V76.496L159.055 63.4872C158.96 63.4729 158.891 63.3913 158.891 63.2947V29.5523C158.891 29.4875 158.923 29.4266 158.977 29.391C159.03 29.3547 159.099 29.3482 159.158 29.3728L244.744 64.7572L265.492 62.2087C265.472 48.7229 265.448 37.6145 265.448 37.3327C265.448 37.2432 265.508 37.1655 265.594 37.1434L280.99 33.2789V21.1292L194.951 42.2832C194.893 42.2975 194.832 42.2845 194.785 42.2476C194.738 42.2107 194.711 42.1543 194.711 42.0947V31.2436C194.711 31.1606 194.763 31.0868 194.842 31.0602L281.121 1.01066C281.207 0.980856 281.302 1.0152 281.35 1.09296L295.868 24.9841C295.887 25.0145 295.897 25.0495 295.897 25.0851V77.5276C295.897 77.5898 295.867 77.6482 295.817 77.6851C295.766 77.7214 295.702 77.7317 295.643 77.7123L289.767 75.7852V88.7222C289.767 88.7785 289.743 88.8317 289.701 88.8686C289.659 88.9055 289.602 88.9224 289.547 88.9146L271.002 86.3687V118.711H310.732C310.817 118.711 310.892 118.766 310.917 118.847C310.942 118.928 310.912 119.016 310.843 119.065L290.19 133.508H389.923V133.897H289.573C289.488 133.897 289.413 133.842 289.388 133.761C289.362 133.68 289.392 133.592 289.461 133.543L310.114 119.1H270.807C270.7 119.1 270.614 119.013 270.614 118.905V86.1464C270.614 86.0901 270.638 86.0369 270.68 86C270.722 85.9631 270.779 85.9462 270.834 85.954L289.379 88.4999V75.6589L281.213 72.9807L265.897 74.9273C265.908 85.1382 265.91 93.3054 265.903 99.213C265.899 102.827 265.892 105.625 265.882 107.529C265.876 108.553 265.87 109.338 265.862 109.864C265.859 110.136 265.854 110.345 265.85 110.483C265.842 110.732 265.839 110.845 265.685 110.881C265.652 110.888 261.663 111.794 255.383 113.219V128.268C255.383 128.344 255.338 128.414 255.268 128.445L175.66 163.983C175.634 163.994 175.607 164 175.58 164ZM175.755 131.295L175.774 163.505L254.994 128.141V113.307C231.87 118.557 179.017 130.554 175.755 131.295ZM107.518 134.941L154.146 147.041V117.725L145.942 118.426V124.343C145.942 124.397 145.919 124.449 145.879 124.486C145.839 124.523 145.786 124.541 145.732 124.537L109.767 121.511C109.666 121.502 109.589 121.418 109.589 121.317C109.589 121.216 109.666 121.132 109.767 121.123L145.554 118.069V57.122L107.518 65.8458L107.518 134.941ZM112.085 121.316L145.553 124.132V118.459L112.085 121.316ZM255.382 76.2634V112.821C260.96 111.554 264.711 110.703 265.46 110.533C265.526 108.891 265.526 92.0761 265.508 74.9765L255.382 76.2634ZM289.766 75.3763L295.509 77.2594V25.1402L281.1 1.42926L195.099 31.3816V41.8465L281.138 20.6918C281.196 20.6776 281.257 20.6905 281.304 20.7275C281.351 20.7644 281.379 20.8208 281.379 20.8804V33.1804L289.526 31.1354C289.584 31.1204 289.646 31.1341 289.692 31.1703C289.739 31.2073 289.766 31.2637 289.766 31.3239V75.3763ZM281.231 72.5874C281.252 72.5874 281.272 72.5907 281.291 72.5971L289.379 75.2493V31.5734L281.379 33.5815V60.476C281.379 60.5745 281.306 60.6568 281.209 60.6691L265.881 62.5521C265.886 66.2592 265.892 70.1329 265.896 73.9968C265.896 74.1769 265.897 74.3564 265.897 74.5346L281.207 72.5887C281.215 72.5881 281.223 72.5874 281.231 72.5874ZM265.835 37.483C265.839 38.8697 265.861 49.492 265.88 62.1607L280.99 60.3043V33.6787L265.835 37.483Z" fill="black" stroke="black" stroke-width="0.5"/>
</svg>
