<svg width="1440" height="252" viewBox="0 0 1440 252" fill="none" xmlns="http://www.w3.org/2000/svg">
<path d="M1692.76 251.075L585.134 251.867C584.527 251.867 584.013 251.358 583.921 250.665L582.702 241.245L567.902 240.729L568.766 250.311C568.803 250.707 568.693 251.111 568.46 251.408C568.227 251.705 567.896 251.874 567.547 251.874H545.985C545.335 251.874 544.796 251.287 544.76 250.545L542.775 210.822C542.75 210.377 542.91 209.952 543.204 209.662C543.498 209.372 543.89 209.266 544.263 209.358L557.568 212.71C558.107 212.845 558.506 213.382 558.53 214.026L559.541 237.61L565.176 237.808L562.591 209.153L540.031 200.752L527.504 205.575L528.245 250.432C528.251 250.814 528.122 251.181 527.896 251.45C527.663 251.719 527.351 251.874 527.02 251.874H478.094C477.42 251.874 476.875 251.245 476.869 250.467L476.716 225.404C476.71 224.81 477.035 224.273 477.518 224.068L503.663 212.944C503.846 212.866 504.042 212.845 504.232 212.866L515.651 214.436L512.539 121.858L493.892 117.177L496.14 209.104C496.153 209.698 495.846 210.235 495.369 210.454L478.547 218.226C478.174 218.403 477.751 218.347 477.414 218.092C477.077 217.837 476.875 217.406 476.869 216.939L475.338 113.669C475.332 113.061 475.662 112.509 476.159 112.311L493.745 105.253C493.984 105.154 494.241 105.147 494.486 105.232L505.047 108.74L504.594 100.685L494.162 95.7704L470.903 107.516V145.429C470.903 145.952 470.652 146.433 470.247 146.68L459.289 153.342L459.436 250.46C459.436 250.835 459.307 251.195 459.074 251.464C458.841 251.733 458.535 251.881 458.21 251.881H444.446C443.772 251.881 443.221 251.245 443.221 250.467V242.115L433.438 241.627V250.474C433.438 251.252 432.887 251.888 432.213 251.888H380.991C380.654 251.888 380.329 251.726 380.096 251.443C379.864 251.16 379.747 250.778 379.766 250.382L392.77 18.9346C392.795 18.5032 392.985 18.1144 393.291 17.8668L403.992 9.21795C404.378 8.90675 404.881 8.87845 405.291 9.14015C405.701 9.40175 405.946 9.91805 405.916 10.4555L402.142 86.2024L426.725 96.6194V27.9867L421.689 24.8538C421.291 24.6063 421.046 24.1324 421.046 23.6091V14.6986L404.74 3.22805L388.905 15.9079L388.335 25.469C388.311 25.851 388.152 26.2115 387.9 26.4592L383.71 30.49L379.925 90.7914C379.9 91.2164 379.704 91.6053 379.404 91.8523L374.381 95.8834L366.167 226.727C366.118 227.469 365.585 228.042 364.948 228.042H361.144L359.287 250.594C359.226 251.323 358.699 251.874 358.069 251.874H308.359C308.004 251.874 307.667 251.698 307.434 251.386C307.201 251.075 307.097 250.665 307.146 250.255L308.543 239.173L291.618 240.397C291.244 240.425 290.883 240.255 290.631 239.93C290.38 239.612 290.27 239.173 290.337 238.749L294.925 207.859C295.005 207.329 295.342 206.89 295.789 206.742L314.142 200.561C314.54 200.427 314.975 200.533 315.287 200.851C315.599 201.169 315.753 201.643 315.698 202.124L311.41 236.139L314.944 235.885L320.58 191.735L316.892 191.021L298.08 198.842C297.676 199.012 297.216 198.92 296.886 198.602C296.555 198.284 296.389 197.789 296.457 197.294L307.734 114.829L304.347 114.178C303.759 114.065 303.324 113.471 303.324 112.785V103.705L296.432 96.5484H287.826L284.291 107.969C284.12 108.535 283.654 108.91 283.14 108.91H279.581L259.881 239.789C259.783 240.46 259.28 240.955 258.686 240.962L252.824 241.047L251.47 250.722C251.372 251.408 250.864 251.91 250.263 251.91H227.317C226.949 251.91 226.594 251.719 226.367 251.386C226.135 251.054 226.043 250.623 226.122 250.205L233.963 207.781H228.873L225.375 216.664C225.179 217.166 224.738 217.491 224.26 217.491H218.379L212.462 250.785C212.346 251.443 211.843 251.917 211.261 251.917H197.957C197.577 251.917 197.221 251.712 196.989 251.372C196.756 251.026 196.676 250.58 196.768 250.156L201.362 229.442L175.347 221.324L166.544 250.962C166.373 251.535 165.907 251.917 165.387 251.917H123.334C122.924 251.917 122.538 251.676 122.311 251.273C122.084 250.877 122.048 250.368 122.213 249.93L127.567 235.807C127.763 235.291 128.204 234.958 128.688 234.958H139.432L142.905 227.738C143.12 227.293 143.53 227.01 143.977 227.01H162.961L168.125 208.375L106.562 226.988L94.8621 251.174C94.6477 251.62 94.2373 251.896 93.7901 251.896L-60.7749 251.118C-61.4487 251.118 -62 250.481 -62 249.703C-62 248.925 -61.4487 248.289 -60.7749 248.289L93.0795 249.067L104.681 225.079C104.847 224.74 105.116 224.499 105.441 224.4L169.662 204.981C170.097 204.846 170.557 205.002 170.863 205.377C171.169 205.752 171.279 206.289 171.139 206.784L165.019 228.848C164.854 229.435 164.382 229.831 163.855 229.831H144.7L141.227 237.052C141.013 237.497 140.602 237.78 140.155 237.78H129.49L125.208 249.074H164.511L173.399 219.139C173.607 218.432 174.256 218.035 174.875 218.234L203.163 227.059C203.813 227.264 204.199 228.028 204.033 228.778L199.531 249.081H210.257L216.174 215.787C216.291 215.129 216.793 214.655 217.375 214.655H223.47L226.968 205.773C227.164 205.271 227.605 204.945 228.082 204.945H234.484L238.355 183.999C238.478 183.348 238.974 182.881 239.556 182.881H254.845C255.207 182.881 255.55 183.065 255.783 183.39C256.015 183.709 256.113 184.133 256.052 184.543L251.844 211.805L255.519 212.01C255.868 212.031 256.193 212.222 256.414 212.534C256.634 212.845 256.726 213.255 256.671 213.651L253.222 238.219L257.639 238.155L277.345 107.262C277.449 106.583 277.957 106.088 278.552 106.088H282.276L285.81 94.6674C285.982 94.1013 286.448 93.7263 286.962 93.7263H296.904C297.204 93.7263 297.498 93.8543 297.725 94.0873L305.357 102C305.615 102.269 305.762 102.651 305.762 103.054V111.569L309.327 112.255C309.988 112.382 310.442 113.103 310.338 113.867L299.195 195.356L316.359 188.221C316.555 188.136 316.769 188.114 316.978 188.157L320.935 188.921L325.498 153.151C325.56 152.656 325.848 152.232 326.258 152.041L333.903 148.512C334.258 148.349 334.662 148.385 334.987 148.611L338.289 150.895L345.37 147.628C345.609 147.515 345.872 147.494 346.124 147.571L361.413 151.984C362.001 152.154 362.393 152.798 362.338 153.498L358.675 196.226L362.546 196.975C363.177 197.096 363.624 197.768 363.563 198.503L361.37 225.199H363.802L371.98 94.9924C372.004 94.5684 372.2 94.1794 372.501 93.9314L377.524 89.9004L381.303 29.6697C381.328 29.2878 381.487 28.9342 381.738 28.6868L385.922 24.6629L386.498 15.024C386.522 14.5926 386.718 14.2035 387.024 13.956L403.999 0.363949C404.397 0.0457486 404.917 0.0244491 405.334 0.314449L422.921 12.6689C423.288 12.9235 423.509 13.3833 423.509 13.8783V22.7464L428.544 25.8793C428.942 26.1268 429.187 26.6005 429.187 27.1238V98.6204C429.187 99.0804 428.991 99.5183 428.666 99.7803C428.336 100.041 427.919 100.105 427.546 99.9503L400.458 88.4724C399.949 88.2604 399.625 87.6874 399.655 87.0654L403.331 13.1852L395.178 19.7761L382.302 249.024H430.994V241.472L409.23 240.383C408.893 240.368 408.581 240.192 408.36 239.895C408.139 239.598 408.035 239.216 408.066 238.827L408.697 231.557H397.818C397.481 231.557 397.162 231.394 396.93 231.111C396.697 230.828 396.58 230.447 396.599 230.065L402.712 100.31C402.731 99.8723 402.927 99.4694 403.245 99.2214C403.558 98.9743 403.956 98.9103 404.317 99.0443L432.605 109.638C433.108 109.829 433.451 110.373 433.451 110.982V238.763L444.513 239.322C445.169 239.357 445.684 239.979 445.684 240.736V249.031H456.991L456.844 152.472C456.844 151.949 457.096 151.461 457.5 151.221L468.459 144.559V106.576C468.459 106.017 468.747 105.508 469.194 105.282L493.66 92.9274C493.966 92.7724 494.309 92.7724 494.615 92.9134L506.236 98.3874C506.67 98.5924 506.964 99.0663 506.995 99.6033L507.608 110.55C507.632 111.01 507.461 111.455 507.154 111.745C506.842 112.035 506.431 112.127 506.046 112L494.186 108.061L477.806 114.638L479.289 214.832L493.666 208.184L491.399 115.437C491.387 115.006 491.552 114.588 491.84 114.305C492.128 114.03 492.514 113.916 492.881 114.015L513.984 119.312C514.53 119.447 514.928 119.998 514.946 120.642L518.15 215.97C518.162 216.381 518.021 216.784 517.758 217.067C517.494 217.35 517.139 217.477 516.784 217.434L504.232 215.709L479.172 226.373L479.307 249.038H525.77L525.035 204.585C525.023 203.962 525.366 203.411 525.874 203.213L539.639 197.916C539.89 197.824 540.153 197.817 540.404 197.909L564.104 206.735C564.564 206.904 564.895 207.378 564.95 207.937L567.651 237.886L583.804 238.445C584.399 238.466 584.889 238.975 584.981 239.647L586.199 249.031L1692.77 248.239C1693.45 248.239 1694 248.876 1694 249.654C1693.99 250.446 1693.44 251.075 1692.76 251.075ZM547.136 249.038H566.187L565.427 240.637L558.334 240.39C557.697 240.368 557.176 239.781 557.146 239.046L556.123 215.235L545.311 212.512L547.136 249.038ZM309.78 249.038H356.948L358.675 228.035H355.949L354.693 242.646C354.632 243.367 354.105 243.918 353.474 243.918H330.534C330.178 243.918 329.842 243.742 329.609 243.431C329.376 243.119 329.272 242.709 329.321 242.299L335.33 194.571L322.993 192.181L317.217 237.412C317.131 238.07 316.659 238.579 316.083 238.615L311.042 238.975L309.78 249.038ZM228.83 249.038H249.21L250.331 241.04L246.294 241.097C245.945 241.104 245.583 240.92 245.345 240.595C245.106 240.269 245.008 239.845 245.075 239.428L248.934 214.429L239.488 213.906C238.833 213.87 238.325 213.248 238.325 212.491V207.725H236.462L228.83 249.038ZM331.949 241.097H352.359L353.48 228.035H340.476C340.12 228.035 339.783 227.858 339.551 227.547C339.318 227.236 339.214 226.826 339.263 226.423L342.975 196.056L337.75 195.045L331.949 241.097ZM410.633 237.632L430.994 238.657V112.021L405.064 102.312L399.104 228.735H410.045C410.394 228.735 410.718 228.905 410.951 229.202C411.184 229.499 411.294 229.895 411.264 230.291L410.633 237.632ZM251.403 214.57L247.746 238.247L250.729 238.204L254.025 214.712L251.403 214.57ZM297.204 209.203L293.008 237.455L308.904 236.309L312.99 203.885L297.204 209.203ZM356.188 225.206H358.908L361.015 199.55L358.43 199.048L356.188 225.206ZM341.885 225.206H353.725L356.01 198.581L345.395 196.523L341.885 225.206ZM240.775 211.155L249.369 211.628L253.381 185.668H240.542L236.989 204.903H239.556C240.23 204.903 240.781 205.539 240.781 206.317V211.155H240.775ZM345.738 193.729L356.249 195.766L359.796 154.438L345.915 150.428L338.638 153.788C338.283 153.95 337.878 153.915 337.554 153.689L334.252 151.404L327.826 154.375L323.355 189.394L335.685 191.785L339.416 162.168C339.465 161.786 339.649 161.439 339.924 161.213C340.2 160.987 340.543 160.909 340.874 160.987L348.366 162.755C349.003 162.903 349.425 163.596 349.333 164.339L345.738 193.729ZM338.099 192.251L343.318 193.263L346.742 165.258L341.652 164.056L338.099 192.251Z" fill="black"/>
</svg>
