<svg width="390" height="96" viewBox="0 0 390 96" fill="none" xmlns="http://www.w3.org/2000/svg">
<path d="M625.014 95.4781L204.27 95.779C204.039 95.779 203.844 95.5856 203.809 95.3224L203.346 91.7441L197.724 91.5481L198.052 95.1879C198.066 95.3383 198.024 95.4918 197.936 95.6046C197.847 95.7174 197.722 95.7816 197.589 95.7816H189.398C189.152 95.7816 188.947 95.5586 188.933 95.2768L188.179 80.1876C188.17 80.0185 188.23 79.8571 188.342 79.7469C188.454 79.6368 188.603 79.5965 188.744 79.6314L193.798 80.9047C194.003 80.956 194.155 81.16 194.164 81.4046L194.548 90.3633L196.688 90.4385L195.706 79.5536L187.137 76.3624L182.378 78.1944L182.66 95.2339C182.662 95.379 182.613 95.5184 182.527 95.6206C182.439 95.7227 182.32 95.7816 182.194 95.7816H163.609C163.353 95.7816 163.146 95.5427 163.144 95.2472L163.086 85.7267C163.084 85.5011 163.207 85.2971 163.391 85.2192L173.322 80.9936C173.391 80.964 173.466 80.956 173.538 80.964L177.876 81.5604L176.694 46.3936L169.61 44.6155L170.464 79.535C170.469 79.7606 170.353 79.9646 170.171 80.0478L163.781 83C163.64 83.0673 163.479 83.046 163.351 82.9491C163.223 82.8523 163.146 82.6886 163.144 82.5112L162.562 43.2829C162.56 43.052 162.685 42.8423 162.874 42.7671L169.555 40.086C169.645 40.0484 169.743 40.0457 169.836 40.078L173.848 41.4106L173.676 38.3508L169.713 36.4838L160.878 40.9456V55.3473C160.878 55.546 160.782 55.7287 160.629 55.8225L156.466 58.3531L156.522 95.2445C156.522 95.3869 156.473 95.5237 156.384 95.6259C156.296 95.7281 156.18 95.7843 156.056 95.7843H150.828C150.572 95.7843 150.362 95.5427 150.362 95.2472V92.0746L146.646 91.8892V95.2498C146.646 95.5453 146.437 95.7869 146.181 95.7869H126.724C126.596 95.7869 126.472 95.7254 126.384 95.6179C126.296 95.5104 126.251 95.3653 126.258 95.2149L131.198 7.29687C131.208 7.133 131.28 6.98527 131.396 6.89122L135.461 3.60588C135.607 3.48766 135.799 3.47691 135.954 3.57632C136.11 3.67569 136.203 3.87182 136.192 4.07595L134.758 32.8493L144.096 36.8063V10.7354L142.183 9.54531C142.032 9.45129 141.939 9.27131 141.939 9.07253V5.68778L135.745 1.33055L129.73 6.14711L129.513 9.77904C129.504 9.92411 129.444 10.0611 129.348 10.1551L127.756 11.6863L126.319 34.5924C126.309 34.7539 126.235 34.9016 126.121 34.9955L124.213 36.5267L121.093 86.2292C121.074 86.5111 120.872 86.7288 120.63 86.7288H119.185L118.479 95.2954C118.456 95.5723 118.256 95.7816 118.016 95.7816H99.1336C98.9987 95.7816 98.8707 95.7148 98.7822 95.5962C98.6937 95.4781 98.6542 95.3224 98.6728 95.1666L99.2035 90.957L92.7743 91.4219C92.6323 91.4326 92.4951 91.368 92.3994 91.2446C92.3041 91.1238 92.2623 90.957 92.2877 90.7959L94.0305 79.062C94.0609 78.8607 94.1889 78.6939 94.3587 78.6377L101.33 76.2898C101.482 76.2389 101.647 76.2792 101.765 76.4C101.884 76.5208 101.942 76.7008 101.921 76.8835L100.293 89.8045L101.635 89.708L103.776 72.9371L102.375 72.6659L95.229 75.6368C95.0755 75.7014 94.9008 75.6664 94.7754 75.5457C94.6497 75.4249 94.5866 75.2368 94.6125 75.0488L98.8962 43.7235L97.6096 43.4763C97.3862 43.4333 97.221 43.2077 97.221 42.9471V39.498L94.603 36.7793H91.3339L89.9911 41.1177C89.9261 41.3327 89.7491 41.4751 89.5539 41.4751H88.2019L80.7187 91.191C80.6814 91.4459 80.4904 91.6339 80.2647 91.6366L78.038 91.6689L77.5237 95.344C77.4864 95.6046 77.2935 95.7953 77.0652 95.7953H68.3489C68.2091 95.7953 68.0742 95.7227 67.988 95.5962C67.8999 95.4701 67.8649 95.3064 67.895 95.1476L70.8734 79.0324H68.9399L67.6112 82.4067C67.5367 82.5974 67.3692 82.7208 67.1876 82.7208H64.9537L62.706 95.3679C62.662 95.6179 62.4709 95.7979 62.2498 95.7979H57.1962C57.0518 95.7979 56.9166 95.7201 56.8285 95.5909C56.74 95.4595 56.7096 95.2901 56.7445 95.129L58.4896 87.2606L48.6075 84.1769L45.2636 95.4352C45.1986 95.6528 45.0216 95.7979 44.8241 95.7979H28.8498C28.694 95.7979 28.5474 95.7064 28.4612 95.5533C28.375 95.4029 28.3613 95.2095 28.424 95.0432L30.4577 89.6784C30.5322 89.4824 30.6997 89.3559 30.8836 89.3559H34.9648L36.284 86.6133C36.3657 86.4443 36.5215 86.3367 36.6913 86.3367H43.9025L45.8641 79.258L22.4788 86.3284L18.0344 95.5157C17.953 95.6851 17.7971 95.79 17.6272 95.79L-41.086 95.4944C-41.342 95.4944 -41.5514 95.2525 -41.5514 94.9569C-41.5514 94.6614 -41.342 94.4198 -41.086 94.4198L17.3573 94.7153L21.7642 85.6032C21.8273 85.4745 21.9295 85.3829 22.0529 85.3453L46.448 77.9688C46.6132 77.9175 46.788 77.9768 46.9042 78.1192C47.0204 78.2617 47.0622 78.4656 47.009 78.6537L44.6843 87.0349C44.6216 87.2579 44.4423 87.4083 44.2421 87.4083H36.9659L35.6466 90.1513C35.5653 90.3203 35.4092 90.4279 35.2394 90.4279H31.1882L29.5616 94.718H44.4913L47.8675 83.3469C47.9465 83.0783 48.1931 82.9275 48.4282 83.0031L59.1737 86.3554C59.4206 86.4332 59.5673 86.7234 59.5042 87.0083L57.7941 94.7207H61.8685L64.1161 82.0736C64.1605 81.8236 64.3512 81.6436 64.5723 81.6436H66.8876L68.2163 78.2696C68.2908 78.0789 68.4583 77.9551 68.6395 77.9551H71.0713L72.5418 69.9985C72.5885 69.7513 72.7769 69.5739 72.998 69.5739H78.8057C78.9432 69.5739 79.0735 69.6438 79.162 69.7672C79.2501 69.8884 79.2874 70.0494 79.2642 70.2052L77.6657 80.561L79.0617 80.6388C79.1943 80.6468 79.3177 80.7194 79.4017 80.8379C79.4853 80.956 79.5202 81.1118 79.4993 81.2622L78.1892 90.5946L79.867 90.5703L87.3526 40.8491C87.3921 40.5912 87.585 40.4032 87.8111 40.4032H89.2257L90.5681 36.0648C90.6334 35.8498 90.8104 35.7073 91.0057 35.7073H94.7823C94.8962 35.7073 95.0079 35.756 95.0941 35.8445L97.9932 38.8503C98.0912 38.9525 98.1471 39.0976 98.1471 39.2507V42.4852L99.5013 42.7458C99.7524 42.794 99.9248 43.0679 99.8853 43.3581L95.6525 74.3126L102.172 71.6023C102.247 71.57 102.328 71.5617 102.408 71.578L103.911 71.8682L105.644 58.2806C105.668 58.0926 105.777 57.9315 105.933 57.8589L108.837 56.5184C108.972 56.4565 109.125 56.4702 109.249 56.556L110.503 57.4236L113.193 56.1826C113.283 56.1397 113.383 56.1317 113.479 56.161L119.287 57.8373C119.51 57.9019 119.659 58.1465 119.638 58.4124L118.247 74.6431L119.717 74.9276C119.957 74.9736 120.127 75.2288 120.103 75.508L119.27 85.6488H120.194L123.301 36.1882C123.31 36.0272 123.384 35.8794 123.499 35.7852L125.407 34.254L126.842 11.3747C126.852 11.2297 126.912 11.0953 127.007 11.0013L128.597 9.47279L128.816 5.81135C128.825 5.64748 128.899 5.49971 129.015 5.4057L135.463 0.242585C135.615 0.121713 135.812 0.113623 135.971 0.223782L142.651 4.91678C142.791 5.01349 142.875 5.18811 142.875 5.37614V8.74479L144.787 9.93486C144.938 10.0289 145.031 10.2089 145.031 10.4076V37.5664C145.031 37.7411 144.957 37.9075 144.834 38.007C144.708 38.1062 144.55 38.1305 144.408 38.0716L134.118 33.7115C133.925 33.631 133.802 33.4134 133.813 33.1771L135.21 5.1129L132.113 7.61653L127.222 94.699H145.718V91.8303L137.451 91.4166C137.323 91.4109 137.204 91.3441 137.12 91.2313C137.036 91.1184 136.997 90.9733 137.008 90.8256L137.248 88.064H133.116C132.988 88.064 132.866 88.0021 132.778 87.8946C132.69 87.7871 132.645 87.6423 132.653 87.4972L134.975 38.2083C134.982 38.042 135.056 37.8889 135.177 37.7947C135.296 37.7008 135.447 37.6765 135.584 37.7274L146.33 41.7517C146.521 41.8242 146.651 42.0309 146.651 42.2622V90.8013L150.853 91.0136C151.102 91.0269 151.298 91.2632 151.298 91.5507V94.7017H155.593L155.537 58.0227C155.537 57.824 155.633 57.6386 155.786 57.5474L159.949 55.0168V40.5886C159.949 40.3762 160.059 40.1829 160.229 40.097L169.522 35.4038C169.638 35.3449 169.769 35.3449 169.885 35.3985L174.299 37.4779C174.464 37.5557 174.576 37.7358 174.588 37.9398L174.821 42.0981C174.83 42.2729 174.765 42.4419 174.648 42.552C174.53 42.6622 174.373 42.6972 174.227 42.6489L169.722 41.1526L163.5 43.651L164.063 81.7108L169.525 79.1855L168.663 43.9545C168.659 43.7908 168.721 43.632 168.831 43.5245C168.94 43.42 169.087 43.3767 169.226 43.4143L177.243 45.4265C177.45 45.4777 177.601 45.687 177.608 45.9317L178.825 82.1431C178.83 82.2992 178.776 82.4523 178.676 82.5598C178.576 82.6673 178.441 82.7155 178.306 82.6992L173.538 82.0439L164.019 86.0948L164.07 94.7043H181.72L181.44 77.8184C181.436 77.5817 181.566 77.3724 181.759 77.2972L186.988 75.2851C187.083 75.2501 187.183 75.2475 187.278 75.2824L196.281 78.6351C196.456 78.6993 196.582 78.8793 196.603 79.0917L197.629 90.4681L203.764 90.6805C203.99 90.6884 204.177 90.8818 204.212 91.137L204.674 94.7017L625.017 94.4008C625.276 94.4008 625.485 94.6428 625.485 94.9383C625.481 95.2392 625.272 95.4781 625.014 95.4781ZM189.836 94.7043H197.072L196.784 91.5131L194.089 91.4193C193.847 91.4109 193.649 91.188 193.638 90.9088L193.249 81.8639L189.142 80.8295L189.836 94.7043ZM99.6734 94.7043H117.591L118.247 86.7261H117.211L116.734 92.2763C116.711 92.5501 116.511 92.7594 116.271 92.7594H107.557C107.422 92.7594 107.294 92.6926 107.206 92.5745C107.117 92.4559 107.078 92.3002 107.096 92.1444L109.379 74.0144L104.692 73.1066L102.498 90.2881C102.466 90.538 102.286 90.7314 102.068 90.745L100.153 90.8818L99.6734 94.7043ZM68.9236 94.7043H76.6652L77.091 91.6662L75.5575 91.6878C75.4249 91.6905 75.2874 91.6206 75.197 91.4972C75.1062 91.3733 75.069 91.2123 75.0945 91.0539L76.5603 81.5577L72.9722 81.3591C72.7234 81.3454 72.5304 81.1091 72.5304 80.8215V79.0111H71.8227L68.9236 94.7043ZM108.095 91.6878H115.847L116.273 86.7261H111.334C111.198 86.7261 111.07 86.6589 110.982 86.5407C110.894 86.4226 110.854 86.2669 110.873 86.1138L112.283 74.5785L110.298 74.1945L108.095 91.6878ZM137.983 90.3716L145.718 90.761V42.6569L135.868 38.9688L133.604 86.992H137.76C137.893 86.992 138.016 87.0566 138.104 87.1694C138.193 87.2822 138.235 87.4326 138.223 87.5831L137.983 90.3716ZM77.4982 81.6113L76.1091 90.6052L77.2422 90.5889L78.4942 81.6652L77.4982 81.6113ZM94.8962 79.5726L93.3023 90.3044L99.3406 89.8691L100.893 77.5525L94.8962 79.5726ZM117.302 85.6515H118.335L119.136 75.9058L118.154 75.7151L117.302 85.6515ZM111.869 85.6515H116.366L117.234 75.5377L113.202 74.7559L111.869 85.6515ZM73.461 80.314L76.7256 80.4937L78.2496 70.6325H73.3725L72.0229 77.9392H72.998C73.254 77.9392 73.4633 78.1807 73.4633 78.4763V80.314H73.461ZM113.332 73.6946L117.325 74.4684L118.672 58.7695L113.4 57.2462L110.635 58.5226C110.501 58.5841 110.347 58.5708 110.224 58.4849L108.969 57.617L106.528 58.7455L104.83 72.0479L109.514 72.9561L110.931 61.7058C110.95 61.5607 111.019 61.4289 111.124 61.343C111.229 61.2572 111.359 61.2275 111.485 61.2572L114.331 61.9288C114.573 61.985 114.733 62.2482 114.698 62.5305L113.332 73.6946ZM110.431 73.1332L112.413 73.5176L113.714 62.8796L111.78 62.423L110.431 73.1332Z" fill="black"/>
</svg>
