<svg width="1440" height="292" viewBox="0 0 1440 292" fill="none" xmlns="http://www.w3.org/2000/svg">
<path d="M-945 289.633H819.94C819.94 258.31 819.347 227.274 818.76 195.651C818.467 175.556 818.168 155.456 817.874 135.068V134.775L836.197 77.7367L837.969 78.0301L836.789 161.37L925.744 166.099C925.451 185.307 925.451 204.521 925.152 223.431L837.083 219.887V286.976H964.161L962.09 134.482L846.535 121.181C846.241 106.402 845.942 91.3302 845.355 76.5573L961.503 96.6522L961.21 38.1347C974.51 25.4269 987.811 12.719 1001.11 0.0112305C1013.22 2.96813 1025.04 5.62593 1037.16 8.58283L1037.76 55.5713L1071.15 34.591L1147.39 70.3501L1147.1 59.4141L1214.19 18.9262C1224.53 26.3128 1235.17 33.9985 1245.22 41.385L1245.51 76.8507L1282.16 99.3092L1284.23 286.677H2161.66V288.448H1282.46L1280.38 100.19L1245.51 78.9104L1246.4 216.631L1215.37 210.424C1215.07 159.593 1215.07 109.055 1214.77 58.2235L1243.74 75.6601L1243.45 42.2653L1214.19 20.9859L1149.17 60.2944V71.2304L1194.39 92.5102C1194.39 157.527 1193.79 222.838 1193.5 287.856H1160.99L1161.29 113.783L1149.46 109.348L1150.64 227.268C1125.23 223.425 1100.1 219.289 1074.69 215.446V79.5086L1147.69 106.696L1147.39 72.4154L1071.44 36.6563L1037.74 57.9357L1040.11 288.454C1026.81 288.161 1013.51 287.862 1000.51 287.568C1000.21 218.414 999.915 148.961 999.328 79.8076L1035.97 56.7563L1035.38 10.0612L1001.69 2.08213L962.97 39.0263L963.264 98.7222L847.415 78.9217L848.301 119.409L964.15 132.71C964.742 184.726 965.329 236.737 965.922 288.753H835.294V218.115L923.363 221.659L923.656 167.871L834.701 162.849L836.18 84.2373L819.629 135.368C819.923 155.462 820.222 175.562 820.809 195.656C821.102 227.573 821.695 259.495 821.695 290.525V291.411H-945V289.633ZM1038.34 286.682L1035.98 58.8216L1001.11 80.6936L1002.28 285.796L1038.34 286.682ZM1192.32 93.4012L1149.17 73.307L1149.46 107.587L1163.06 112.61L1162.76 286.09H1191.73L1192.32 93.4012ZM1147.69 108.767L1076.47 82.1664V213.973L1148.58 225.203L1147.69 108.767ZM1244.63 214.272L1243.74 78.0301L1216.55 61.4794L1217.14 208.951L1244.63 214.272Z" fill="black"/>
</svg>
