<svg width="390" height="86" viewBox="0 0 390 86" fill="none" xmlns="http://www.w3.org/2000/svg">
<path d="M0.25 84.7302H237.177C237.177 75.6022 237.004 66.5579 236.833 57.3426C236.747 51.4866 236.66 45.6292 236.575 39.6879V39.6025L241.914 22.9807L242.431 23.0662L242.087 47.3526L268.009 48.7307C267.924 54.3282 267.924 59.9274 267.837 65.438L242.172 64.4053V83.9559H279.205L278.601 39.5171L244.927 35.641C244.841 31.3342 244.754 26.942 244.583 22.637L278.43 28.4929L278.345 11.4401C282.22 7.73692 286.096 4.03367 289.972 0.330444C293.501 1.19212 296.946 1.96664 300.478 2.82832L300.652 16.5214L310.383 10.4075L332.6 20.8281L332.516 17.6412L352.066 5.84253C355.08 7.99508 358.18 10.2348 361.109 12.3873L361.194 22.7225L371.874 29.2672L372.477 83.8688H390.75V84.3849H371.961L371.355 29.5239L361.194 23.3227L361.453 63.4564L352.41 61.6476C352.323 46.8348 352.323 32.1073 352.235 17.2943L360.678 22.3755L360.593 12.6439L352.066 6.44275L333.119 17.8978V21.0847L346.296 27.2859C346.296 46.2327 346.122 65.2652 346.037 84.2123H336.563L336.651 33.4851L333.203 32.1927L333.547 66.5562C326.142 65.4363 318.819 64.231 311.414 63.1111V23.4971L332.687 31.4199L332.6 21.43L310.467 11.0093L300.647 17.2104L301.337 84.3866C297.461 84.3012 293.586 84.2141 289.797 84.1284C289.71 63.976 289.624 43.7365 289.453 23.5842L300.131 16.8667L299.959 3.25915L290.141 0.933932L278.858 11.7L278.943 29.0962L245.183 23.326L245.441 35.1246L279.201 39.0007C279.374 54.1589 279.545 69.3156 279.718 84.4737H241.651V63.8889L267.316 64.9216L267.401 49.2471L241.478 47.7836L241.909 24.8751L237.086 39.7753C237.172 45.6309 237.259 51.4884 237.43 57.344C237.515 66.6451 237.688 75.9476 237.688 84.9901V85.2483H0.25V84.7302ZM300.821 83.8702L300.134 17.4686L289.972 23.8424L290.313 83.612L300.821 83.8702ZM345.693 27.5455L333.119 21.6898L333.203 31.6795L337.166 33.1433L337.079 83.6977H345.521L345.693 27.5455ZM332.687 32.0234L311.933 24.2716V62.6818L332.947 65.9544L332.687 32.0234ZM360.937 62.769L360.678 23.0662L352.754 18.2431L352.926 61.2184L360.937 62.769Z" fill="black"/>
</svg>
