<svg width="1440" height="190" viewBox="0 0 1440 190" fill="none" xmlns="http://www.w3.org/2000/svg">
<path d="M255.189 189.065C288.174 189.065 303.683 184.411 304.326 184.214C304.845 184.057 305.199 183.571 305.199 183.036V173.078H473.5C474.184 173.078 474.735 172.527 474.735 171.843C474.735 171.159 474.184 170.608 473.5 170.608H303.963C303.28 170.608 302.728 171.159 302.728 171.843V182.097C299.022 183.06 283.463 186.602 255.189 186.602C226.922 186.602 211.356 183.06 207.65 182.097V173.317C213.036 174.215 232.679 177.205 256.391 177.205C266.176 177.205 273.695 174.116 278.728 168.013C285.992 159.217 286.577 145.677 284.707 135.942C283.085 127.492 277.138 121.925 271.9 117.016C266.802 112.239 262.404 108.121 262.42 102.356C262.428 100.256 266.019 95.5039 269.833 90.4629C277.336 80.5309 287.614 66.9329 287.614 53.5083C287.614 42.4967 283.373 33.6513 276.776 29.558H287.936V88.9559C286.041 89.6479 282.335 91.8549 282.335 98.5839C282.335 105.477 286.132 108.08 287.936 108.92V170.245C287.936 170.929 288.488 171.481 289.171 171.481H297.967C298.651 171.481 299.203 170.929 299.203 170.245V108.665C300.537 107.512 304.004 103.987 304.004 98.5839C304.004 93.2469 300.644 90.2569 299.203 89.2279V29.5498H303.963C304.647 29.5498 305.199 28.998 305.199 28.3144V16.3228C305.199 15.6392 304.647 15.0874 303.963 15.0874H206.414C205.731 15.0874 205.179 15.6392 205.179 16.3228V28.3144C205.179 28.998 205.731 29.5498 206.414 29.5498H209.98V89.1779C208.49 90.1589 205.179 92.9589 205.179 98.5759C205.179 104.267 208.589 107.586 209.98 108.69V159.003H194.422C193.739 159.003 193.187 159.555 193.187 160.239V170.599H-525.616C-526.3 170.599 -526.852 171.151 -526.852 171.835C-526.852 172.518 -526.3 173.07 -525.616 173.07H194.414C195.098 173.07 195.65 172.518 195.65 171.835V161.474H209.972V165.435C209.972 166.119 210.524 166.671 211.208 166.671H221.206C221.89 166.671 222.442 166.119 222.442 165.435V161.474H230.134C233.388 165.757 238.025 168.656 244.086 170.229C244.638 170.369 257.75 173.606 267.732 165.856C274.824 160.354 278.415 150.792 278.415 137.45C278.415 136.824 277.945 136.297 277.327 136.222C276.413 136.107 254.826 133.208 254.826 108.261C254.826 107.915 254.826 107.569 254.818 107.232C256.366 97.6199 258.434 87.9759 265.69 80.8349C270.508 76.0913 273.819 65.4999 273.959 65.0551C274.074 64.6763 274.008 64.2727 273.769 63.9597C273.539 63.6468 273.168 63.4573 272.773 63.4573H233.593C233.206 63.4573 232.836 63.6385 232.605 63.9515C232.375 64.2645 232.3 64.668 232.407 65.0387C234.779 73.184 238.659 77.5985 242.406 81.8649C247.381 87.5309 252.084 92.8849 252.339 107.067C252.191 107.998 252.042 108.928 251.902 109.843C249.753 123.687 248.056 134.625 233.462 136.231C232.91 136.288 232.473 136.708 232.375 137.252C232.35 137.408 230.118 151.311 240.001 159.011H231.37C228.306 154.44 226.832 148.247 226.832 140.258C226.832 130.037 233.709 122.501 239.771 115.855C244.251 110.938 248.13 106.688 248.023 102.315C247.933 98.5759 244.786 94.4489 240.808 89.2359C234.574 81.0579 226.033 69.8567 226.033 54.7107C226.033 31.3287 242.727 29.5745 242.9 29.558C243.559 29.5004 244.053 28.9321 244.029 28.2732C243.996 27.6143 243.452 27.0954 242.793 27.0954H221.206C220.523 27.0954 219.971 27.6473 219.971 28.3308V89.8949C219.971 90.3309 220.201 90.7349 220.572 90.9569C220.613 90.9819 225.168 93.7909 225.168 98.5919C225.168 103.517 220.514 107.067 220.465 107.1C220.152 107.331 219.971 107.701 219.971 108.088V159.028H212.443V108.072C212.443 107.652 212.229 107.265 211.875 107.034C211.702 106.919 207.641 104.184 207.641 98.5759C207.641 93.0249 211.694 91.0149 211.735 90.9899C212.163 90.7839 212.435 90.3479 212.435 89.8779V28.3144C212.435 27.6308 211.883 27.079 211.199 27.079H207.633V17.5582H302.728V27.079H297.967C297.284 27.079 296.732 27.6308 296.732 28.3144V89.8779C296.732 90.3229 296.971 90.7349 297.358 90.9569C297.523 91.0559 301.525 93.4119 301.525 98.5759C301.525 103.88 297.275 107.042 297.234 107.075C296.913 107.306 296.724 107.676 296.724 108.072V169.002H290.398V108.072C290.398 107.512 290.019 107.026 289.484 106.878C289.303 106.828 284.806 105.461 284.806 98.5759C284.806 91.8389 289.146 91.1299 289.336 91.1059C289.945 91.0149 290.407 90.4959 290.407 89.8779V28.3144C290.407 27.6308 289.855 27.079 289.171 27.079H268.111C267.428 27.079 266.876 27.6308 266.876 28.3144C266.876 28.998 267.428 29.5498 268.111 29.5498C279.288 29.5498 285.144 41.599 285.144 53.5C285.144 66.0929 275.153 79.3119 267.864 88.9639C263.277 95.0339 259.966 99.4159 259.957 102.34C259.933 109.184 264.924 113.862 270.22 118.812C275.433 123.687 280.82 128.736 282.294 136.395C284.065 145.578 283.554 158.295 276.833 166.424C272.287 171.925 265.41 174.717 256.399 174.717C228.849 174.717 206.875 170.657 206.653 170.616C206.291 170.55 205.92 170.649 205.64 170.879C205.36 171.118 205.195 171.464 205.195 171.827V183.019C205.195 183.563 205.549 184.041 206.068 184.197C206.694 184.411 222.195 189.065 255.189 189.065ZM275.927 138.528C275.746 150.512 272.476 159.053 266.209 163.92C257.165 170.937 244.819 167.882 244.696 167.849C239.927 166.613 236.155 164.513 233.33 161.482H244.391C244.968 161.482 245.47 161.079 245.594 160.519C245.717 159.95 245.437 159.374 244.91 159.135C234.079 154.037 234.384 141.963 234.697 138.57C247.718 136.725 251.235 127.55 253.253 116.744C256.63 131.322 268.482 137.235 275.927 138.528ZM219.971 164.208H212.443V161.482H219.971V164.208ZM228.495 159.011H222.433V108.657C223.825 107.454 227.63 103.707 227.63 98.5759C227.63 93.4939 223.924 90.2989 222.433 89.2279V29.5498H235.43C229.55 33.0171 223.562 40.5119 223.562 54.7025C223.562 70.6885 232.391 82.2679 238.84 90.7269C242.398 95.3969 245.478 99.4319 245.552 102.372C245.635 105.757 242.077 109.661 237.95 114.183C231.897 120.821 224.369 129.082 224.369 140.25C224.369 147.959 225.728 154.193 228.495 159.011ZM271.052 65.9281C269.956 69.0249 267.288 75.8031 263.952 79.0809C258.409 84.5329 255.683 91.3939 254.003 98.3859C252.347 89.4419 248.394 84.9369 244.259 80.2339C240.948 76.462 237.522 72.5663 235.274 65.9281H271.052Z" fill="black"/>
<path d="M691.642 185.328C691.593 185.328 691.543 185.328 691.494 185.319L621.956 176.911C621.338 176.836 620.869 176.309 620.869 175.683V151.478L606.332 150.177C605.698 150.119 605.204 149.584 605.204 148.949V98.2239H588.954V171.878C588.954 172.562 588.402 173.114 587.718 173.114H473.235C472.552 173.114 472 172.562 472 171.878C472 171.195 472.552 170.643 473.235 170.643H586.474V98.2239H578.156C577.835 98.2239 577.53 98.0999 577.299 97.8779L568.133 89.0899C567.663 88.6369 567.622 87.8959 568.05 87.3939L630.332 14.4144C630.563 14.1426 630.9 13.9861 631.263 13.9778C631.633 14.0026 631.963 14.1261 632.202 14.3896L703.996 95.3739L724.974 73.6147L704.342 49.9691L696.386 53.7741C695.875 54.0212 695.258 53.8812 694.895 53.4447L691.741 49.582V59.5393C691.741 60.0582 691.42 60.5194 690.934 60.7006C690.448 60.8736 689.904 60.7336 689.567 60.3382L647.916 11.4329C647.653 11.12 647.554 10.6917 647.669 10.2964C647.785 9.90103 648.081 9.58803 648.476 9.45634L675.606 0.668536C676.084 0.512036 676.603 0.660235 676.924 1.03914L687.005 12.7507H690.514C691.197 12.7507 691.749 13.3025 691.749 13.9861V18.2605L695.777 22.9386V13.9861C695.777 13.3025 696.328 12.7507 697.012 12.7507H704.655C705.339 12.7507 705.891 13.3025 705.891 13.9861V34.6914L733.482 66.7623C733.894 67.2482 733.877 67.9648 733.432 68.426L728.342 73.7052L731.95 77.8319C732.353 78.2929 732.353 78.9759 731.958 79.4459L719.999 93.4219V144.354C719.999 144.584 719.933 144.815 719.81 145.004L703.799 170.626H1438.86C1439.54 170.626 1440.1 171.178 1440.1 171.862C1440.1 172.545 1439.54 173.097 1438.86 173.097H701.575C701.122 173.097 700.71 172.85 700.496 172.463C700.282 172.068 700.29 171.59 700.529 171.211L717.537 144V92.9609C717.537 92.6649 717.644 92.3849 717.833 92.1619L729.364 78.6469L726.605 75.4842L705.635 97.2359L712.817 105.332C713.229 105.793 713.229 106.485 712.834 106.954L704.927 116.187C704.696 116.458 704.359 116.615 704.005 116.615C703.667 116.623 703.305 116.467 703.074 116.203L695.505 107.753L692.886 110.471V184.092C692.886 184.446 692.738 184.784 692.474 185.015C692.235 185.212 691.939 185.328 691.642 185.328ZM623.34 174.588L690.407 182.692V109.96C690.407 109.639 690.53 109.334 690.753 109.104L693.841 105.9L632.053 36.948L588.954 86.7349V95.7369H606.439C607.123 95.7369 607.674 96.2879 607.674 96.9719V147.805L620.869 148.991V144.658L613.975 144.057C613.341 144 612.847 143.464 612.847 142.83V84.7579C612.847 84.4199 612.978 84.1069 613.226 83.8689C613.464 83.6379 613.802 83.4979 614.123 83.5229L666.085 85.0549C666.752 85.0709 667.288 85.6229 667.288 86.2899V154.303C667.288 154.649 667.14 154.978 666.884 155.217C666.629 155.448 666.291 155.571 665.937 155.538L623.34 151.717V174.588ZM623.34 149.213L664.809 152.936V87.4759L615.318 86.0179V141.685L620.869 142.171V93.5289C620.869 92.8459 621.421 92.2939 622.104 92.2939H657.635C658.319 92.2939 658.87 92.8459 658.87 93.5289V146.635C658.87 146.981 658.722 147.31 658.467 147.549C658.212 147.78 657.866 147.903 657.528 147.87L623.34 144.873V149.213ZM623.34 142.402L656.4 145.301V94.7809H623.34V142.402ZM697.21 105.966L703.963 113.502L710.248 106.163L703.914 99.0149L697.21 105.966ZM632.037 33.8431C632.391 33.8431 632.721 33.9913 632.959 34.2549L695.563 104.121L702.275 97.1609L631.296 17.0993L570.694 88.1099L578.667 95.7449H586.491V86.2819C586.491 85.9849 586.598 85.6969 586.796 85.4749L631.115 34.2796C631.345 34.0078 631.683 33.8595 632.037 33.8513C632.029 33.8431 632.029 33.8431 632.037 33.8431ZM705.866 47.9595L726.687 71.8274L730.846 67.5118L705.858 38.4717V47.9595H705.866ZM650.988 11.2353L689.262 56.1791V46.5594L670.821 24.0175C670.64 23.7952 670.541 23.5234 670.541 23.2351V13.9778C670.541 13.2943 671.093 12.7425 671.776 12.7425H683.735L675.582 3.26284L650.988 11.2353ZM691.733 45.6782L696.188 51.1222L702.654 48.0337L696.065 40.4813C695.867 40.2589 695.76 39.9706 695.76 39.6659V26.7189L691.733 22.0409V45.6782ZM698.223 39.2047L703.395 45.1346V35.6055L698.223 29.5933V39.2047ZM673.004 22.7986L689.254 42.6638V19.1748L685.852 15.2215H673.004V22.7986ZM698.223 25.8047L703.395 31.817V15.2215H698.223V25.8047ZM689.114 15.2215L689.254 15.3862V15.2215H689.114Z" fill="black"/>
<path d="M1797.81 170.907H1065.45C1065.43 164.485 1066.28 152.307 1066.57 146.666C1068.27 147.949 1070.11 148.598 1071.83 148.894C1076.87 149.75 1081.26 144.314 1084.54 133.172C1087.65 122.598 1089.21 108.528 1088.6 96.4489C1088.18 88.2499 1086.34 74.0166 1078.61 70.7274C1074.11 68.8115 1068.29 66.9777 1062.18 65.5223C1063.24 63.6721 1063.67 61.3944 1063.43 58.8371C1063.21 56.6004 1062.17 54.7914 1060.34 53.4511C1055.69 50.0633 1046.74 50.6471 1041.53 51.3543C1044.01 49.2656 1048.49 47.103 1055.39 49.2821C1055.76 49.3972 1056.15 49.3643 1056.5 49.1834C1056.84 49.0025 1057.09 48.6983 1057.21 48.3282C1057.66 46.8152 1068.14 11.1936 1051.84 6.31743C1031.11 0.109227 1021.49 -0.918674 1017.55 2.65823C1015.87 4.18773 1015.32 6.47373 1015.92 9.45043C1016.6 12.8217 1018.28 15.7245 1020.75 17.8624C1019.31 20.0004 1018.38 23.2155 1019.06 28.0341C1021.09 42.4818 1023.88 51.0911 1027.35 53.6814C1025.54 55.5562 1023.25 58.5739 1023.53 61.5671C1023.59 62.2002 1023.78 62.9568 1024.25 63.7379C1017.51 64.2806 1003.01 66.5913 997.307 76.3519C993.247 83.2999 990.933 98.8739 990.192 110.107C989.837 115.452 989.038 132.317 992.456 139.298C988.553 146.551 984.904 158.951 983.109 170.907H870.744C870.061 170.907 869.509 171.458 869.509 172.14C869.509 172.823 870.061 173.374 870.744 173.374H984.22C984.715 173.407 985.217 173.431 985.703 173.374C987.284 161.681 990.768 149.1 994.318 141.872C997.176 144.66 999.943 144.084 1001.08 143.656C1003.44 142.785 1005.07 140.408 1004.98 138.015C1004.94 136.897 1004.42 134.159 1000.45 133.016C999.441 132.728 997.868 132.72 996.031 134.34C995.463 134.841 994.894 135.483 994.326 136.248C992.811 131.264 992.292 121.594 993.041 110.296C993.997 95.9219 996.64 83.1689 999.77 77.7989C1006.32 66.5913 1027.53 66.4432 1027.74 66.4432C1028.4 66.4432 1028.98 65.991 1029.13 65.3578C1029.29 64.7164 1028.99 64.0504 1028.42 63.7379C1026.51 62.7265 1026.41 61.6575 1026.38 61.3039C1026.14 58.7137 1029.84 55.1121 1031.16 54.0596C1031.75 53.5826 1031.87 52.7275 1031.44 52.1107C1031.03 51.5351 1030.27 51.346 1029.64 51.642C1029.57 51.6338 1029.4 51.6256 1029.08 51.3954C1027.8 50.4744 1024.52 46.3219 1021.89 27.6312C1021.41 24.1694 1021.81 21.4311 1023.06 19.5152C1023.7 19.8852 1024.39 20.2224 1025.1 20.5019C1029.15 22.1218 1033.59 21.8916 1036.41 19.9181C1037.92 18.8656 1037.95 17.4759 1037.49 16.5221C1036.22 13.9236 1030.46 12.6326 1026.07 13.973C1025.19 14.2443 1023.92 14.7624 1022.69 15.7409C1020.67 14.0059 1019.28 11.6377 1018.73 8.88303C1018.14 5.98033 1019.15 5.07583 1019.48 4.77983C1023.26 1.34263 1038.31 5.26493 1051 9.06393C1061.75 12.2873 1057.7 35.7307 1054.83 46.1409C1042.14 42.9422 1036.61 52.6535 1036.55 52.7522C1036.28 53.2455 1036.32 53.854 1036.66 54.3062C1037 54.7585 1037.57 54.9723 1038.12 54.849C1042.24 53.9527 1053.98 52.3821 1058.63 55.7782C1059.79 56.6251 1060.42 57.7105 1060.55 59.1084C1060.77 61.452 1060.3 63.4008 1059.17 64.8398C1057.69 64.5191 1056.2 64.2313 1054.72 63.96C1040.65 61.4438 1039.72 63.335 1039.33 64.1491C1038.43 65.9828 1040.84 67.3231 1041.64 67.7672C1047.76 71.1632 1054.82 71.5085 1059.2 68.647C1059.51 68.4414 1059.82 68.2194 1060.1 67.9809C1065.88 69.2884 1072.13 71.0974 1077.47 73.3587C1087.2 77.4948 1088.14 110.633 1081.75 132.342C1079.07 141.469 1075.53 146.6 1072.29 146.041C1070.03 145.655 1068.2 144.602 1066.79 142.9C1067.44 134.208 1068.86 125.854 1071.32 120.945C1073.86 115.855 1082.52 95.8319 1078.34 90.7669C1077.81 90.1249 1076.6 89.1469 1074.41 89.7549C1070.1 90.9479 1066.03 102.04 1064.88 105.412C1061.74 114.695 1060.15 124.333 1060.53 131.857C1060.81 137.415 1062.11 141.231 1063.88 143.821C1063.37 151.328 1062.92 167.47 1063.34 173.357H1064.46C1064.75 173.374 1065.05 173.39 1065.51 173.357H1797.79C1798.48 173.357 1799.03 172.807 1799.03 172.124C1799.03 171.442 1798.49 170.907 1797.81 170.907ZM997.942 136.494C998.625 135.894 999.202 135.647 999.647 135.779C1000.74 136.091 1002.05 136.757 1002.11 138.122C1002.15 139.274 1001.26 140.515 1000.07 140.959C998.683 141.477 997.159 140.852 995.776 139.208C996.5 138.04 997.225 137.119 997.942 136.494ZM1026.8 16.7688C1030.28 15.6587 1033.87 16.8181 1034.74 17.5993C1032.71 18.9972 1029.27 19.0958 1026.17 17.8542C1025.85 17.7308 1025.56 17.5911 1025.26 17.4513C1025.73 17.1717 1026.24 16.9414 1026.8 16.7688ZM1043.61 65.5634C1046.15 65.5716 1050.64 66.1062 1055.87 67.1011C1052.5 68.277 1047.81 67.726 1043.61 65.5634ZM1063.42 131.725C1062.56 114.712 1071.79 93.4799 1075.19 92.5429C1075.43 92.4769 1075.6 92.4519 1075.73 92.4519C1076 92.4519 1076.09 92.5589 1076.13 92.6089C1078.04 94.9189 1074.31 108.577 1068.76 119.678C1066.61 123.971 1065.21 130.746 1064.4 138.122C1063.87 136.297 1063.54 134.159 1063.42 131.725Z" fill="black"/>
<path d="M1020.17 88.6039C1018.81 87.3289 1017.57 86.9679 1016.47 87.5349C1014 88.7929 1014.19 93.9739 1015.76 106.785C1012.94 113.404 1010.03 121.463 1011.21 131.56C1012.6 143.426 1009.34 149.626 1005.91 156.188C1003.86 160.11 1001.76 164.156 1000.72 169.41H1000.71C1000.63 169.41 1000.39 170.677 1000.39 171.359C1000.39 172.042 1000.46 171.943 1000.55 171.943L1013.84 171.984C1014.65 171.984 1016.19 162.059 1016.95 158.597C1018.91 149.758 1020.6 142.119 1021.13 137.07C1021.76 130.944 1020.46 120.813 1019.2 111.02C1019.04 109.803 1018.88 108.512 1018.72 107.204C1018.95 106.645 1019.19 106.094 1019.43 105.551C1022.36 98.8249 1024.88 93.0199 1020.17 88.6039ZM1018.25 136.766C1017.75 141.642 1016.07 149.207 1014.13 157.964C1013.31 161.632 1012.46 165.496 1011.63 169.452L1003.66 169.419C1004.64 164.855 1006.49 161.253 1008.44 157.512C1011.94 150.851 1015.54 143.961 1014.05 131.215C1013.23 124.11 1014.61 117.993 1016.49 112.705C1017.64 121.545 1018.83 131.248 1018.25 136.766ZM1018.03 101.473C1017.48 96.3579 1017.18 91.7859 1017.74 90.3139C1017.85 90.3969 1018.01 90.5199 1018.2 90.7009C1020.83 93.1589 1020.17 96.2759 1018.03 101.473Z" fill="black"/>
<path d="M1170.52 108.755H1171.12C1172.31 108.755 1172.98 109.658 1173.15 111.462C1173.86 115.892 1174.21 119.739 1174.21 123.002C1174.21 127.504 1173.44 130.767 1171.89 132.791C1168.96 136.983 1165.44 140.21 1161.34 142.47C1153.59 147.173 1145.39 149.525 1136.73 149.525C1128.41 149.525 1120.85 147.265 1114.03 142.744C1110.68 139.991 1109 136.965 1109 133.666C1109 128.798 1112.07 124.114 1118.21 119.611C1127.06 114.069 1134.9 110.843 1141.76 109.931C1143.11 110.168 1143.78 110.806 1143.78 111.845V112.447C1143.78 113.595 1142.4 114.334 1139.62 114.662C1138.62 114.662 1135.42 115.701 1130.03 117.779C1125.47 119.985 1121.47 122.436 1118.02 125.134C1114.85 128.252 1113.27 131.059 1113.27 133.556C1113.27 136.364 1114.88 139.043 1118.11 141.595C1122.74 144.439 1128.23 145.861 1134.59 145.861H1135.66C1146.49 145.861 1156.11 142.379 1164.54 135.416C1167.34 132.663 1169.02 130.138 1169.57 127.841C1169.82 126.602 1169.95 124.925 1169.95 122.81C1169.95 120.203 1169.57 116.129 1168.8 110.587V110.505C1169.18 109.339 1169.76 108.755 1170.52 108.755ZM1150.75 124.341C1152.08 124.341 1153.21 125.216 1154.14 126.966V127.513C1154.14 128.406 1153.34 129.026 1151.74 129.373H1151.19C1149.81 129.373 1148.97 128.315 1148.68 126.201C1148.68 125.143 1149.37 124.524 1150.75 124.341ZM1188.93 109.412H1189.66C1190.59 109.412 1191.22 109.977 1191.55 111.107V111.517C1191.55 112.265 1190.5 113.714 1188.41 115.865C1184.32 120.696 1182.28 124.35 1182.28 126.83V127.459C1182.55 129.938 1183.6 131.177 1185.43 131.177C1186.98 131.177 1187.75 131.806 1187.75 133.064V133.693C1187.75 134.823 1186.98 135.461 1185.43 135.607C1181.91 135.607 1179.52 133.666 1178.26 129.783L1178.04 127.459V127.158C1178.04 122.619 1181.39 116.813 1188.08 109.74L1188.93 109.412ZM1185.34 131.341C1196.12 132.034 1206.73 132.034 1217.17 131.341V135.607C1206.69 136.464 1196.08 136.464 1185.34 135.607V131.341ZM1222.29 134.295C1220.3 135.37 1218.09 135.798 1215.67 135.58C1214.14 135.416 1213.42 134.705 1213.51 133.447C1213.6 132.171 1214.29 131.433 1215.59 131.232C1218.7 131.177 1220.97 130.512 1222.39 129.236C1223.82 127.96 1224.7 126.11 1225.05 123.685C1225.41 121.261 1226.09 119.739 1227.07 119.119C1227.07 119.009 1227.34 118.946 1227.89 118.927C1229.84 119.31 1230.47 120.778 1229.78 123.33C1229.07 126.684 1228.14 129.081 1226.99 130.521C1225.84 131.943 1224.27 133.201 1222.29 134.295ZM1224.94 103.369C1226.27 103.369 1227.4 104.244 1228.33 105.994V106.541C1228.33 107.452 1227.53 108.072 1225.92 108.4H1225.38C1223.99 108.4 1223.15 107.343 1222.86 105.228C1222.86 104.171 1223.55 103.551 1224.94 103.369ZM1269.23 98.9389C1270.33 98.9389 1271.06 99.5949 1271.42 100.908V101.181C1271.42 102.038 1270.97 102.74 1270.05 103.287C1266.63 105.802 1262.73 108.983 1258.35 112.83C1256 114.89 1253.86 117.013 1251.93 119.201V119.255C1253.26 121.005 1254.63 123.731 1256.05 127.431C1257.48 131.114 1257.12 134.668 1254.99 138.095C1253.73 139.535 1252.7 140.429 1251.9 140.775C1250.99 141.395 1249.86 141.987 1248.51 142.552C1247.76 142.844 1246.85 142.99 1245.77 142.99H1245.58C1242.57 142.99 1240.65 141.914 1239.81 139.763C1239.23 138.542 1238.94 137.22 1238.94 135.798C1238.94 132.007 1241.45 126.629 1246.48 119.666C1241.23 113.158 1238.61 109.539 1238.61 108.81V108.701C1238.61 107.844 1239.22 107.151 1240.44 106.623L1240.85 106.568C1241.84 106.568 1244.48 109.612 1248.78 115.701L1249.22 116.166C1249.24 116.074 1249.83 115.418 1251 114.197C1255.9 109.33 1259.68 105.848 1262.34 103.752C1265.19 101.345 1267.18 99.7959 1268.33 99.1029C1268.66 98.9939 1268.96 98.9389 1269.23 98.9389ZM1249.08 122.537C1245.47 127.878 1243.49 132.107 1243.15 135.224V135.716C1243.15 137.12 1243.65 138.114 1244.65 138.697L1245.99 138.888C1247.51 138.888 1249.05 138.132 1250.64 136.619C1251.5 135.653 1252.05 134.541 1252.31 133.283C1252.47 132.317 1252.55 131.642 1252.55 131.259C1252.55 128.634 1251.42 125.727 1249.14 122.537H1249.08ZM1271.97 105.119C1273.04 105.119 1273.76 105.702 1274.1 106.869L1274.13 107.252C1274.13 108.655 1273.59 114.935 1272.52 126.091L1271.8 135.388C1271.31 136.482 1270.62 137.029 1269.73 137.029H1269.7C1268.24 136.865 1267.51 136.19 1267.51 135.005C1268.7 126.018 1269.29 120.349 1269.29 117.998C1269.62 113.331 1269.78 109.749 1269.78 107.252C1269.78 106.176 1270.43 105.465 1271.72 105.119H1271.97Z" fill="black"/>
<path d="M384.562 108.755H385.164C386.349 108.755 387.023 109.658 387.188 111.462C387.898 115.892 388.254 119.739 388.254 123.002C388.254 127.504 387.479 130.767 385.93 132.791C382.995 136.983 379.477 140.21 375.375 142.47C367.628 147.173 359.424 149.525 350.766 149.525C342.453 149.525 334.888 147.265 328.07 142.744C324.716 139.991 323.039 136.965 323.039 133.666C323.039 128.798 326.111 124.114 332.254 119.611C341.095 114.069 348.943 110.843 355.797 109.931C357.146 110.168 357.82 110.806 357.82 111.845V112.447C357.82 113.595 356.435 114.334 353.664 114.662C352.661 114.662 349.462 115.701 344.066 117.779C339.509 119.985 335.508 122.436 332.062 125.134C328.891 128.252 327.305 131.059 327.305 133.556C327.305 136.364 328.918 139.043 332.145 141.595C336.775 144.439 342.271 145.861 348.633 145.861H349.699C360.527 145.861 370.152 142.379 378.574 135.416C381.382 132.663 383.059 130.138 383.605 127.841C383.861 126.602 383.988 124.925 383.988 122.81C383.988 120.203 383.605 116.129 382.84 110.587V110.505C383.223 109.339 383.797 108.755 384.562 108.755ZM364.793 124.341C366.124 124.341 367.254 125.216 368.184 126.966V127.513C368.184 128.406 367.382 129.026 365.777 129.373H365.23C363.845 129.373 363.007 128.315 362.715 126.201C362.715 125.143 363.408 124.524 364.793 124.341ZM402.965 109.412H403.703C404.633 109.412 405.262 109.977 405.59 111.107V111.517C405.59 112.265 404.542 113.714 402.445 115.865C398.362 120.696 396.32 124.35 396.32 126.83V127.459C396.594 129.938 397.642 131.177 399.465 131.177C401.014 131.177 401.789 131.806 401.789 133.064V133.693C401.789 134.823 401.014 135.461 399.465 135.607C395.947 135.607 393.559 133.666 392.301 129.783L392.082 127.459V127.158C392.082 122.619 395.427 116.813 402.117 109.74L402.965 109.412ZM412.152 120.103H412.289C413.456 120.103 414.422 120.677 415.188 121.826C415.971 122.974 416.327 124.642 416.254 126.83C416.199 128.999 415.598 131.004 414.449 132.845C413.301 134.686 411.451 135.634 408.898 135.689C406.638 135.507 405.079 134.577 404.223 132.9C402.546 134.905 401.005 135.798 399.602 135.58C398.453 135.27 397.861 134.623 397.824 133.638C397.77 132.636 398.034 131.952 398.617 131.587C399.201 131.205 399.829 130.977 400.504 130.904C401.197 130.813 401.953 130.257 402.773 129.236C403.594 128.215 404.87 126.438 406.602 123.904C408.333 121.37 410.184 120.103 412.152 120.103ZM408.652 131.587C409.691 131.861 410.703 131.533 411.688 130.603C412.69 129.655 413.155 128.589 413.082 127.404C413.027 126.201 412.617 125.435 411.852 125.107C411.086 124.779 410.092 125.435 408.871 127.076C407.65 128.716 406.948 129.783 406.766 130.275C406.984 130.877 407.613 131.314 408.652 131.587ZM433.07 119.611C433.891 119.611 434.529 120.021 434.984 120.841C435.112 121.115 435.176 121.406 435.176 121.716V121.798C435.176 122.272 434.93 123.138 434.438 124.396C433.945 125.654 433.471 126.775 433.016 127.759C432.578 128.744 432.505 129.546 432.797 130.166C433.089 130.785 433.608 131.214 434.355 131.451C435.121 131.669 435.54 132.344 435.613 133.474C435.613 134.367 435.158 135.024 434.246 135.443C433.991 135.516 433.763 135.552 433.562 135.552H433.289C431.083 135.406 429.826 134.459 429.516 132.709C426.544 137.156 422.671 141.933 417.895 147.037C415.962 149.151 414.249 151.002 412.754 152.587C412.043 153.371 411.569 153.763 411.332 153.763C411.113 153.891 410.831 153.955 410.484 153.955C409.628 153.955 408.98 153.49 408.543 152.56C408.434 152.305 408.379 152.077 408.379 151.877V151.712C408.379 151.056 408.789 150.382 409.609 149.689C409.609 149.634 411.177 148.076 414.312 145.013C417.612 141.696 419.681 139.481 420.52 138.369C422.944 135.525 425.004 132.845 426.699 130.33C428.65 127.304 429.944 124.706 430.582 122.537C431.238 120.349 432.068 119.374 433.07 119.611ZM433.344 99.2669C434.674 99.2669 435.805 100.142 436.734 101.892V102.439C436.734 103.332 435.932 103.952 434.328 104.298H433.781C432.396 104.298 431.557 103.241 431.266 101.127C431.266 100.069 431.958 99.4489 433.344 99.2669ZM450.406 135.607H432.578V130.63H450.406V135.607ZM466.539 135.607H448.711V130.63H466.539V135.607ZM469.52 113.787C469.283 111.672 469.401 110.36 469.875 109.849C470.349 109.321 471.005 109.166 471.844 109.384C472.682 109.585 473.293 110.925 473.676 113.404C474.059 115.865 474.286 119.082 474.359 123.056C474.432 127.012 473.849 130.038 472.609 132.134C471.388 134.231 469.182 135.388 465.992 135.607C464.443 135.461 463.668 134.823 463.668 133.693V133.064C463.668 131.806 464.443 131.177 465.992 131.177C467.815 131.177 469.036 130.229 469.656 128.334C470.294 126.438 470.486 124.068 470.23 121.224C469.993 118.362 469.757 115.883 469.52 113.787ZM484.969 105.119C486.044 105.119 486.755 105.702 487.102 106.869L487.129 107.252C487.129 108.655 486.591 114.935 485.516 126.091L484.805 135.388C484.312 136.482 483.62 137.029 482.727 137.029H482.699C481.241 136.865 480.512 136.19 480.512 135.005C481.697 126.018 482.289 120.349 482.289 117.998C482.617 113.331 482.781 109.749 482.781 107.252C482.781 106.176 483.428 105.465 484.723 105.119H484.969Z" fill="black"/>
<path d="M818.844 108.755H819.445C820.63 108.755 821.305 109.658 821.469 111.462C822.18 115.892 822.535 119.739 822.535 123.002C822.535 127.504 821.76 130.767 820.211 132.791C817.276 136.983 813.758 140.21 809.656 142.47C801.909 147.173 793.706 149.525 785.047 149.525C776.734 149.525 769.169 147.265 762.352 142.744C758.997 139.991 757.32 136.965 757.32 133.666C757.32 128.798 760.392 124.114 766.535 119.611C775.376 114.069 783.224 110.843 790.078 109.931C791.427 110.168 792.102 110.806 792.102 111.845V112.447C792.102 113.595 790.716 114.334 787.945 114.662C786.943 114.662 783.743 115.701 778.348 117.779C773.79 119.985 769.789 122.436 766.344 125.134C763.172 128.252 761.586 131.059 761.586 133.556C761.586 136.364 763.199 139.043 766.426 141.595C771.056 144.439 776.552 145.861 782.914 145.861H783.98C794.809 145.861 804.434 142.379 812.855 135.416C815.663 132.663 817.34 130.138 817.887 127.841C818.142 126.602 818.27 124.925 818.27 122.81C818.27 120.203 817.887 116.129 817.121 110.587V110.505C817.504 109.339 818.078 108.755 818.844 108.755ZM799.074 124.341C800.405 124.341 801.535 125.216 802.465 126.966V127.513C802.465 128.406 801.663 129.026 800.059 129.373H799.512C798.126 129.373 797.288 128.315 796.996 126.201C796.996 125.143 797.689 124.524 799.074 124.341ZM837.246 109.412H837.984C838.914 109.412 839.543 109.977 839.871 111.107V111.517C839.871 112.265 838.823 113.714 836.727 115.865C832.643 120.696 830.602 124.35 830.602 126.83V127.459C830.875 129.938 831.923 131.177 833.746 131.177C835.296 131.177 836.07 131.806 836.07 133.064V133.693C836.07 134.823 835.296 135.461 833.746 135.607C830.228 135.607 827.84 133.666 826.582 129.783L826.363 127.459V127.158C826.363 122.619 829.708 116.813 836.398 109.74L837.246 109.412ZM851.219 135.607H833.391V130.63H851.219V135.607ZM863.824 125.736C863.751 126.265 863.806 127.203 863.988 128.552C864.171 129.883 864.617 130.685 865.328 130.959C866.057 131.232 866.549 131.606 866.805 132.08C867.06 132.554 867.142 133.119 867.051 133.775C866.96 134.431 866.641 134.942 866.094 135.306C865.547 135.671 864.827 135.643 863.934 135.224C863.059 134.805 862.193 133.939 861.336 132.627C860.497 131.296 860.233 129.619 860.543 127.595C860.853 125.554 861.491 124.597 862.457 124.724C863.441 124.852 863.897 125.189 863.824 125.736ZM860.434 114.115C859.923 111.563 859.978 109.986 860.598 109.384C861.236 108.765 861.892 108.728 862.566 109.275C863.241 109.804 863.861 111.308 864.426 113.787C864.991 116.266 865.091 119.401 864.727 123.193C864.362 126.966 862.758 129.929 859.914 132.08C857.089 134.212 853.88 135.388 850.289 135.607C848.74 135.461 847.965 134.823 847.965 133.693V133.064C847.965 131.806 848.74 131.177 850.289 131.177C852.513 131.177 854.764 130.248 857.043 128.388C859.34 126.511 860.607 124.296 860.844 121.744C861.099 119.192 860.962 116.649 860.434 114.115ZM885.918 84.4739C886.939 84.4739 887.641 85.0479 888.023 86.1969V86.7709C888.023 87.4819 885.781 89.1959 881.297 91.9119C876.831 94.6099 873.212 96.7519 870.441 98.3369C867.671 99.9049 865.483 101.008 863.879 101.646C862.293 102.266 861.345 101.956 861.035 100.716C860.743 99.4589 861.363 98.4469 862.895 97.6809C864.444 96.8969 867.151 95.5389 871.016 93.6069C874.88 91.6559 879.465 88.7399 884.77 84.8569L885.918 84.4739ZM881.625 130.767C882.154 131.059 882.673 131.232 883.184 131.287C883.694 131.323 884.095 131.679 884.387 132.353C884.697 133.028 884.688 133.693 884.359 134.349C884.031 134.987 883.539 135.388 882.883 135.552C882.245 135.698 881.47 135.498 880.559 134.951C879.665 134.386 878.954 133.565 878.426 132.49C877.897 131.414 878.307 130.038 879.656 128.361C881.023 126.684 881.561 126.593 881.27 128.087C880.996 129.582 881.115 130.475 881.625 130.767ZM877.66 120.103H877.797C878.964 120.103 879.93 120.677 880.695 121.826C881.479 122.974 881.835 124.642 881.762 126.83C881.707 128.999 881.105 131.004 879.957 132.845C878.809 134.686 876.958 135.634 874.406 135.689C872.146 135.507 870.587 134.577 869.73 132.9C868.053 134.905 866.513 135.798 865.109 135.58C863.961 135.27 863.368 134.623 863.332 133.638C863.277 132.636 863.542 131.952 864.125 131.587C864.708 131.205 865.337 130.977 866.012 130.904C866.704 130.813 867.461 130.257 868.281 129.236C869.102 128.215 870.378 126.438 872.109 123.904C873.841 121.37 875.691 120.103 877.66 120.103ZM874.16 131.587C875.199 131.861 876.211 131.533 877.195 130.603C878.198 129.655 878.663 128.589 878.59 127.404C878.535 126.201 878.125 125.435 877.359 125.107C876.594 124.779 875.6 125.435 874.379 127.076C873.158 128.716 872.456 129.783 872.273 130.275C872.492 130.877 873.121 131.314 874.16 131.587ZM886.52 113.787C886.283 111.672 886.401 110.36 886.875 109.849C887.349 109.321 888.005 109.166 888.844 109.384C889.682 109.585 890.293 110.925 890.676 113.404C891.059 115.865 891.286 119.082 891.359 123.056C891.432 127.012 890.849 130.038 889.609 132.134C888.388 134.231 886.182 135.388 882.992 135.607C881.443 135.461 880.668 134.823 880.668 133.693V133.064C880.668 131.806 881.443 131.177 882.992 131.177C884.815 131.177 886.036 130.229 886.656 128.334C887.294 126.438 887.486 124.068 887.23 121.224C886.993 118.362 886.757 115.883 886.52 113.787ZM901.969 105.119C903.044 105.119 903.755 105.702 904.102 106.869L904.129 107.252C904.129 108.655 903.591 114.935 902.516 126.091L901.805 135.388C901.312 136.482 900.62 137.029 899.727 137.029H899.699C898.241 136.865 897.512 136.19 897.512 135.005C898.697 126.018 899.289 120.349 899.289 117.998C899.617 113.331 899.781 109.749 899.781 107.252C899.781 106.176 900.428 105.465 901.723 105.119H901.969Z" fill="black"/>
</svg>
