<svg width="390" height="69" viewBox="0 0 390 69" fill="none" xmlns="http://www.w3.org/2000/svg">
<path d="M32.6374 65.5483C43.2088 65.5483 48.1793 64.0503 48.3854 63.9869C48.5517 63.9364 48.6652 63.7799 48.6652 63.6077V60.4024H102.604C102.823 60.4024 103 60.2251 103 60.0049C103 59.7847 102.823 59.6074 102.604 59.6074H48.269C48.0501 59.6074 47.8732 59.7847 47.8732 60.0049V63.3055C46.6855 63.6154 41.699 64.7555 32.6374 64.7555C23.5781 64.7555 18.5893 63.6154 17.4015 63.3055V60.4794C19.1277 60.7684 25.4231 61.7308 33.0226 61.7308C36.1586 61.7308 38.5684 60.7365 40.1814 58.7721C42.5095 55.9408 42.697 51.5826 42.0977 48.4491C41.5778 45.7292 39.6718 43.9373 37.9931 42.3572C36.3592 40.8195 34.9497 39.494 34.9549 37.6384C34.9574 36.9624 36.1083 35.4329 37.3307 33.8103C39.7353 30.6133 43.0293 26.2364 43.0293 21.9153C43.0293 18.3709 41.6701 15.5237 39.5558 14.2061H43.1325V33.3252C42.5252 33.5479 41.3375 34.2583 41.3375 36.4243C41.3375 38.643 42.5543 39.4808 43.1325 39.7512V59.4905C43.1325 59.7107 43.3094 59.8884 43.5283 59.8884H46.3474C46.5666 59.8884 46.7435 59.7107 46.7435 59.4905V39.6691C47.171 39.298 48.2822 38.1634 48.2822 36.4243C48.2822 34.7064 47.2053 33.744 46.7435 33.4127V14.2035H48.269C48.4883 14.2035 48.6652 14.0259 48.6652 13.8059V9.94599C48.6652 9.72595 48.4883 9.54834 48.269 9.54834H17.0054C16.7865 9.54834 16.6096 9.72595 16.6096 9.94599V13.8059C16.6096 14.0259 16.7865 14.2035 17.0054 14.2035H18.1483V33.3966C17.6708 33.7124 16.6096 34.6137 16.6096 36.4217C16.6096 38.2535 17.7025 39.3218 18.1483 39.6772V55.872H13.1621C12.9432 55.872 12.7663 56.0496 12.7663 56.2698V59.6045L-7.10388 59.8247C-7.3231 59.8247 -7.5 60.0023 -7.5 60.2225C-7.5 60.4423 -7.3231 60.62 -7.10388 60.62L13.1595 60.3999C13.3787 60.3999 13.5556 60.2222 13.5556 60.0023V56.6673H18.1457V57.9423C18.1457 58.1625 18.3226 58.3401 18.5419 58.3401H21.7461C21.9653 58.3401 22.1423 58.1625 22.1423 57.9423V56.6673H24.6075C25.6503 58.0459 27.1365 58.9791 29.079 59.4854C29.2559 59.5305 33.4582 60.5724 36.6573 58.0778C38.9302 56.3068 40.0811 53.229 40.0811 48.9345C40.0811 48.733 39.9305 48.5633 39.7324 48.5392C39.4395 48.5022 32.521 47.5691 32.521 39.5391C32.521 39.4277 32.5211 39.3164 32.5185 39.2079C33.0146 36.114 33.6774 33.0097 36.0029 30.7112C37.547 29.1843 38.6081 25.7752 38.653 25.632C38.6899 25.51 38.6687 25.3801 38.5921 25.2794C38.5184 25.1787 38.3995 25.1177 38.2729 25.1177H25.7161C25.592 25.1177 25.4734 25.176 25.3994 25.2768C25.3257 25.3775 25.3017 25.5074 25.336 25.6267C26.0962 28.2485 27.3397 29.6695 28.5406 31.0427C30.135 32.8665 31.6423 34.5899 31.724 39.1548C31.6766 39.4544 31.6288 39.7538 31.5839 40.0483C30.8952 44.5044 30.3513 48.0252 25.6741 48.5421C25.4972 48.5604 25.3571 48.6956 25.3257 48.8707C25.3177 48.9209 24.6024 53.3961 27.7698 55.8745H25.0036C24.0216 54.4032 23.5492 52.4098 23.5492 49.8383C23.5492 46.5484 25.7532 44.1227 27.6961 41.9835C29.1319 40.4008 30.3751 39.0328 30.3408 37.6252C30.3119 36.4217 29.3033 35.0933 28.0284 33.4153C26.0305 30.783 23.2932 27.1775 23.2932 22.3023C23.2932 14.7761 28.6434 14.2115 28.6989 14.2061C28.9101 14.1876 29.0684 14.0047 29.0607 13.7926C29.0501 13.5805 28.8758 13.4135 28.6646 13.4135H21.7461C21.5272 13.4135 21.3503 13.5911 21.3503 13.8111V33.6274C21.3503 33.7678 21.4241 33.8978 21.543 33.9693C21.5561 33.9773 23.0159 34.8815 23.0159 36.4268C23.0159 38.0121 21.5244 39.1548 21.5087 39.1654C21.4083 39.2397 21.3503 39.3588 21.3503 39.4834V55.88H18.9377V39.4783C18.9377 39.3431 18.8691 39.2185 18.7556 39.1441C18.7002 39.1071 17.3987 38.2268 17.3987 36.4217C17.3987 34.6349 18.6976 33.9879 18.7108 33.9799C18.8479 33.9136 18.9351 33.7732 18.9351 33.622V13.8059C18.9351 13.5858 18.7582 13.4082 18.539 13.4082H17.3961V10.3436H47.8732V13.4082H46.3474C46.1285 13.4082 45.9516 13.5858 45.9516 13.8059V33.622C45.9516 33.7652 46.0282 33.8978 46.1522 33.9693C46.2051 34.0011 47.4877 34.7595 47.4877 36.4217C47.4877 38.1289 46.1256 39.1467 46.1125 39.1573C46.0096 39.2317 45.949 39.3508 45.949 39.4783V59.0905H43.9216V39.4783C43.9216 39.298 43.8001 39.1416 43.6286 39.0939C43.5706 39.0778 42.1294 38.6378 42.1294 36.4217C42.1294 34.2532 43.5203 34.025 43.5812 34.0172C43.7764 33.9879 43.9245 33.8209 43.9245 33.622V13.8059C43.9245 13.5858 43.7475 13.4082 43.5283 13.4082H36.7788C36.5599 13.4082 36.383 13.5858 36.383 13.8059C36.383 14.0259 36.5599 14.2035 36.7788 14.2035C40.3609 14.2035 42.2377 18.0819 42.2377 21.9126C42.2377 25.966 39.0357 30.221 36.6996 33.3278C35.2295 35.2816 34.1684 36.6921 34.1655 37.6332C34.1578 39.8362 35.7574 41.3419 37.4547 42.9353C39.1254 44.5044 40.8519 46.1296 41.3243 48.5949C41.8919 51.5507 41.7281 55.6441 39.5741 58.2606C38.1171 60.0313 35.9131 60.93 33.0252 60.93C24.1956 60.93 17.1532 59.6232 17.082 59.61C16.966 59.5887 16.8471 59.6206 16.7574 59.6946C16.6676 59.7715 16.6147 59.8829 16.6147 59.9998V63.6022C16.6147 63.7774 16.7282 63.9312 16.8945 63.9814C17.0952 64.0503 22.0631 65.5483 32.6374 65.5483ZM39.2838 49.2815C39.2257 53.1389 38.1777 55.8881 36.1692 57.4547C33.2707 59.7133 29.3139 58.7299 29.2745 58.7193C27.7461 58.3215 26.5372 57.6455 25.6318 56.6699H29.1767C29.3617 56.6699 29.5225 56.5402 29.5623 56.3599C29.6017 56.1768 29.5119 55.9914 29.343 55.9145C25.8718 54.2735 25.9696 50.3871 26.0699 49.295C30.243 48.7011 31.3702 45.7478 32.0169 42.2696C33.0992 46.962 36.8977 48.8653 39.2838 49.2815ZM21.3503 57.5474H18.9377V56.6699H21.3503V57.5474ZM24.0822 55.8745H22.1394V39.6666C22.5855 39.2793 23.805 38.0732 23.805 36.4217C23.805 34.7859 22.6172 33.7575 22.1394 33.4127V14.2035H26.3048C24.4203 15.3196 22.5012 17.732 22.5012 22.2997C22.5012 27.4453 25.3308 31.1724 27.3977 33.8952C28.538 35.3984 29.5251 36.6972 29.5488 37.6435C29.5754 38.7331 28.4351 39.9897 27.1124 41.4453C25.1725 43.5819 22.7599 46.241 22.7599 49.8357C22.7599 52.3171 23.1954 54.3237 24.0822 55.8745ZM37.7213 25.913C37.3701 26.9098 36.515 29.0916 35.4458 30.1466C33.6694 31.9015 32.7957 34.1099 32.2573 36.3605C31.7265 33.4816 30.4596 32.0315 29.1344 30.5177C28.0733 29.3036 26.9753 28.0497 26.2548 25.913H37.7213Z" fill="black"/>
<path d="M175.278 64.5483C175.261 64.5483 175.244 64.5484 175.227 64.5453L151.236 61.6777C151.022 61.6521 150.861 61.4724 150.861 61.2589V53.0036L145.845 52.5599C145.627 52.5401 145.456 52.3577 145.456 52.1411V34.8411H139.85V59.9612C139.85 60.1944 139.659 60.3827 139.423 60.3827H99.9261C99.6904 60.3827 99.5 60.1944 99.5 59.9612C99.5 59.7282 99.6904 59.54 99.9261 59.54H138.994V34.8411H136.124C136.014 34.8411 135.908 34.7988 135.829 34.7231L132.666 31.7259C132.504 31.5714 132.49 31.3187 132.638 31.1475L154.125 6.25746C154.205 6.16476 154.321 6.11138 154.447 6.10855C154.574 6.11701 154.688 6.15913 154.771 6.249L179.54 33.8691L186.777 26.448L179.659 18.3836L176.914 19.6813C176.738 19.7656 176.525 19.7178 176.4 19.5689L175.312 18.2515V21.6475C175.312 21.8245 175.201 21.9818 175.033 22.0436C174.866 22.1026 174.678 22.0548 174.562 21.92L160.192 5.2406C160.101 5.13389 160.067 4.98781 160.107 4.85299C160.147 4.71814 160.249 4.61139 160.385 4.56647L169.745 1.56935C169.91 1.51597 170.089 1.56652 170.2 1.69574L173.678 5.69004H174.889C175.124 5.69004 175.315 5.87824 175.315 6.11138V7.56919L176.704 9.16468V6.11138C176.704 5.87824 176.894 5.69004 177.13 5.69004H179.767C180.003 5.69004 180.194 5.87824 180.194 6.11138V13.173L189.713 24.111C189.855 24.2767 189.849 24.5211 189.696 24.6784L187.939 26.4789L189.184 27.8863C189.323 28.0435 189.323 28.2765 189.187 28.4368L185.061 33.2034V50.574C185.061 50.6524 185.038 50.7312 184.996 50.7957L179.472 59.5342H306.272H433.072C433.307 59.5342 433.5 59.7224 433.5 59.9557C433.5 60.1886 433.307 60.3769 433.072 60.3769H178.705C178.548 60.3769 178.406 60.2927 178.332 60.1607C178.259 60.026 178.261 59.8629 178.344 59.7337L184.212 50.4532V33.0461C184.212 32.9452 184.249 32.8497 184.314 32.7736L188.292 28.1643L187.34 27.0856L180.105 34.5041L182.583 37.2653C182.725 37.4225 182.725 37.6586 182.589 37.8185L179.861 40.9675C179.781 41.0599 179.665 41.1134 179.543 41.1134C179.426 41.1162 179.302 41.063 179.222 40.9729L176.61 38.091L175.707 39.018V64.1268C175.707 64.2475 175.656 64.3628 175.565 64.4416C175.482 64.5088 175.38 64.5483 175.278 64.5483ZM151.713 60.8854L174.852 63.6493V38.8437C174.852 38.7342 174.894 38.6302 174.971 38.5518L176.036 37.459L154.719 13.9427L139.85 30.9227V33.9929H145.882C146.118 33.9929 146.308 34.1808 146.308 34.4141V51.7509L150.861 52.1554V50.6776L148.482 50.4727C148.263 50.4532 148.093 50.2704 148.093 50.0542V30.2485C148.093 30.1332 148.138 30.0264 148.224 29.9453C148.306 29.8665 148.422 29.8187 148.533 29.8273L166.46 30.3497C166.691 30.3552 166.875 30.5435 166.875 30.7709V53.9671C166.875 54.0851 166.824 54.1973 166.736 54.2788C166.648 54.3576 166.532 54.3996 166.409 54.3883L151.713 53.0852V60.8854ZM151.713 52.2312L166.02 53.5009V31.1754L148.946 30.6782V49.6637L150.861 49.8294V33.2398C150.861 33.0069 151.051 32.8186 151.287 32.8186H163.545C163.781 32.8186 163.971 33.0069 163.971 33.2398V51.3519C163.971 51.4699 163.92 51.5821 163.832 51.6636C163.744 51.7424 163.625 51.7844 163.508 51.7731L151.713 50.751V52.2312ZM151.713 49.9082L163.119 50.8969V33.6668H151.713V49.9082ZM177.199 37.4815L179.529 40.0517L181.697 37.5487L179.512 35.1109L177.199 37.4815ZM154.714 12.8837C154.836 12.8837 154.95 12.9343 155.032 13.0242L176.631 36.8523L178.946 34.4786L154.458 7.17315L133.55 31.3917L136.301 33.9956H139V30.7682C139 30.6669 139.037 30.5687 139.105 30.493L154.396 13.0326C154.475 12.9399 154.592 12.8893 154.714 12.8865C154.711 12.8837 154.711 12.8837 154.714 12.8837ZM180.185 17.6982L187.368 25.8384L188.803 24.3666L180.182 14.4623V17.6982H180.185ZM161.252 5.17321L174.457 20.5015V17.2207L168.094 9.53264C168.032 9.45682 167.998 9.36413 167.998 9.2658V6.10855C167.998 5.87544 168.188 5.68725 168.424 5.68725H172.55L169.737 2.45415L161.252 5.17321ZM175.309 16.9201L176.846 18.7768L179.077 17.7235L176.804 15.1477C176.735 15.0719 176.698 14.9735 176.698 14.8696V10.454L175.309 8.85851V16.9201ZM177.548 14.7123L179.333 16.7347V13.4848L177.548 11.4343V14.7123ZM168.848 9.11693L174.454 15.8921V7.88101L173.28 6.53272H168.848V9.11693ZM177.548 10.1422L179.333 12.1927V6.53272H177.548V10.1422ZM174.406 6.53272L174.454 6.58889V6.53272H174.406Z" fill="black"/>
<path d="M390.072 59.9166L295.22 59.6798C295.213 57.45 295.511 53.2215 295.613 51.2629C296.209 51.7084 296.854 51.9337 297.458 52.0365C299.225 52.3337 300.765 50.4462 301.915 46.5775C303.006 42.906 303.553 38.0206 303.339 33.8266C303.192 30.9797 302.547 26.0376 299.836 24.8955C298.257 24.2303 296.216 23.5936 294.073 23.0882C294.445 22.4458 294.596 21.6549 294.512 20.767C294.435 19.9904 294.07 19.3623 293.428 18.8969C291.797 17.7206 288.658 17.9233 286.831 18.1688C287.701 17.4436 289.272 16.6927 291.692 17.4493C291.822 17.4893 291.958 17.4779 292.081 17.415C292.2 17.3522 292.288 17.2466 292.33 17.1181C292.488 16.5928 296.164 4.22425 290.447 2.53113C283.176 0.375526 279.803 0.0186192 278.421 1.26059C277.831 1.79166 277.639 2.5854 277.849 3.61897C278.088 4.78955 278.677 5.79746 279.543 6.53978C279.038 7.28214 278.712 8.39849 278.95 10.0716C279.662 15.0881 280.641 18.0774 281.858 18.9768C281.223 19.6278 280.42 20.6756 280.518 21.7149C280.539 21.9347 280.606 22.1974 280.771 22.4687C278.407 22.6571 273.321 23.4594 271.321 26.8485C269.897 29.261 269.086 34.6686 268.826 38.5689C268.701 40.4248 268.421 46.2806 269.62 48.7046C268.251 51.2229 266.971 55.5285 266.342 59.6798H226.933C226.694 59.6798 226.5 59.8711 226.5 60.108C226.5 60.3451 226.694 60.5364 226.933 60.5364H266.731C266.905 60.5479 267.081 60.5562 267.251 60.5364C267.806 56.4764 269.028 52.108 270.273 49.5983C271.275 50.5664 272.246 50.3664 272.644 50.2177C273.472 49.9153 274.044 49.09 274.012 48.2591C273.998 47.8709 273.816 46.9202 272.423 46.5233C272.07 46.4233 271.518 46.4206 270.874 46.9831C270.674 47.157 270.475 47.3799 270.276 47.6455C269.744 45.915 269.562 42.5574 269.825 38.6345C270.16 33.6436 271.087 29.2155 272.185 27.3509C274.482 23.4594 281.921 23.408 281.995 23.408C282.226 23.408 282.429 23.251 282.482 23.0311C282.538 22.8084 282.433 22.5772 282.233 22.4687C281.563 22.1175 281.528 21.7463 281.518 21.6235C281.433 20.7242 282.731 19.4736 283.194 19.1082C283.401 18.9425 283.443 18.6456 283.292 18.4315C283.148 18.2316 282.882 18.1659 282.661 18.2687C282.636 18.2659 282.577 18.263 282.464 18.1831C282.016 17.8633 280.865 16.4215 279.943 9.9317C279.774 8.7297 279.915 7.77891 280.353 7.11367C280.578 7.24214 280.82 7.35922 281.069 7.45627C282.489 8.01873 284.046 7.9388 285.035 7.25356C285.565 6.88811 285.575 6.40558 285.414 6.07441C284.969 5.17216 282.948 4.7239 281.409 5.18931C281.1 5.28351 280.655 5.4634 280.223 5.80316C279.515 5.20073 279.027 4.37845 278.835 3.42196C278.628 2.41409 278.982 2.10003 279.098 1.99725C280.423 0.803786 285.702 2.16569 290.152 3.48477C293.922 4.604 292.502 12.744 291.495 16.3586C287.045 15.248 285.105 18.6199 285.084 18.6542C284.99 18.8255 285.004 19.0368 285.123 19.1938C285.242 19.3508 285.442 19.4251 285.635 19.3823C287.08 19.071 291.197 18.5257 292.828 19.7049C293.235 19.999 293.456 20.3758 293.502 20.8612C293.579 21.6749 293.414 22.3516 293.018 22.8513C292.499 22.7399 291.976 22.64 291.457 22.5458C286.522 21.6721 286.196 22.3288 286.059 22.6114C285.744 23.2481 286.589 23.7135 286.869 23.8677C289.016 25.0469 291.492 25.1668 293.028 24.1732C293.137 24.1018 293.246 24.0247 293.344 23.9419C295.371 24.3959 297.563 25.024 299.436 25.8092C302.848 27.2453 303.178 38.7515 300.937 46.2893C299.997 49.4584 298.755 51.24 297.619 51.0459C296.826 50.9118 296.185 50.5462 295.69 49.9552C295.918 46.9372 296.416 44.0365 297.279 42.332C298.17 40.5647 301.207 33.6123 299.741 31.8537C299.555 31.6307 299.131 31.2912 298.363 31.5023C296.851 31.9165 295.424 35.7679 295.02 36.9387C293.919 40.1619 293.361 43.5084 293.495 46.1209C293.593 48.0508 294.049 49.3757 294.669 50.275C294.491 52.8816 294.333 58.4864 294.48 60.5305H294.873C294.975 60.5364 295.08 60.542 295.241 60.5305L390.065 60.7673C390.307 60.7673 390.5 60.5764 390.5 60.3392C390.5 60.1024 390.311 59.9166 390.072 59.9166ZM271.544 47.731C271.783 47.5226 271.986 47.4369 272.142 47.4827C272.525 47.591 272.985 47.8223 273.006 48.2962C273.02 48.6962 272.707 49.1271 272.29 49.2813C271.804 49.4612 271.269 49.2441 270.784 48.6733C271.038 48.2678 271.292 47.948 271.544 47.731ZM281.665 6.16006C282.885 5.77462 284.144 6.17718 284.45 6.44843C283.738 6.93381 282.531 6.96804 281.444 6.53694C281.332 6.49409 281.23 6.44558 281.125 6.39704C281.29 6.29996 281.468 6.22 281.665 6.16006ZM287.56 23.1025C288.451 23.1054 290.026 23.291 291.86 23.6364C290.678 24.0447 289.033 23.8534 287.56 23.1025ZM294.508 46.0751C294.207 40.1678 297.444 32.7957 298.636 32.4703C298.72 32.4474 298.78 32.4387 298.825 32.4387C298.92 32.4387 298.952 32.4759 298.966 32.4932C299.636 33.2953 298.327 38.0376 296.381 41.8921C295.627 43.3827 295.136 45.7351 294.852 48.2962C294.666 47.6626 294.55 46.9202 294.508 46.0751Z" fill="black"/>
<path d="M277.565 31.0191C277.079 30.5675 276.636 30.4397 276.243 30.6405C275.361 31.086 275.429 32.9209 275.99 37.4579C274.983 39.8021 273.943 42.6562 274.365 46.2321C274.861 50.4344 273.697 52.6302 272.472 54.9541C271.739 56.3431 270.989 57.776 270.618 59.6367H270.614C270.586 59.6367 270.5 60.0855 270.5 60.327C270.5 60.5689 270.525 60.5338 270.557 60.5338L275.304 60.5483C275.593 60.5483 276.143 57.0334 276.415 55.8073C277.115 52.6769 277.718 49.9716 277.908 48.1835C278.133 46.0139 277.668 42.426 277.218 38.9578C277.161 38.5268 277.104 38.0696 277.047 37.6063C277.129 37.4084 277.215 37.2132 277.301 37.0209C278.347 34.6389 279.247 32.583 277.565 31.0191ZM276.879 48.0758C276.701 49.8026 276.1 52.4818 275.408 55.5831C275.115 56.8821 274.811 58.2506 274.515 59.6516L271.668 59.6399C272.018 58.0236 272.679 56.7479 273.375 55.423C274.625 53.064 275.911 50.6239 275.379 46.1099C275.086 43.5936 275.579 41.4273 276.25 39.5545C276.661 42.6852 277.086 46.1216 276.879 48.0758ZM276.801 35.5767C276.604 33.7652 276.497 32.146 276.697 31.6247C276.736 31.6541 276.793 31.6976 276.861 31.7617C277.801 32.6323 277.565 33.7361 276.801 35.5767Z" fill="black"/>
<path d="M335.138 34.3505H335.368C335.825 34.3505 336.083 34.7002 336.148 35.399C336.421 37.1149 336.555 38.605 336.555 39.8689C336.555 41.6127 336.259 42.8766 335.664 43.6606C334.538 45.2843 333.186 46.5342 331.61 47.4096C328.633 49.2313 325.482 50.1423 322.155 50.1423C318.958 50.1423 316.053 49.2669 313.433 47.5157C312.146 46.4494 311.5 45.2773 311.5 43.9995C311.5 42.1139 312.68 40.2996 315.039 38.5554C318.439 36.4088 321.451 35.1592 324.087 34.806C324.606 34.8978 324.863 35.1449 324.863 35.5473V35.7805C324.863 36.2252 324.333 36.5114 323.265 36.6385C322.881 36.6385 321.651 37.0409 319.58 37.8458C317.828 38.7003 316.291 39.6497 314.966 40.6947C313.748 41.9024 313.141 42.9897 313.141 43.9569C313.141 45.0445 313.759 46.0822 315 47.0707C316.779 48.1723 318.889 48.7231 321.332 48.7231H321.743C325.905 48.7231 329.601 47.3744 332.84 44.6773C333.916 43.611 334.561 42.6329 334.772 41.7432C334.869 41.2633 334.918 40.6137 334.918 39.7945C334.918 38.7847 334.773 37.2067 334.477 35.0601V35.0283C334.623 34.5767 334.846 34.3505 335.138 34.3505ZM327.541 40.3875C328.052 40.3875 328.487 40.7265 328.844 41.4043V41.6162C328.844 41.9621 328.537 42.2022 327.922 42.3366H327.71C327.18 42.3366 326.857 41.9268 326.746 41.108C326.746 40.6982 327.011 40.4584 327.541 40.3875ZM342.211 34.6049H342.492C342.849 34.6049 343.091 34.8238 343.218 35.2615V35.4203C343.218 35.71 342.814 36.2713 342.011 37.1044C340.44 38.9757 339.656 40.391 339.656 41.3516V41.5953C339.76 42.5555 340.163 43.0354 340.866 43.0354C341.462 43.0354 341.758 43.279 341.758 43.7663V44.0099C341.758 44.4476 341.462 44.6948 340.866 44.7513C339.514 44.7513 338.596 43.9995 338.111 42.4954L338.027 41.5953V41.4787C338.027 39.7205 339.314 37.4716 341.885 34.732L342.211 34.6049ZM340.832 43.0989C344.974 43.3673 349.05 43.3673 353.062 43.0989V44.7513C349.035 45.0833 344.958 45.0833 340.832 44.7513V43.0989ZM355.029 44.2431C354.264 44.6595 353.415 44.8253 352.485 44.7408C351.897 44.6773 351.621 44.4019 351.655 43.9146C351.69 43.4204 351.955 43.1345 352.455 43.0567C353.649 43.0354 354.522 42.7778 355.067 42.2836C355.617 41.7893 355.955 41.0727 356.089 40.1334C356.228 39.1945 356.489 38.605 356.865 38.3648C356.865 38.3222 356.969 38.2978 357.181 38.2905C357.93 38.4388 358.172 39.0074 357.907 39.9959C357.634 41.2951 357.277 42.2235 356.835 42.7813C356.393 43.3321 355.79 43.8194 355.029 44.2431ZM356.047 32.2643C356.558 32.2643 356.992 32.6032 357.35 33.281V33.4929C357.35 33.8458 357.042 34.0859 356.424 34.213H356.216C355.682 34.213 355.359 33.8035 355.248 32.9843C355.248 32.5749 355.513 32.3347 356.047 32.2643ZM373.064 30.5483C373.487 30.5483 373.768 30.8024 373.906 31.311V31.4168C373.906 31.7487 373.733 32.0206 373.379 32.2325C372.065 33.2067 370.567 34.4388 368.884 35.9289C367.981 36.7268 367.159 37.5491 366.417 38.3966V38.4175C366.928 39.0954 367.455 40.1513 368 41.5844C368.55 43.011 368.411 44.3876 367.593 45.715C367.109 46.2728 366.713 46.6191 366.406 46.7531C366.056 46.9932 365.622 47.2225 365.103 47.4414C364.815 47.5545 364.465 47.611 364.05 47.611H363.977C362.821 47.611 362.083 47.1943 361.761 46.3611C361.538 45.8881 361.426 45.3761 361.426 44.8253C361.426 43.3569 362.391 41.2738 364.323 38.5767C362.306 36.0559 361.299 34.6541 361.299 34.3718V34.3295C361.299 33.9976 361.534 33.7292 362.003 33.5247L362.16 33.5034C362.54 33.5034 363.555 34.6824 365.207 37.0409L365.376 37.221C365.384 37.1854 365.61 36.9313 366.06 36.4584C367.943 34.5732 369.395 33.2245 370.417 32.4126C371.512 31.4803 372.277 30.8803 372.719 30.6119C372.845 30.5696 372.961 30.5483 373.064 30.5483ZM365.322 39.6888C363.935 41.7576 363.174 43.3956 363.044 44.603V44.7935C363.044 45.3373 363.236 45.7224 363.62 45.9482L364.135 46.0222C364.719 46.0222 365.311 45.7293 365.922 45.1433C366.252 44.7691 366.463 44.3384 366.563 43.8511C366.625 43.477 366.656 43.2155 366.656 43.0671C366.656 42.0504 366.221 40.9244 365.345 39.6888H365.322ZM374.117 32.9421C374.528 32.9421 374.805 33.1679 374.936 33.6199L374.947 33.7683C374.947 34.3117 374.74 36.7442 374.328 41.0654L374.052 44.6665C373.864 45.0902 373.598 45.3021 373.256 45.3021H373.245C372.684 45.2386 372.404 44.9771 372.404 44.5181C372.861 41.0371 373.087 38.8413 373.087 37.9306C373.214 36.1229 373.276 34.7355 373.276 33.7683C373.276 33.3515 373.525 33.0761 374.021 32.9421H374.117Z" fill="black"/>
<path d="M83.3849 35.6546H83.6284C84.1077 35.6546 84.3803 36.0199 84.447 36.7495C84.7342 38.5414 84.8782 40.0974 84.8782 41.4172C84.8782 43.2382 84.5647 44.558 83.9382 45.3767C82.751 47.0723 81.3281 48.3776 79.6689 49.2917C76.5354 51.194 73.217 52.1453 69.715 52.1453C66.3526 52.1453 63.2927 51.2312 60.5349 49.4025C59.1783 48.289 58.5 47.065 58.5 45.7306C58.5 43.7616 59.7426 41.867 62.2273 40.0456C65.8033 37.804 68.9777 36.4992 71.75 36.1303C72.2956 36.2261 72.5682 36.4842 72.5682 36.9045V37.1479C72.5682 37.6123 72.008 37.9112 70.8872 38.0439C70.4815 38.0439 69.1876 38.4641 67.005 39.3046C65.1618 40.1969 63.5435 41.1883 62.1496 42.2796C60.867 43.5408 60.2255 44.6761 60.2255 45.6861C60.2255 46.8219 60.8779 47.9055 62.1832 48.9378C64.0559 50.0881 66.279 50.6633 68.8523 50.6633H69.2835C73.6632 50.6633 77.5563 49.2549 80.9628 46.4385C82.0986 45.3249 82.7769 44.3036 82.9978 43.3745C83.1013 42.8734 83.1527 42.1951 83.1527 41.3396C83.1527 40.2851 82.9978 38.6372 82.6884 36.3956V36.3624C82.8433 35.8908 83.0754 35.6546 83.3849 35.6546ZM75.3887 41.9588C75.9271 41.9588 76.3841 42.3128 76.7603 43.0206V43.2419C76.7603 43.6031 76.4359 43.8538 75.7867 43.9942H75.5655C75.0052 43.9942 74.6663 43.5662 74.5482 42.7112C74.5482 42.2832 74.8285 42.0329 75.3887 41.9588ZM90.8285 35.9203H91.127C91.5032 35.9203 91.7576 36.1489 91.8903 36.6059V36.7718C91.8903 37.0743 91.4664 37.6604 90.6182 38.5305C88.9667 40.4845 88.1408 41.9625 88.1408 42.9656V43.22C88.2516 44.2227 88.6755 44.7239 89.4128 44.7239C90.0394 44.7239 90.3529 44.9783 90.3529 45.4871V45.7415C90.3529 46.1986 90.0394 46.4567 89.4128 46.5157C87.9899 46.5157 87.024 45.7306 86.5151 44.16L86.4266 43.22V43.0983C86.4266 41.2623 87.7796 38.9139 90.4855 36.053L90.8285 35.9203ZM94.5445 40.2447H94.5999C95.0719 40.2447 95.4627 40.4768 95.7725 40.9416C96.0892 41.4059 96.2332 42.0806 96.2037 42.9656C96.1814 43.8429 95.9383 44.6539 95.4736 45.3986C95.0093 46.1432 94.261 46.5266 93.2283 46.5489C92.3142 46.4753 91.6836 46.0991 91.3374 45.4208C90.6591 46.2318 90.0357 46.593 89.4683 46.5048C89.0035 46.3794 88.7641 46.1177 88.7491 45.7193C88.7273 45.314 88.834 45.0373 89.0699 44.8897C89.3061 44.7352 89.5601 44.643 89.8331 44.6135C90.1134 44.5766 90.4192 44.3518 90.7509 43.9388C91.083 43.5258 91.5991 42.807 92.2996 41.7821C92.9998 40.7571 93.7485 40.2447 94.5445 40.2447ZM93.1288 44.8897C93.5491 45.0005 93.9584 44.8679 94.3568 44.4917C94.7621 44.1083 94.9502 43.6771 94.9207 43.1978C94.8984 42.7112 94.7326 42.4013 94.4231 42.2687C94.1133 42.136 93.7113 42.4013 93.2174 43.0651C92.7235 43.7284 92.4396 44.16 92.366 44.359C92.4541 44.6025 92.7086 44.7793 93.1288 44.8897ZM103.005 40.0456C103.338 40.0456 103.596 40.2115 103.78 40.5432C103.831 40.654 103.857 40.7717 103.857 40.8971V40.9302C103.857 41.122 103.758 41.4723 103.559 41.9811C103.359 42.4899 103.168 42.9433 102.984 43.3414C102.806 43.7398 102.777 44.0642 102.895 44.3149C103.013 44.5653 103.223 44.7388 103.525 44.8347C103.835 44.9229 104.004 45.1959 104.034 45.653C104.034 46.0142 103.85 46.2799 103.481 46.4494C103.378 46.4789 103.286 46.4935 103.204 46.4935H103.094C102.202 46.4344 101.693 46.0514 101.568 45.3435C100.366 47.1423 98.7992 49.0745 96.8674 51.1389C96.0856 51.994 95.3927 52.7427 94.788 53.3838C94.5004 53.7009 94.3087 53.8595 94.2128 53.8595C94.1242 53.9113 94.0102 53.9371 93.8698 53.9371C93.5236 53.9371 93.2615 53.7491 93.0847 53.3729C93.0406 53.2697 93.0184 53.1775 93.0184 53.0966V53.0299C93.0184 52.7645 93.1842 52.4919 93.5159 52.2116C93.5159 52.1894 94.1501 51.5592 95.4182 50.3203C96.753 48.9786 97.5898 48.0827 97.9292 47.6329C98.9096 46.4826 99.7429 45.3986 100.428 44.3813C101.218 43.1573 101.741 42.1065 101.999 41.2292C102.264 40.3442 102.6 39.9498 103.005 40.0456ZM103.116 31.8169C103.654 31.8169 104.112 32.1708 104.487 32.8787V33.0999C104.487 33.4611 104.163 33.7119 103.514 33.8518H103.293C102.733 33.8518 102.393 33.4243 102.276 32.5692C102.276 32.1413 102.556 31.8905 103.116 31.8169ZM110.018 46.5157H102.806V44.5026H110.018V46.5157ZM116.543 46.5157H109.332V44.5026H116.543V46.5157ZM117.749 37.69C117.653 36.8345 117.701 36.3038 117.892 36.0971C118.084 35.8835 118.349 35.8208 118.689 35.909C119.028 35.9903 119.275 36.5323 119.43 37.535C119.585 38.5305 119.677 39.8317 119.706 41.4391C119.736 43.0392 119.5 44.2632 118.998 45.111C118.504 45.9592 117.612 46.4271 116.322 46.5157C115.695 46.4567 115.382 46.1986 115.382 45.7415V45.4871C115.382 44.9783 115.695 44.7239 116.322 44.7239C117.059 44.7239 117.553 44.3404 117.804 43.5739C118.062 42.807 118.139 41.8484 118.036 40.6981C117.94 39.5405 117.845 38.5377 117.749 37.69ZM123.998 34.1839C124.432 34.1839 124.72 34.4197 124.86 34.8918L124.871 35.0467C124.871 35.6142 124.654 38.1543 124.219 42.6667L123.931 46.4271C123.732 46.8696 123.452 47.0909 123.091 47.0909H123.079C122.49 47.0246 122.195 46.7515 122.195 46.2722C122.674 42.6372 122.914 40.3442 122.914 39.3932C123.046 37.5055 123.113 36.0567 123.113 35.0467C123.113 34.6115 123.374 34.3239 123.898 34.1839H123.998Z" fill="black"/>
<path d="M225.149 37.0719H225.382C225.841 37.0719 226.103 37.4216 226.167 38.1202C226.442 39.8358 226.58 41.3256 226.58 42.5893C226.58 44.3328 226.279 45.5964 225.679 46.3802C224.541 48.0037 223.177 49.2534 221.587 50.1286C218.583 51.9499 215.403 52.8608 212.046 52.8608C208.823 52.8608 205.891 51.9856 203.248 50.2347C201.947 49.1686 201.297 47.9967 201.297 46.7191C201.297 44.8339 202.488 43.0199 204.869 41.276C208.297 39.1298 211.34 37.8805 213.997 37.5273C214.52 37.6191 214.781 37.8661 214.781 38.2685V38.5016C214.781 38.9462 214.244 39.2324 213.17 39.3594C212.781 39.3594 211.541 39.7618 209.449 40.5666C207.682 41.4209 206.131 42.3701 204.795 43.4149C203.566 44.6224 202.951 45.7095 202.951 46.6765C202.951 47.764 203.576 48.8015 204.827 49.7898C206.622 50.8912 208.753 51.4419 211.219 51.4419H211.633C215.831 51.4419 219.562 50.0934 222.827 47.3968C223.916 46.3307 224.566 45.3528 224.778 44.4633C224.877 43.9834 224.926 43.334 224.926 42.5149C224.926 41.5053 224.778 39.9276 224.481 37.7813V37.7496C224.629 37.298 224.852 37.0719 225.149 37.0719ZM217.484 43.1078C218 43.1078 218.438 43.4467 218.799 44.1244V44.3362C218.799 44.6821 218.488 44.9222 217.866 45.0566H217.654C217.117 45.0566 216.792 44.6468 216.679 43.8281C216.679 43.4184 216.947 43.1787 217.484 43.1078ZM232.283 37.3263H232.569C232.93 37.3263 233.174 37.5451 233.301 37.9827V38.1415C233.301 38.4312 232.894 38.9923 232.082 39.8253C230.499 41.6962 229.707 43.1113 229.707 44.0717V44.3153C229.813 45.2754 230.219 45.7552 230.926 45.7552C231.527 45.7552 231.827 45.9988 231.827 46.486V46.7296C231.827 47.1672 231.527 47.4143 230.926 47.4708C229.562 47.4708 228.637 46.7191 228.149 45.2153L228.064 44.3153V44.1988C228.064 42.4409 229.361 40.1925 231.954 37.4533L232.283 37.3263ZM237.7 47.4708H230.789V45.5434H237.7V47.4708ZM242.587 43.6481C242.559 43.8529 242.58 44.2162 242.651 44.7386C242.722 45.2541 242.894 45.5647 243.17 45.6708C243.453 45.7765 243.643 45.9213 243.743 46.1049C243.842 46.2885 243.873 46.5073 243.838 46.7613C243.803 47.0154 243.679 47.2133 243.467 47.3542C243.255 47.4956 242.976 47.4847 242.63 47.3225C242.29 47.1602 241.955 46.8248 241.622 46.3167C241.297 45.8013 241.195 45.1518 241.315 44.368C241.435 43.5776 241.683 43.207 242.057 43.2562C242.439 43.3057 242.615 43.4362 242.587 43.6481ZM241.273 39.1476C241.075 38.1593 241.096 37.5486 241.336 37.3154C241.584 37.0757 241.838 37.0614 242.099 37.2732C242.361 37.4781 242.601 38.0605 242.82 39.0206C243.039 39.9806 243.078 41.1947 242.937 42.6632C242.796 44.1244 242.174 45.2719 241.071 46.1049C239.976 46.9306 238.732 47.386 237.34 47.4708C236.739 47.4143 236.439 47.1672 236.439 46.7296V46.486C236.439 45.9988 236.739 45.7552 237.34 45.7552C238.202 45.7552 239.075 45.3954 239.958 44.6751C240.849 43.9482 241.34 43.0904 241.432 42.1021C241.531 41.1138 241.477 40.129 241.273 39.1476ZM251.153 27.6686C251.548 27.6686 251.821 27.8909 251.969 28.3358V28.5581C251.969 28.8335 251.099 29.4973 249.361 30.5491C247.63 31.5939 246.227 32.4235 245.152 33.0373C244.078 33.6445 243.23 34.0717 242.608 34.3188C241.993 34.5589 241.626 34.4388 241.506 33.9586C241.393 33.4718 241.633 33.0799 242.227 32.7832C242.827 32.4796 243.877 31.9537 245.375 31.2055C246.873 30.4499 248.651 29.3207 250.707 27.8169L251.153 27.6686ZM249.488 45.5964C249.693 45.7095 249.895 45.7765 250.093 45.7978C250.29 45.8117 250.446 45.9496 250.559 46.2106C250.679 46.472 250.676 46.7296 250.548 46.9836C250.421 47.2307 250.23 47.386 249.976 47.4495C249.729 47.506 249.428 47.4286 249.075 47.2167C248.728 46.9979 248.453 46.68 248.248 46.2637C248.043 45.847 248.202 45.3141 248.725 44.6646C249.255 44.0152 249.463 43.98 249.351 44.5585C249.244 45.1375 249.29 45.4833 249.488 45.5964ZM247.951 41.4666H248.004C248.457 41.4666 248.831 41.6889 249.128 42.1338C249.432 42.5784 249.57 43.2244 249.541 44.0717C249.52 44.9117 249.287 45.6882 248.842 46.4012C248.396 47.1141 247.679 47.4813 246.69 47.5026C245.813 47.4321 245.209 47.0719 244.877 46.4225C244.227 47.1989 243.63 47.5448 243.085 47.4603C242.64 47.3403 242.41 47.0897 242.396 46.7083C242.375 46.3202 242.478 46.0553 242.704 45.914C242.93 45.766 243.174 45.6777 243.435 45.6495C243.704 45.6142 243.997 45.3989 244.315 45.0035C244.633 44.6081 245.128 43.9199 245.799 42.9386C246.47 41.9572 247.188 41.4666 247.951 41.4666ZM246.594 45.914C246.997 46.0201 247.389 45.8931 247.771 45.5329C248.16 45.1658 248.34 44.7529 248.312 44.294C248.29 43.8281 248.131 43.5315 247.834 43.4045C247.538 43.2774 247.152 43.5315 246.679 44.167C246.206 44.8021 245.934 45.2153 245.863 45.4059C245.947 45.639 246.191 45.8083 246.594 45.914ZM251.386 39.0206C251.294 38.2015 251.34 37.6934 251.524 37.4955C251.707 37.291 251.962 37.231 252.287 37.3154C252.612 37.3933 252.849 37.9122 252.997 38.8723C253.146 39.8253 253.234 41.0712 253.262 42.6102C253.29 44.1422 253.064 45.3141 252.583 46.1258C252.11 46.9379 251.255 47.386 250.018 47.4708C249.418 47.4143 249.117 47.1672 249.117 46.7296V46.486C249.117 45.9988 249.418 45.7552 250.018 45.7552C250.725 45.7552 251.198 45.3881 251.439 44.6542C251.686 43.9199 251.76 43.0021 251.661 41.9007C251.569 40.7923 251.478 39.8323 251.386 39.0206ZM257.375 35.6637C257.792 35.6637 258.068 35.8895 258.202 36.3415L258.213 36.4898C258.213 37.0331 258.004 39.4652 257.587 43.7855L257.312 47.386C257.121 47.8097 256.852 48.0215 256.506 48.0215H256.495C255.93 47.958 255.647 47.6966 255.647 47.2377C256.107 43.7573 256.336 41.5619 256.336 40.6514C256.463 38.844 256.527 37.4568 256.527 36.4898C256.527 36.0731 256.778 35.7977 257.28 35.6637H257.375Z" fill="black"/>
</svg>
