<svg width="390" height="68" viewBox="0 0 390 68" fill="none" xmlns="http://www.w3.org/2000/svg">
<path d="M225.955 60.9006V56.1816L212.641 56.3531V12.8007L160.03 4.35524V12.0055L158.523 11.8028L158.544 5.06726L138.673 9.12106L71.3307 0.0207887L71.1784 0L45.1015 22.3271L44.9807 22.4311V57.4705H0V58.1617H45.679V22.7481L71.3937 0.727606L138.363 9.77591L138.536 58.2293L126.02 58.7906L80.9908 60.2614V58.2761L113.058 57.4185V21.9789L71.3254 18.5488L71.2204 18.5384L53.0185 28.2935V60.8851L31.1206 58.3488L31.1416 63.2134L59.2766 67.9948L59.3133 68L212.305 61.8205L212.641 61.805V57.0443L225.251 56.878V61.5867H390V60.8954H225.955V60.9006ZM157.846 5.9144L157.825 11.7093L140.763 9.40171L157.846 5.9144ZM211.943 61.1449L59.3606 67.3088L31.8399 62.6313L31.8241 59.1284L53.7168 61.6646V28.7041L71.3674 19.2452L112.355 22.613V56.7377L80.9908 57.5744V21.7554L64.1539 28.9223V57.4029L80.2873 58.2449V60.9682L126.047 59.4766L139.24 58.8893L139.067 9.86946L157.825 12.4057L157.668 58.4632L175.229 58.0162V30.1593L184.978 31.2299V57.5692L195.809 57.3198V32.3421L201.889 33.2776V57.1899L211.943 57.0599V61.1449ZM80.2873 22.8105V57.5589L64.8521 56.7533V29.3797L80.2873 22.8105ZM211.943 56.3635L202.587 56.4882V32.6799L195.106 31.5313V56.6493L185.677 56.8624V30.6114L174.531 29.3849V57.3406L158.371 57.7512L158.523 12.4992L160.734 12.7955V5.1712L211.948 13.3932V56.3635H211.943Z" fill="black"/>
</svg>
