<svg width="390" height="110" viewBox="0 0 390 110" fill="none" xmlns="http://www.w3.org/2000/svg">
<path d="M1.09082 108.675C1.09082 108.675 251.558 109.126 244.014 108.899C236.473 108.674 213.617 110.026 212.932 106.871C212.246 103.716 212.935 70.5614 212.25 70.5614C211.565 70.5614 244.475 62.2209 244.933 60.4177C245.391 58.6144 244.706 52.5289 244.706 52.5289L211.18 62.1761C211.18 62.1761 211.792 70.1132 210.649 69.6615C209.506 69.2098 243.105 60.1936 243.105 59.5178C243.105 58.842 242.647 54.108 241.962 58.1662C241.276 62.2244 241.5 110.257 240.815 106.875C240.13 103.492 243.101 83.8841 238.759 84.5599C234.417 85.2357 214.075 88.8422 214.306 87.7147C214.533 86.5872 214.306 84.5599 214.533 86.5872C214.76 88.6146 213.162 99.6617 214.76 98.5342C216.361 97.4068 238.987 98.3101 239.214 97.1826C239.441 96.0552 238.529 89.9696 238.529 91.7729C238.529 93.5761 239.445 104.847 238.529 105.071C237.616 105.296 211.103 106.423 219.787 105.071C228.471 103.72 247.443 105.071 245.384 104.396C244.314 104.044 244.255 -5.75789 244.014 22.87C244.014 22.87 263.671 14.3054 264.126 11.1472C264.584 7.99234 265.954 1.22756 263.898 1.67924C261.843 2.13091 242.871 12.7229 242.643 12.0471C242.416 11.3713 242.643 10.2438 242.643 10.2438C242.643 10.2438 240.357 21.515 243.556 20.6117C246.755 19.7083 266.866 12.947 266.866 10.9196C266.866 8.89225 265.265 1 266.408 1C267.552 1 305.947 17.2293 307.09 17.0052C308.234 16.781 308.691 16.1053 308.234 16.781C307.776 17.4568 309.835 27.1489 307.776 26.4731C305.72 25.7973 266.178 13.1745 266.178 13.1745C266.178 13.1745 265.262 107.775 266.863 107.775C268.464 107.775 274.404 107.775 270.292 107.323C266.178 106.871 247.894 108.902 247.667 107.323C247.44 105.744 246.524 24.8974 246.524 24.8974L254.064 21.515C254.064 21.515 254.106 106.306 255.435 105.744C257.036 105.068 260.693 107.999 260.235 104.844C259.777 101.689 260.235 18.8119 259.55 18.8119C258.864 18.8119 255.893 18.5877 258.864 18.8119C261.836 19.036 264.807 16.3328 264.807 16.3328L303.206 27.1523L303.664 52.0979L273.722 64.4965C273.722 64.4965 274.407 59.5385 274.638 61.1141C274.865 62.6933 273.722 107.55 273.722 107.55C273.722 107.55 313.719 108.226 312.575 108.002C311.432 107.778 311.205 51.4221 311.205 51.4221L307.09 51.8738C307.09 51.8738 308.919 52.5496 309.377 53.4529C309.835 54.3563 309.835 59.0868 309.835 59.0868C309.835 59.0868 279.438 66.9756 278.753 68.3306C278.067 69.6822 278.067 85.0115 278.067 85.0115C278.067 85.0115 306.178 80.7293 306.863 77.5744C307.548 74.4196 306.636 59.5419 305.947 63.8242C305.262 68.1065 306.405 91.1005 307.09 89.0697C307.776 87.0424 278.522 91.0971 278.522 91.0971C278.522 91.0971 278.98 87.0389 278.98 89.7455C278.98 92.4487 281.266 105.975 278.753 105.975C276.239 105.975 274.638 105.071 277.151 105.071C279.665 105.071 306.863 107.326 306.863 104.62C306.863 101.917 307.321 88.6146 308.006 93.5761C308.691 98.5342 305.266 104.847 308.922 105.299C312.579 105.751 318.749 105.523 317.152 105.523C315.55 105.523 315.323 63.8208 315.323 63.8208C315.323 63.8208 313.495 62.6933 314.407 63.8208C315.323 64.9482 335.662 72.3853 335.893 71.7095C336.12 71.0338 335.208 67.6514 335.208 70.5821C335.208 73.5128 336.124 106.647 336.124 106.647C336.124 106.647 329.038 107.775 329.268 106.647C329.496 105.52 330.184 73.7369 329.268 73.5128C328.352 73.2887 323.098 67.8789 323.783 71.2579C324.468 74.6403 324.241 108.002 323.325 108.002C322.409 108.002 310.985 108.454 317.155 107.778C323.325 107.102 339.553 108.23 339.553 108.23C339.553 108.23 340.469 62.4692 338.641 61.7934C336.813 61.1176 312.813 51.8738 312.813 51.8738C312.813 51.8738 316.928 53.677 317.155 52.5496C317.382 51.4221 316.47 32.7138 316.47 32.7138L313.201 34.8653L311.674 35.8721C311.674 35.8721 311.247 51.891 311.705 50.0878C312.163 48.2845 312.359 38.127 313.956 36.3237C315.557 34.5205 316.012 32.4897 318.298 32.9414C320.585 33.393 333.841 40.1544 333.841 40.8301C333.841 41.5059 335.211 57.7352 334.299 57.9628C333.383 58.1869 323.102 55.0321 326.528 55.7078C329.957 56.3836 340.469 61.3417 340.469 61.3417C340.469 61.3417 342.298 76.4435 341.612 76.2194C340.927 75.9953 338.641 73.0646 343.214 74.6403C347.783 76.2194 357.613 78.4709 357.613 78.4709C357.155 79.1467 358.756 107.775 356.697 108.002C354.642 108.226 340.927 108.678 342.298 107.099C343.668 105.52 341.612 72.1578 343.214 71.9337C344.815 71.7095 360.127 75.3161 360.127 75.3161C360.127 75.3161 359.442 85.0081 360.127 85.4598C360.812 85.9114 368.583 87.0389 368.583 87.0389C368.583 87.0389 369.041 110.257 368.583 108.002C368.125 105.747 371.328 92.4487 367.898 91.5453C364.469 90.6454 345.042 88.8422 344.815 87.0355C344.587 85.2322 344.587 76.216 344.815 79.8225C345.042 83.429 344.129 98.9824 345.5 99.6582C346.87 100.334 366.755 102.589 366.755 100.11C366.755 97.6309 366.982 93.3486 366.297 95.8276C365.612 98.3067 366.297 107.099 365.381 107.55C364.465 108.002 356.467 108.678 360.354 108.226C364.241 107.775 390.091 108.45 390.091 108.45" stroke="#363435" stroke-width="0.6" stroke-miterlimit="10" stroke-linecap="round" stroke-linejoin="round"/>
</svg>
