<svg width="1440" height="185" viewBox="0 0 1440 185" fill="none" xmlns="http://www.w3.org/2000/svg">
<path d="M746.89 165.686V152.847L710.928 153.314V34.8254L568.825 11.8488V32.662L564.755 32.1106L564.812 13.7859L511.138 24.8147L329.244 0.0565576L328.833 0L258.398 60.7429L258.072 61.0257V156.354H0V158.234H259.958V61.8882L329.414 1.97952L510.301 26.5962L510.769 158.418L476.963 159.945L355.336 163.946V158.545L441.951 156.212V59.7956L329.23 50.4635L328.946 50.4353L279.782 76.9749V165.643L220.635 158.743L220.692 171.978L296.686 184.986L296.785 185L710.02 168.188L710.928 168.146V155.194L744.99 154.742V167.552H1441.5V165.671H746.89V165.686ZM562.926 16.0906L562.869 31.8561L516.782 25.5782L562.926 16.0906ZM709.042 166.35L296.912 183.119L222.578 170.394L222.535 160.864L281.668 167.764V78.0919L329.343 52.3582L440.051 61.5206V154.36L355.336 156.636V59.1876L309.859 78.6858V156.17L353.436 158.46V165.869L477.034 161.811L512.67 160.214L512.202 26.8507L562.869 33.7508L562.443 159.054L609.877 157.838V82.051L636.211 84.9637V156.622L665.465 155.944V87.9895L681.886 90.5346V155.59L709.042 155.237V166.35ZM353.436 62.0579V156.594L311.745 154.402V79.9301L353.436 62.0579ZM709.042 153.342L683.772 153.681V88.9086L663.565 85.7838V154.12L638.097 154.699V83.2811L607.991 79.9442V156L564.344 157.117L564.755 34.0053L570.725 34.8112V14.0687L709.056 36.4373V153.342H709.042Z" fill="black"/>
</svg>
