<svg width="1440" height="409" viewBox="0 0 1440 409" fill="none" xmlns="http://www.w3.org/2000/svg">
<path d="M-0.5 406.47C-0.5 406.47 928.611 408.17 900.625 407.313C872.653 406.47 787.868 411.556 785.326 399.684C782.784 387.812 785.339 263.048 782.797 263.048C780.256 263.048 902.337 231.662 904.036 224.877C905.735 218.091 903.193 195.191 903.193 195.191L778.829 231.494C778.829 231.494 781.098 261.361 776.858 259.662C772.617 257.962 897.254 224.033 897.254 221.49C897.254 218.947 895.555 201.133 893.013 216.404C890.471 231.675 891.301 412.425 888.76 399.697C886.218 386.969 897.241 313.182 881.134 315.725C865.028 318.268 789.567 331.84 790.422 327.597C791.265 323.354 790.423 315.725 791.265 323.354C792.108 330.983 786.182 372.554 792.108 368.311C798.048 364.069 881.977 367.468 882.82 363.225C883.663 358.983 880.279 336.082 880.279 342.868C880.279 349.654 883.676 392.068 880.279 392.911C876.894 393.755 778.544 397.997 810.757 392.911C842.969 387.825 913.347 392.911 905.709 390.368C901.741 389.045 901.52 -24.1459 900.625 83.5826C900.625 83.5826 973.545 51.3536 975.231 39.4688C976.93 27.597 982.013 2.14075 974.388 3.84043C966.763 5.54011 896.385 45.3982 895.542 42.8552C894.699 40.3122 895.542 36.0695 895.542 36.0695C895.542 36.0695 887.061 78.4836 898.927 75.0842C910.792 71.6849 985.398 46.2416 985.398 38.6125C985.398 30.9834 979.458 1.28442 983.699 1.28442C987.94 1.28442 1130.37 62.3561 1134.61 61.5128C1138.85 60.6694 1140.55 58.1264 1138.85 60.6694C1137.15 63.2124 1144.79 99.6842 1137.15 97.1412C1129.53 94.5981 982.843 47.0979 982.843 47.0979C982.843 47.0979 979.446 403.083 985.385 403.083C991.324 403.083 1013.36 403.083 998.107 401.384C982.843 399.684 915.02 407.326 914.177 401.384C913.334 395.441 909.937 91.2117 909.937 91.2117L937.909 78.4836C937.909 78.4836 938.064 397.556 942.992 395.441C948.932 392.898 962.496 403.927 960.797 392.055C959.099 380.183 960.797 68.3115 958.256 68.3115C955.714 68.3115 944.691 67.4681 955.714 68.3115C966.737 69.1548 977.76 58.9827 977.76 58.9827L1120.2 99.6972L1121.9 193.569L1010.83 240.226C1010.83 240.226 1013.37 221.568 1014.23 227.497C1015.07 233.44 1010.83 402.24 1010.83 402.24C1010.83 402.24 1159.2 404.783 1154.96 403.94C1150.72 403.096 1149.87 191.026 1149.87 191.026L1134.61 192.725C1134.61 192.725 1141.39 195.268 1143.09 198.668C1144.79 202.067 1144.79 219.868 1144.79 219.868C1144.79 219.868 1032.03 249.554 1029.49 254.653C1026.95 259.74 1026.95 317.425 1026.95 317.425C1026.95 317.425 1131.22 301.31 1133.77 289.438C1136.31 277.567 1132.92 221.581 1130.37 237.696C1127.83 253.81 1132.07 340.338 1134.61 332.696C1137.15 325.067 1028.63 340.325 1028.63 340.325C1028.63 340.325 1030.33 325.054 1030.33 335.239C1030.33 345.411 1038.81 396.311 1029.49 396.311C1020.17 396.311 1014.23 392.911 1023.55 392.911C1032.87 392.911 1133.77 401.397 1133.77 391.212C1133.77 381.04 1135.46 330.983 1138.01 349.654C1140.55 368.311 1127.84 392.068 1141.4 393.768C1154.97 395.467 1177.86 394.611 1171.93 394.611C1165.99 394.611 1165.15 237.683 1165.15 237.683C1165.15 237.683 1158.37 233.44 1161.75 237.683C1165.15 241.925 1240.6 269.912 1241.45 267.369C1242.3 264.826 1238.91 252.097 1238.91 263.126C1238.91 274.154 1242.31 398.841 1242.31 398.841C1242.31 398.841 1216.02 403.083 1216.88 398.841C1217.72 394.598 1220.28 274.998 1216.88 274.154C1213.48 273.311 1193.99 252.954 1196.53 265.669C1199.07 278.397 1198.23 403.94 1194.83 403.94C1191.44 403.94 1149.06 405.639 1171.94 403.096C1194.83 400.553 1255.03 404.796 1255.03 404.796C1255.03 404.796 1258.43 232.597 1251.65 230.053C1244.86 227.51 1155.84 192.725 1155.84 192.725C1155.84 192.725 1171.1 199.511 1171.94 195.268C1172.79 191.026 1169.4 120.625 1169.4 120.625L1157.28 128.721L1151.61 132.51C1151.61 132.51 1150.03 192.79 1151.73 186.005C1153.43 179.219 1154.15 140.995 1160.08 134.21C1166.02 127.424 1167.7 119.782 1176.18 121.482C1184.67 123.181 1233.84 148.625 1233.84 151.168C1233.84 153.711 1238.92 214.782 1235.54 215.639C1232.14 216.482 1194 204.61 1206.71 207.153C1219.43 209.696 1258.43 228.354 1258.43 228.354C1258.43 228.354 1265.21 285.183 1262.67 284.339C1260.13 283.496 1251.65 272.468 1268.61 278.397C1285.56 284.339 1322.02 292.812 1322.02 292.812C1320.32 295.355 1326.26 403.083 1318.63 403.94C1311 404.783 1260.13 406.483 1265.21 400.54C1270.29 394.598 1262.67 269.055 1268.61 268.212C1274.55 267.369 1331.35 280.94 1331.35 280.94C1331.35 280.94 1328.81 317.412 1331.35 319.111C1333.89 320.811 1362.72 325.054 1362.72 325.054C1362.72 325.054 1364.42 412.425 1362.72 403.94C1361.02 395.454 1372.9 345.411 1360.18 342.012C1347.45 338.625 1275.39 331.84 1274.55 325.041C1273.7 318.255 1273.7 284.326 1274.55 297.898C1275.39 311.469 1272.01 369.998 1277.09 372.541C1282.17 375.084 1355.94 383.57 1355.94 374.241C1355.94 364.912 1356.78 348.798 1354.24 358.126C1351.69 367.455 1354.24 400.54 1350.84 402.24C1347.44 403.94 1317.77 406.483 1332.19 404.783C1346.61 403.083 1442.5 405.626 1442.5 405.626" stroke="#363435" stroke-width="2" stroke-miterlimit="10" stroke-linecap="round" stroke-linejoin="round"/>
</svg>
