<svg width="83" height="82" viewBox="0 0 83 82" fill="none" xmlns="http://www.w3.org/2000/svg">
<g id="architect">
<g id="Group">
<path id="Vector" d="M77.0477 60.2187L81.4693 49.1641L79.09 48.2121L74.2879 60.2187H73.874V44.8437H71.3115V24.3437H66.1865V19.2187H63.624V24.3437H61.0615V16.6562H58.499V24.3437H55.9365V19.2187H53.374V24.3437H48.249V39.7187H43.124V46.2903C40.1041 42.5823 35.9823 39.8815 31.3045 38.6438L30.7228 36.9C32.5909 36.3836 34.1258 35.0627 34.8933 33.3125H35.4365C38.263 33.3125 40.5615 31.0139 40.5615 28.1875V21.7812C41.9747 21.7812 43.124 20.632 43.124 19.2187V16.6562C43.124 15.243 41.9747 14.0937 40.5615 14.0937H40.3386C39.1124 6.71373 32.801 1.28123 25.1865 1.28123C17.5721 1.28123 11.2606 6.71373 10.0345 14.0937H9.81152C8.3983 14.0937 7.24902 15.243 7.24902 16.6562V19.2187C7.24902 20.632 8.3983 21.7812 9.81152 21.7812V28.1875C9.81152 31.0139 12.1101 33.3125 14.9365 33.3125H15.4798C16.2485 35.0627 17.7822 36.3849 19.6502 36.9L19.0686 38.6438C9.05559 41.2844 2.12402 50.2352 2.12402 60.6569V61.5C2.12402 66.9632 5.2554 71.7 9.81152 74.0383V80.7187H48.249V70.4687H52.2222C52.818 73.3887 55.4048 75.5937 58.499 75.5937C61.5932 75.5937 64.1801 73.3887 64.7759 70.4687H71.2065C76.3507 70.4687 80.6992 66.7851 81.5449 61.7114L81.7934 60.2187H77.0477ZM61.0615 60.2187V47.4062H71.3115V60.2187H61.0615ZM50.8115 26.9062H68.749V44.8437H61.0615V39.7187H50.8115V26.9062ZM58.499 42.2812V60.2187H45.6865V42.2812H58.499ZM43.124 50.8349V60.2187H42.7102L37.9068 48.2109L35.5275 49.1628L39.9504 60.2187H35.2059L35.4545 61.7114C35.794 63.7486 36.705 65.5564 37.999 66.9966V78.1562H31.5928V75.5937C33.712 75.5937 35.4365 73.8692 35.4365 71.75C35.4365 69.6308 33.712 67.9062 31.5928 67.9062V41.419C36.4782 42.9718 40.6102 46.3236 43.124 50.8349ZM28.1065 37.1562L28.897 39.5291L25.1865 45.0961L21.4747 39.5291L22.2666 37.1562H28.1065ZM29.0303 50.1596L26.7727 47.337L29.0303 43.9507V50.1596ZM21.3428 50.1596V43.9507L23.6003 47.337L21.3428 50.1596ZM21.3428 54.2609L25.1865 49.4562L29.0303 54.2609V65.5692C28.628 65.427 28.1987 65.3437 27.749 65.3437H26.2487C25.2224 65.3437 24.2563 65.7435 23.5299 66.47L22.2153 67.7845L21.3428 67.5898V54.2609ZM23.9053 69.7179L25.3416 68.2816C25.5837 68.0395 25.9066 67.9062 26.2487 67.9062H27.749C28.455 67.9062 29.0303 68.4815 29.0303 69.1875V70.4687H31.5928C32.2987 70.4687 32.874 71.044 32.874 71.75C32.874 72.456 32.2987 73.0312 31.5928 73.0312H23.9053V69.7179ZM29.0303 75.5937V78.1562H21.3428V75.5937H29.0303ZM35.4365 30.75V25.625C36.8497 25.625 37.999 26.7743 37.999 28.1875C37.999 29.6007 36.8497 30.75 35.4365 30.75ZM37.999 23.7749C37.2418 23.3341 36.3744 23.0625 35.4365 23.0625V21.7812H37.999V23.7749ZM37.7376 14.0937H29.0303V4.43055C33.4314 5.79508 36.8075 9.44536 37.7376 14.0937ZM26.4678 3.9078V14.0937H23.9053V3.9078C24.3268 3.8668 24.7535 3.84373 25.1865 3.84373C25.6196 3.84373 26.0462 3.8668 26.4678 3.9078ZM21.3428 4.43055V14.0937H12.6354C13.5656 9.44536 16.9417 5.79508 21.3428 4.43055ZM9.81024 16.6562H40.5615V19.2187H9.81152L9.81024 16.6562ZM14.9365 21.7812V23.0625C13.9986 23.0625 13.1312 23.3341 12.374 23.7749V21.7812H14.9365ZM12.374 28.1875C12.374 26.7743 13.5233 25.625 14.9365 25.625V30.75C13.5233 30.75 12.374 29.6007 12.374 28.1875ZM17.499 30.75V21.7812H32.874V30.75C32.874 32.8692 31.1495 34.5937 29.0303 34.5937H21.3428C19.2236 34.5937 17.499 32.8692 17.499 30.75ZM4.68652 61.5V60.6569C4.68652 51.7394 10.406 44.0417 18.7803 41.401V67.0222L17.3901 66.7134C14.4368 66.0561 12.374 63.4846 12.374 60.4583V55.0937H9.81152V60.4583C9.81152 64.6941 12.6995 68.2945 16.8341 69.2131L21.3428 70.215V73.0312H16.2178C9.86021 73.0312 4.68652 67.8575 4.68652 61.5ZM12.374 75.0479C13.5976 75.3951 14.884 75.5937 16.2178 75.5937H18.7803V78.1562H12.374V75.0479ZM40.5615 78.1562V69.0773C42.0772 69.9485 43.8287 70.4457 45.6865 70.4649V78.1562H40.5615ZM58.499 73.0312C56.3798 73.0312 54.6553 71.3067 54.6553 69.1875C54.6553 68.4815 55.2305 67.9062 55.9365 67.9062H61.0615C61.7675 67.9062 62.3428 68.4815 62.3428 69.1875C62.3428 71.3067 60.6182 73.0312 58.499 73.0312ZM71.2052 67.9062H64.6682C64.1378 66.4187 62.7284 65.3437 61.0602 65.3437H55.9352C54.2671 65.3437 52.8577 66.4187 52.3272 67.9062H45.7903C42.4283 67.9062 39.5173 65.8242 38.3783 62.7812H78.6146C77.4782 65.8242 74.5685 67.9062 71.2052 67.9062Z" fill="black"/>
<path id="Vector_2" d="M63.624 29.4687H66.1865V32.0312H63.624V29.4687Z" fill="black"/>
<path id="Vector_3" d="M58.499 29.4687H61.0615V32.0312H58.499V29.4687Z" fill="black"/>
<path id="Vector_4" d="M53.374 29.4687H55.9365V32.0312H53.374V29.4687Z" fill="black"/>
<path id="Vector_5" d="M63.624 34.5937H66.1865V37.1562H63.624V34.5937Z" fill="black"/>
<path id="Vector_6" d="M53.374 34.5937H55.9365V37.1562H53.374V34.5937Z" fill="black"/>
<path id="Vector_7" d="M58.499 34.5937H61.0615V37.1562H58.499V34.5937Z" fill="black"/>
<path id="Vector_8" d="M63.624 39.7187H66.1865V42.2812H63.624V39.7187Z" fill="black"/>
<path id="Vector_9" d="M48.249 44.8437H50.8115V57.6562H48.249V44.8437Z" fill="black"/>
<path id="Vector_10" d="M53.374 44.8437H55.9365V57.6562H53.374V44.8437Z" fill="black"/>
<path id="Vector_11" d="M63.624 49.9687H68.749V52.5312H63.624V49.9687Z" fill="black"/>
<path id="Vector_12" d="M63.624 55.0937H68.749V57.6562H63.624V55.0937Z" fill="black"/>
</g>
</g>
</svg>
