<svg width="84" height="83" viewBox="0 0 84 83" fill="none" xmlns="http://www.w3.org/2000/svg">
<g id="architect (2)" clip-path="url(#clip0_399_2107)">
<g id="Group">
<path id="Vector" d="M60.9556 79.5976H63.3579V81.9999H60.9556V79.5976Z" fill="black"/>
<path id="Vector_2" d="M76.0738 55.0383H75.3699V47.7379C75.3699 45.0886 73.2145 42.9332 70.5652 42.9332H63.3582V50.1403H53.3263V42.9076C56.38 40.0658 58.3986 36.1239 58.7309 31.7273L60.0622 31.6397C62.0713 31.5074 63.5866 29.9595 63.5866 28.0389V25.6365C63.5866 24.0707 62.5824 22.7354 61.1842 22.2396V19.6307C61.1842 14.9493 59.6009 10.5727 56.7259 7.30791C54.2341 4.47811 50.9815 2.74394 47.6718 2.44797C47.189 1.02627 45.8424 -1.52588e-05 44.2595 -1.52588e-05H39.2146C37.6318 -1.52588e-05 36.2851 1.02627 35.8023 2.44797C32.5614 2.7393 29.361 4.41645 26.8908 7.14952L28.673 8.76053C30.6319 6.59314 33.1072 5.22524 35.6113 4.88859V12.6602H38.0136V3.6035C38.0136 2.94109 38.5524 2.40233 39.2148 2.40233H44.2597C44.9221 2.40233 45.4609 2.94109 45.4609 3.6035V12.6602H47.8632V4.88779C53.3409 5.63172 58.782 11.3669 58.782 19.6305V22.0328H50.2654V20.8317C50.2654 18.8448 48.6488 17.2282 46.6619 17.2282H36.8123C34.8254 17.2282 33.2088 18.8448 33.2088 20.8317V22.0328H24.6923V19.6305C24.6923 16.2792 25.6002 13.127 27.3179 10.5146L25.3107 9.19487C23.3345 12.2004 22.29 15.8088 22.29 19.6305V22.2394C20.892 22.7353 19.8876 24.0705 19.8876 25.6364V28.0387C19.8876 29.9593 21.4027 31.5072 23.412 31.6395L24.7432 31.7271C25.0754 36.1239 27.0942 40.0658 30.1479 42.9076V50.1403H20.116V42.9332H12.909C10.2597 42.9332 8.10428 45.0886 8.10428 47.7379V54.9331H7.40039C4.08884 54.9331 1.39453 57.6272 1.39453 60.939V68.3526C1.39453 71.6643 4.08884 74.3584 7.40039 74.3584H8.10428V77.1953C8.10428 79.8446 10.2597 82 12.909 82H58.5535V79.5976H12.909C11.5843 79.5976 10.5066 78.52 10.5066 77.1953V74.3584H11.2107C13.1976 74.3584 14.8142 72.7418 14.8142 70.7549V58.5366C14.8142 56.5497 13.1977 54.9331 11.2107 54.9331H10.5066V51.8978C11.2137 52.3078 12.0345 52.5426 12.909 52.5426H70.5652C71.4397 52.5426 72.2605 52.3077 72.9676 51.8978V55.0383H72.2635C70.2766 55.0383 68.66 56.6549 68.66 58.6418V70.8603C68.66 72.8472 70.2765 74.4637 72.2635 74.4637H72.9676V77.1953C72.9676 78.52 71.8899 79.5976 70.5652 79.5976H65.7605V82H70.5652C73.2145 82 75.3699 79.8446 75.3699 77.1953V74.4637H76.0738C79.3853 74.4637 82.0796 71.7695 82.0796 68.4578V61.0442C82.0796 57.7326 79.3853 55.0383 76.0738 55.0383ZM12.4118 58.5366V60.4944H10.0095V62.8967H12.4118V66.5002H10.0095V68.9026H12.4118V70.7549C12.4118 71.4173 11.8731 71.9561 11.2107 71.9561H7.40039C5.41333 71.9561 3.79688 70.3395 3.79688 68.3526V60.939C3.79688 58.9521 5.41333 57.3354 7.40039 57.3354H11.2107C11.8731 57.3354 12.4118 57.8742 12.4118 58.5366ZM17.7137 50.1403H12.909C11.5843 50.1403 10.5066 49.0626 10.5066 47.7379C10.5066 46.4133 11.5843 45.3356 12.909 45.3356H17.7137V50.1403ZM35.6111 20.8317C35.6111 20.1693 36.1499 19.6305 36.8123 19.6305H46.6619C47.3243 19.6305 47.8631 20.1693 47.8631 20.8317V22.0328H35.6111V20.8317ZM22.29 28.0387V25.6364C22.29 24.9739 22.8287 24.4352 23.4911 24.4352H59.9832C60.6455 24.4352 61.1844 24.9739 61.1844 25.6364V28.0387C61.1844 28.7658 60.525 29.2018 59.9046 29.2426L41.7371 30.4385L23.5698 29.2426C22.9493 29.2018 22.29 28.7658 22.29 28.0387ZM27.1683 31.8869L41.6581 32.8408L41.7371 32.8461L56.3059 31.8869C55.573 39.2735 49.2925 45.0835 41.7371 45.0835C34.1817 45.0835 27.9012 39.2733 27.1683 31.8869ZM32.5502 44.777C35.207 46.4897 38.3628 47.4858 41.7371 47.4858C45.1114 47.4858 48.2671 46.4897 50.924 44.7768V50.1403H32.5502V44.777ZM70.5652 50.1403H65.7605V45.3356H70.5652C71.8899 45.3356 72.9676 46.4133 72.9676 47.7379C72.9676 49.0626 71.8899 50.1403 70.5652 50.1403ZM79.6773 68.4578C79.6773 70.4447 78.0608 72.0613 76.0738 72.0613H72.2635C71.6013 72.0613 71.0623 71.5226 71.0623 70.8603V68.9024H73.4647V66.5001H71.0623V62.8965H73.4647V60.4942H71.0623V58.6418C71.0623 57.9794 71.6011 57.4407 72.2635 57.4407H76.0738C78.0608 57.4407 79.6773 59.0573 79.6773 61.0442V68.4578Z" fill="black"/>
<path id="Vector_3" d="M63.3584 54.9448H65.7607V57.3472H63.3584V54.9448Z" fill="black"/>
<path id="Vector_4" d="M58.5537 54.9448H60.9561V57.3472H58.5537V54.9448Z" fill="black"/>
</g>
</g>
<defs>
<clipPath id="clip0_399_2107">
<rect width="82.6164" height="82.6164" fill="white" transform="translate(0.731934)"/>
</clipPath>
</defs>
</svg>
