<svg width="69" height="82" viewBox="0 0 69 82" fill="none" xmlns="http://www.w3.org/2000/svg">
<g id="Frame 850">
<path id="Vector" d="M17.0221 0.197083H14.6197V12.1425H11.7995V4.92169H9.39714V12.1425H6.07953V79.5976H0.416504V82H34.2902V12.1425H17.0221V0.197083ZM31.8878 79.5976H8.48187V14.5448H31.8878V79.5976Z" fill="black"/>
<path id="Vector_2" d="M46.3513 38.8973V77.3042H52.9959V38.8973H46.3513ZM50.5936 74.9018H48.7537V41.2997H50.5936V74.9018Z" fill="black"/>
<path id="Vector_3" d="M37.603 38.8973V77.3042H44.2476V38.8973H37.603ZM41.8453 74.9018H40.0054V41.2997H41.8453V74.9018Z" fill="black"/>
<path id="Vector_4" d="M29.7345 21.0592H10.6353V28.4927H29.7345V21.0592ZM27.3322 26.0904H13.0376V23.4616H27.3322V26.0904Z" fill="black"/>
<path id="Vector_5" d="M29.7345 31.4381H10.6353V38.8722H29.7345V31.4381ZM27.3322 36.4699H13.0376V33.8405H27.3322V36.4699Z" fill="black"/>
<path id="Vector_6" d="M29.7345 41.8176H10.6353V49.2511H29.7345V41.8176ZM27.3322 46.8488H13.0376V44.2199H27.3322V46.8488Z" fill="black"/>
<path id="Vector_7" d="M29.7345 52.1965H10.6353V59.63H29.7345V52.1965ZM27.3322 57.2276H13.0376V54.5988H27.3322V57.2276Z" fill="black"/>
<path id="Vector_8" d="M29.7345 62.5759H10.6353V70.0094H29.7345V62.5759ZM27.3322 67.6071H13.0376V64.9783H27.3322V67.6071Z" fill="black"/>
<path id="Vector_9" d="M58.7116 35.4896L42.3225 27.5844L48.0619 21.845H57.3684V19.4427H50.4642L55.9921 13.9154H61.6501V11.5131H58.3944L62.185 7.72188L60.4865 6.02335L54.206 12.3032V8.06972H51.8036V14.7056L46.5817 19.9282V11.7402H44.1793V22.3305L40.0303 26.4795L36.814 24.928L35.7705 27.0914L56.3093 36.9979V79.5976H36.2923V82H64.3753V79.5976H58.7116V35.4896Z" fill="black"/>
<path id="Vector_10" d="M66.6482 0.208328C65.7754 0.324692 45.2048 3.12305 39.9578 8.37066C35.8976 12.4302 34.7145 18.4743 36.9436 23.7682L39.1576 22.836C37.3096 18.4467 38.2905 13.4356 41.6563 10.0692C45.2223 6.50322 58.7761 3.81998 65.3907 2.81525C64.386 9.43045 61.7034 22.9837 58.1367 26.5496C56.7229 27.9635 54.9605 28.9939 53.0399 29.5301L53.6855 31.8436C56.0034 31.1973 58.1299 29.9536 59.8353 28.2488C65.0829 23.0012 67.8813 2.4305 67.9982 1.55777L68.2059 0L66.6482 0.208328Z" fill="black"/>
<path id="Vector_11" d="M29.6807 18.6162H24.3555V16.2139H29.6807V18.6162ZM22.7539 18.6162H20.3516V16.2139H22.7539V18.6162ZM18.75 18.6162H16.3477V16.2139H18.75V18.6162Z" fill="black"/>
<path id="Vector_12" d="M50.5567 28.1868L50.4021 25.7894C51.0978 25.745 51.781 25.6074 52.4322 25.3809L53.2211 27.65C52.3653 27.9478 51.4688 28.1286 50.5567 28.1868ZM48.7455 28.1436C47.6013 28.0141 46.4996 27.6938 45.4705 27.1914L46.5246 25.0324C47.3066 25.4147 48.1443 25.6581 49.0152 25.7563L48.7455 28.1436ZM54.8765 26.8993L53.6897 24.8103C54.2884 24.47 54.8427 24.0465 55.3376 23.5522L57.0361 25.2508C56.3892 25.8977 55.6629 26.4519 54.8765 26.8993Z" fill="black"/>
</g>
</svg>
