<svg width="81" height="82" viewBox="0 0 81 82" fill="none" xmlns="http://www.w3.org/2000/svg">
<g id="Group">
<path id="Vector" d="M76.8145 -0.768585H19.3712C18.7015 -0.768585 18.1588 -0.22574 18.1588 0.443845C18.1588 1.11343 18.7015 1.65628 19.3712 1.65628H76.8145C77.3136 1.65628 77.7197 2.06236 77.7197 2.5614V22.5508H74.9715V5.61688C74.9715 4.9473 74.4288 4.40445 73.7591 4.40445H6.8801C6.21035 4.40445 5.66767 4.9473 5.66767 5.61688V58.9758C5.66767 59.6454 6.21035 60.1882 6.8801 60.1882H15.4552V62.9364H3.82461C3.32557 62.9364 2.91949 62.5303 2.91949 62.0313V2.5614C2.91949 2.06236 3.32557 1.65628 3.82461 1.65628H14.5215C15.1912 1.65628 15.7339 1.11343 15.7339 0.443845C15.7339 -0.22574 15.1912 -0.768585 14.5215 -0.768585H3.82461C1.98851 -0.768585 0.494629 0.725291 0.494629 2.5614V62.0313C0.494629 63.8674 1.98834 65.3613 3.82461 65.3613H47.3827C47.8817 65.3613 48.2878 65.7673 48.2878 66.2664V78.67C48.2878 80.5061 49.7816 82 51.6178 82H61.0617C61.7314 82 62.2741 81.4572 62.2741 80.7876C62.2741 80.118 61.7314 79.5751 61.0617 79.5751H51.6178C51.1188 79.5751 50.7127 79.1691 50.7127 78.67V66.2664C50.7127 64.4303 49.219 62.9364 47.3827 62.9364H34.7325V60.1882H47.3827C50.7342 60.1882 53.4609 62.9149 53.4609 66.2664V75.6145C53.4609 76.2841 54.0036 76.827 54.6733 76.827H73.7589C74.4286 76.827 74.9713 76.2841 74.9713 75.6145V41.8281H77.7195V78.67C77.7195 79.1691 77.3134 79.5751 76.8144 79.5751H64.2947C63.6249 79.5751 63.0822 80.118 63.0822 80.7876C63.0822 81.4572 63.6249 82 64.2947 82H76.8144C78.6505 82 80.1444 80.5061 80.1444 78.67V2.5614C80.1444 0.725291 78.6507 -0.768585 76.8145 -0.768585ZM72.5465 67.2762H67.5622C66.9829 67.2762 66.5115 66.805 66.5115 66.2255V52.4194C66.5115 51.8401 66.9829 51.3687 67.5622 51.3687H72.5465V67.2762ZM67.0643 6.82931V8.19613C67.0643 9.3675 66.1114 10.3203 64.9402 10.3203H60.1212C58.9498 10.3203 57.9968 9.36733 57.9968 8.19613V6.82931H67.0643ZM50.0408 7.15263V13.4702C50.0408 14.817 48.9453 15.9127 47.5985 15.9127C46.2518 15.9127 45.156 14.817 45.156 13.4702V7.15263H50.0408ZM15.2247 12.2093H27.7562V26.9359H15.2247V12.2093ZM27.7561 6.82931V9.78441H15.2245V6.82931H27.7561ZM28.1992 44.0522V51.734H13.4726V44.0522H28.1992ZM11.0478 51.7339H8.09269V44.0521H11.0478V51.7339ZM32.3077 62.9364H17.8801V60.1882H32.3077V62.9364ZM55.8857 74.4021V66.2664C55.8857 61.5778 52.0713 57.7634 47.3827 57.7634H43.9674V40.3986H58.8282V40.8145C58.8282 41.4841 59.3709 42.027 60.0407 42.027C60.7104 42.027 61.2531 41.4841 61.2531 40.8145V37.3766C61.2531 36.707 60.7104 36.1641 60.0407 36.1641C59.3709 36.1641 58.8282 36.707 58.8282 37.3766V37.9737H42.7549C42.0854 37.9737 41.5425 38.5166 41.5425 39.1862V57.7634H8.09253V54.1587H28.4593C29.6529 54.1587 30.624 53.1876 30.624 51.994V43.792C30.624 42.5983 29.6529 41.6272 28.4593 41.6272H8.09253V38.6141H30.3007V38.9084C30.3007 39.578 30.8434 40.1209 31.5131 40.1209C32.1829 40.1209 32.7256 39.578 32.7256 38.9084V35.8442C32.7256 35.1746 32.1829 34.6318 31.5131 34.6318C30.8434 34.6318 30.3007 35.1746 30.3007 35.8442V36.1894H8.09253V6.82931H12.7997V27.196C12.7997 28.3897 13.7707 29.3608 14.9644 29.3608H28.0162C29.2098 29.3608 30.1809 28.3897 30.1809 27.196V6.82931H36.6676V26.9359H36.3732C35.7034 26.9359 35.1608 27.4788 35.1608 28.1484C35.1608 28.818 35.7034 29.3608 36.3732 29.3608H39.4376C40.1072 29.3608 40.65 28.818 40.65 28.1484C40.65 27.4788 40.1072 26.9359 39.4376 26.9359H39.0924V6.82931H42.731V13.4702C42.731 16.154 44.9145 18.3375 47.5984 18.3375C50.2822 18.3375 52.4655 16.154 52.4655 13.4702V6.82931H55.5721V8.19613C55.5721 10.7046 57.6129 12.7452 60.1213 12.7452H64.9403C67.4488 12.7452 69.4894 10.7044 69.4894 8.19613V6.82931H72.5466V48.944H67.5624C65.6458 48.944 64.0868 50.5032 64.0868 52.4196V66.2256C64.0868 68.1421 65.6458 69.7013 67.5624 69.7013H72.5466V74.4021H55.8857ZM74.9713 39.4033V24.9757H77.7195V39.4033H74.9713Z" fill="black"/>
<path id="Vector_2" d="M67.2795 24.7316C67.2795 22.3475 65.34 20.4079 62.9559 20.4079C60.5719 20.4079 58.6323 22.3475 58.6323 24.7316C58.6323 27.1156 60.5719 29.0551 62.9559 29.0551C65.34 29.0551 67.2795 27.1156 67.2795 24.7316ZM62.9559 26.6303C61.9088 26.6303 61.0572 25.7785 61.0572 24.7316C61.0572 23.6846 61.909 22.8328 62.9559 22.8328C64.0029 22.8328 64.8547 23.6846 64.8547 24.7316C64.8547 25.7785 64.0029 26.6303 62.9559 26.6303Z" fill="black"/>
</g>
</svg>
