<svg width="83" height="82" viewBox="0 0 83 82" fill="none" xmlns="http://www.w3.org/2000/svg">
<g id="planning" clip-path="url(#clip0_399_2096)">
<g id="Page-1">
<g id="020---Landscape-Plan">
<path id="Shape" d="M13.1424 73.8001H9.04242V69.7001C9.04242 68.9454 8.43054 68.3335 7.67575 68.3335C6.92096 68.3335 6.30908 68.9454 6.30908 69.7001V75.1668C6.30908 75.9216 6.92096 76.5335 7.67575 76.5335H13.1424C13.8972 76.5335 14.5091 75.9216 14.5091 75.1668C14.5091 74.412 13.8972 73.8001 13.1424 73.8001Z" fill="black"/>
<path id="Shape_2" d="M74.6428 15.0333C70.6458 15.0407 67.2353 17.9261 66.5658 21.8666H44.4545C43.7047 14.1672 40.6513 6.87251 35.6928 0.934775C35.1645 0.369505 34.426 0.0478401 33.6524 0.0460282C32.8787 0.0442163 32.1387 0.362418 31.6078 0.925209C29.0427 3.94518 26.9775 7.35625 25.4906 11.029C24.1789 8.38371 22.5536 5.9059 20.6499 3.64898C20.1194 3.0881 19.3814 2.77032 18.6094 2.77032C17.8374 2.77032 17.0995 3.0881 16.569 3.64898C12.2203 8.88298 9.31616 15.1634 8.14487 21.8666H6.30944C3.29028 21.8666 0.842773 24.3142 0.842773 27.3333V76.5333C0.842773 79.5525 3.29028 82 6.30944 82H74.6428C79.1696 81.9955 82.8383 78.3268 82.8428 73.8V23.2333C82.8383 18.7064 79.1696 15.0378 74.6428 15.0333ZM74.6428 17.7666C77.6619 17.7666 80.1094 20.2142 80.1094 23.2333V67.7047C77.0051 64.8986 72.2804 64.8986 69.1761 67.7047V23.2333C69.1761 20.2142 71.6236 17.7666 74.6428 17.7666ZM60.9761 24.6H66.4428V73.8C66.4432 75.8202 67.1937 77.7683 68.5488 79.2666H33.6428V75.1666C33.6428 73.6571 34.8665 72.4333 36.3761 72.4333H47.3094C54.8539 72.425 60.9678 66.3111 60.9761 58.7666V24.6ZM33.6318 2.73331C38.7832 8.87205 41.6805 16.5878 41.8428 24.6C41.8428 32.4911 39.3691 37.31 35.0094 38.13V32.8C35.0094 32.0452 34.3976 31.4333 33.6428 31.4333C32.888 31.4333 32.2761 32.0452 32.2761 32.8V38.13C30.7354 37.8406 29.3506 37.0055 28.3756 35.7779C29.2099 33.0427 29.6039 30.1923 29.5428 27.3333C29.5187 22.9763 28.6845 18.6617 27.0828 14.6096C28.4949 10.2722 30.7172 6.24217 33.6318 2.73331ZM18.6094 5.46664C21.0632 8.39426 23.0269 11.6997 24.4246 15.2547L24.4355 15.2793C25.9836 19.1106 26.7892 23.2012 26.8094 27.3333C26.8094 35.2244 24.3358 40.0433 19.9761 40.8633V36.0991L23.6757 32.3995C24.1936 31.8633 24.1862 31.0109 23.659 30.4837C23.1319 29.9566 22.2795 29.9491 21.7432 30.4671L18.6094 33.6008L15.4757 30.4671C14.9394 29.9491 14.087 29.9566 13.5599 30.4837C13.0327 31.0109 13.0253 31.8633 13.5432 32.3995L17.2428 36.0991V40.8633C12.8831 40.0433 10.4094 35.2258 10.4094 27.3333C10.5872 19.3261 13.4783 11.6164 18.6094 5.46664ZM3.57611 76.5333V27.3333C3.57611 25.8237 4.79986 24.6 6.30944 24.6H7.79911C7.72394 25.4924 7.67611 26.4012 7.67611 27.3333C7.67611 40.441 13.8821 43.1333 17.2428 43.6281V57.4C17.2428 58.1548 17.8547 58.7666 18.6094 58.7666C19.3642 58.7666 19.9761 58.1548 19.9761 57.4V43.6281C23.0613 43.1685 25.7417 41.2639 27.1907 38.5017C28.5896 39.8193 30.3699 40.66 32.2761 40.9029V54.6666C32.2761 55.4214 32.888 56.0333 33.6428 56.0333C34.3976 56.0333 35.0094 55.4214 35.0094 54.6666V40.8947C38.3701 40.4 44.5761 37.7077 44.5761 24.6H48.6761V58.7666C48.6761 60.2762 47.4524 61.5 45.9428 61.5H35.0094C27.465 61.5083 21.3511 67.6222 21.3428 75.1666V79.2666H6.30944C4.79986 79.2666 3.57611 78.0429 3.57611 76.5333ZM24.0761 79.2666V75.1666C24.0829 69.1311 28.9739 64.2401 35.0094 64.2333H45.9428C48.9619 64.2333 51.4094 61.7858 51.4094 58.7666V24.6H58.2428V58.7666C58.236 64.8022 53.3449 69.6932 47.3094 69.7H36.3761C33.3569 69.7 30.9094 72.1475 30.9094 75.1666V79.2666H24.0761ZM74.6428 79.2666C71.6236 79.2666 69.1761 76.8191 69.1761 73.8C69.1761 70.7808 71.6236 68.3333 74.6428 68.3333C77.6619 68.3333 80.1094 70.7808 80.1094 73.8C80.1094 76.8191 77.6619 79.2666 74.6428 79.2666Z" fill="black"/>
</g>
</g>
</g>
<defs>
<clipPath id="clip0_399_2096">
<rect width="82" height="82" fill="white" transform="translate(0.842773)"/>
</clipPath>
</defs>
</svg>
